<svg width="782" height="641" viewBox="0 0 782 641" fill="none" xmlns="http://www.w3.org/2000/svg">
<g id="undraw_My_universe_re_txot (1) 1" clip-path="url(#clip0)">
<path id="Vector" d="M114.718 546.184C164.055 520.607 266.047 477.701 394.787 477.701C523.526 477.701 625.518 520.607 674.856 546.184C722.888 571.083 761.517 600.441 779.714 624.395C786.347 615.367 776.611 454.752 749.67 391.055C710.175 297.448 643.937 217.576 559.253 161.443C474.569 105.311 375.205 75.4152 273.607 75.5C237.469 75.4013 201.671 82.4712 168.284 96.3005C134.897 110.13 104.585 130.444 79.1012 156.067C78.0189 157.149 76.9466 158.239 75.8845 159.336C18.8671 218.236 -7.75593 300.181 1.96425 381.579C8.88461 439.531 25.94 560.744 50.0384 586.445C70.4447 571.255 92.079 557.788 114.718 546.184V546.184Z" fill="#F2F2F2"/>
<path id="Vector_2" d="M400.52 517.45C445.79 517.45 482.489 509.794 482.489 500.35C482.489 490.906 445.79 483.25 400.52 483.25C355.25 483.25 318.551 490.906 318.551 500.35C318.551 509.794 355.25 517.45 400.52 517.45Z" fill="#F2F2F2"/>
<path id="Vector_3" d="M483.79 114C408.65 113.993 349.791 100.371 349.793 82.9879C349.794 72.566 370.651 63.2691 407.015 57.4819C407.145 57.4604 407.278 57.4649 407.406 57.495C407.535 57.5251 407.656 57.5803 407.763 57.6574C407.87 57.7345 407.96 57.832 408.029 57.9442C408.099 58.0564 408.145 58.1812 408.165 58.3114C408.186 58.4415 408.181 58.5745 408.15 58.7027C408.119 58.8308 408.063 58.9516 407.986 59.058C407.908 59.1645 407.81 59.2545 407.697 59.323C407.585 59.3915 407.46 59.437 407.329 59.457C373.074 64.909 351.794 73.9256 351.793 82.9881C351.791 98.7078 412.239 111.994 483.79 112C555.342 112.006 615.791 98.7316 615.793 83.0119C615.794 73.9113 594.379 64.8689 559.905 59.4141C559.775 59.3939 559.651 59.3482 559.538 59.2798C559.426 59.2113 559.328 59.1213 559.251 59.015C559.173 58.9086 559.117 58.788 559.087 58.6601C559.056 58.5322 559.05 58.3995 559.071 58.2695C559.092 58.1396 559.138 58.0149 559.206 57.9028C559.275 57.7906 559.365 57.6932 559.472 57.616C559.579 57.5388 559.699 57.4834 559.827 57.4529C559.955 57.4225 560.088 57.4176 560.218 57.4385C596.809 63.2285 617.794 72.5497 617.793 83.0121C617.791 100.395 558.93 114.007 483.79 114Z" fill="#3F3D56"/>
<path id="Vector_4" d="M417.311 119.832C424.109 131.475 433.844 141.128 445.544 147.826C457.244 154.524 470.498 158.033 483.979 158C497.461 157.967 510.697 154.394 522.364 147.64C534.031 140.885 543.72 131.184 550.461 119.509C506.117 122.056 461.667 122.165 417.311 119.832V119.832Z" fill="#9FC9A3"/>
<path id="Vector_5" d="M557.834 98.1296C561.112 86.6384 561.67 74.542 559.465 62.7977C557.26 51.0534 552.351 39.9835 545.128 30.4642C537.905 20.9449 528.565 13.2374 517.848 7.95185C507.131 2.66629 495.331 -0.0523202 483.381 0.0111811C471.432 0.0746823 459.661 2.91856 449.001 8.31773C438.341 13.7169 429.083 21.5232 421.962 31.1187C414.84 40.7142 410.05 51.8357 407.969 63.6028C405.889 75.3699 406.576 87.4597 409.976 98.9153C459.088 105.049 508.789 104.785 557.834 98.1296V98.1296Z" fill="#9FC9A3"/>
<path id="Vector_6" d="M501.799 43C506.77 43 510.799 38.9706 510.799 34C510.799 29.0294 506.77 25 501.799 25C496.829 25 492.799 29.0294 492.799 34C492.799 38.9706 496.829 43 501.799 43Z" fill="white"/>
<path id="Vector_7" d="M454.794 85.9974C463.078 85.9974 469.794 79.2817 469.794 70.9974C469.794 62.7131 463.078 55.9974 454.794 55.9974C446.51 55.9974 439.794 62.7131 439.794 70.9974C439.794 79.2817 446.51 85.9974 454.794 85.9974Z" fill="white"/>
<path id="Vector_8" d="M483.799 151C488.77 151 492.799 146.971 492.799 142C492.799 137.029 488.77 133 483.799 133C478.829 133 474.799 137.029 474.799 142C474.799 146.971 478.829 151 483.799 151Z" fill="white"/>
<path id="Vector_9" d="M402.84 509.421C433.549 509.421 458.445 505.294 458.445 500.204C458.445 495.113 433.549 490.986 402.84 490.986C372.13 490.986 347.235 495.113 347.235 500.204C347.235 505.294 372.13 509.421 402.84 509.421Z" fill="#E6E6E6"/>
<path id="Vector_10" d="M217.52 606.869C269.187 606.869 311.072 598.132 311.072 587.353C311.072 576.574 269.187 567.836 217.52 567.836C165.853 567.836 123.968 576.574 123.968 587.353C123.968 598.132 165.853 606.869 217.52 606.869Z" fill="#F2F2F2"/>
<path id="Vector_11" d="M598.52 640.45C675.559 640.45 738.011 627.422 738.011 611.35C738.011 595.279 675.559 582.25 598.52 582.25C521.481 582.25 459.029 595.279 459.029 611.35C459.029 627.422 521.481 640.45 598.52 640.45Z" fill="#F2F2F2"/>
<path id="Vector_12" d="M217.235 598.614C256.84 598.614 288.946 593.291 288.946 586.726C288.946 580.16 256.84 574.838 217.235 574.838C177.63 574.838 145.524 580.16 145.524 586.726C145.524 593.291 177.63 598.614 217.235 598.614Z" fill="#E6E6E6"/>
<path id="Vector_13" d="M598.551 629.826C666.262 629.826 721.153 620.726 721.153 609.501C721.153 598.277 666.262 589.177 598.551 589.177C530.839 589.177 475.948 598.277 475.948 609.501C475.948 620.726 530.839 629.826 598.551 629.826Z" fill="#E6E6E6"/>
<path id="Vector_14" d="M57.7869 326C61.6529 326 64.7869 322.866 64.7869 319C64.7869 315.134 61.6529 312 57.7869 312C53.9209 312 50.7869 315.134 50.7869 319C50.7869 322.866 53.9209 326 57.7869 326Z" fill="white"/>
<path id="Vector_15" d="M547.787 428C551.653 428 554.787 424.866 554.787 421C554.787 417.134 551.653 414 547.787 414C543.921 414 540.787 417.134 540.787 421C540.787 424.866 543.921 428 547.787 428Z" fill="white"/>
<path id="Vector_16" d="M308.719 197.08C308.719 214.753 325.061 212.08 345.219 212.08C365.378 212.08 381.719 214.753 381.719 197.08C381.719 179.407 373.737 148.08 345.219 148.08C315.719 148.08 308.719 179.407 308.719 197.08Z" fill="#2F2E41"/>
<path id="Vector_17" d="M263.994 346.733C263.263 345.344 262.845 343.81 262.771 342.242C262.696 340.673 262.966 339.107 263.563 337.654C264.159 336.201 265.066 334.896 266.221 333.832C267.376 332.768 268.75 331.969 270.247 331.494L312.063 243.035L331.191 256.448L284.072 339.182C284.705 341.75 284.374 344.46 283.142 346.799C281.909 349.139 279.862 350.945 277.387 351.876C274.912 352.807 272.182 352.797 269.713 351.849C267.245 350.902 265.21 349.081 263.994 346.733V346.733Z" fill="#FFB8B8"/>
<path id="Vector_18" d="M299.826 254.779C299.627 254.116 299.573 253.418 299.668 252.732C299.764 252.047 300.006 251.39 300.378 250.806L313.379 230.424C314.825 227.191 317.493 224.663 320.799 223.394C324.106 222.125 327.78 222.219 331.017 223.655C334.255 225.091 336.79 227.752 338.068 231.055C339.346 234.358 339.263 238.033 337.835 241.274L331.286 264.627C331.099 265.294 330.771 265.912 330.323 266.44C329.876 266.968 329.32 267.394 328.693 267.688C328.066 267.981 327.384 268.137 326.692 268.143C325.999 268.149 325.314 268.006 324.682 267.724L302.474 257.793C301.841 257.51 301.278 257.095 300.821 256.575C300.364 256.055 300.025 255.442 299.826 254.779V254.779Z" fill="#9FC9A3"/>
<path id="Vector_19" d="M415.837 517.679L404.317 521.874L382.656 479.436L399.658 473.245L415.837 517.679Z" fill="#FFB8B8"/>
<path id="Vector_20" d="M394.89 521.578L417.107 513.489L422.2 527.478L385.994 540.66C385.325 538.823 385.025 536.872 385.11 534.919C385.195 532.966 385.664 531.049 386.49 529.277C387.316 527.505 388.483 525.913 389.924 524.592C391.365 523.271 393.053 522.247 394.89 521.578Z" fill="#2F2E41"/>
<path id="Vector_21" d="M384.388 490.835L340.501 414.033C340.077 413.29 339.858 412.448 339.867 411.592C339.876 410.737 340.113 409.899 340.553 409.165L360.315 376.228C360.784 375.447 361.464 374.815 362.278 374.405C363.091 373.995 364.005 373.824 364.911 373.912C365.818 374 366.681 374.343 367.401 374.902C368.12 375.461 368.666 376.213 368.976 377.07L406.34 480.538C406.751 481.664 406.726 482.904 406.269 484.012C405.812 485.121 404.956 486.018 403.871 486.528L390.632 492.798C389.993 493.101 389.295 493.258 388.588 493.257C387.737 493.259 386.9 493.035 386.163 492.61C385.425 492.185 384.813 491.573 384.388 490.835V490.835Z" fill="#2F2E41"/>
<path id="Vector_22" d="M343.662 211.121C357.227 211.121 368.223 200.124 368.223 186.56C368.223 172.995 357.227 161.999 343.662 161.999C330.097 161.999 319.101 172.995 319.101 186.56C319.101 200.124 330.097 211.121 343.662 211.121Z" fill="#FFB8B8"/>
<path id="Vector_23" d="M308.727 297.811C289.385 254.923 308.884 230.952 318.165 222.638C320.839 220.24 324.304 218.914 327.896 218.917H362.495C364.98 218.916 367.423 219.552 369.593 220.761C371.763 221.971 373.588 223.716 374.894 225.829C376.201 227.943 376.945 230.355 377.057 232.837C377.168 235.319 376.644 237.789 375.532 240.011L352.403 286.27L308.915 298.229L308.727 297.811Z" fill="#9FC9A3"/>
<path id="Vector_24" d="M336.698 529.276L324.438 529.275L318.606 481.987L336.7 481.988L336.698 529.276Z" fill="#FFB8B8"/>
<path id="Vector_25" d="M315.681 525.772H339.325V540.659H300.794C300.794 536.711 302.363 532.924 305.154 530.132C307.946 527.341 311.733 525.772 315.681 525.772V525.772Z" fill="#2F2E41"/>
<path id="Vector_26" d="M331.503 511.223L311.875 508.959C311.239 508.886 310.625 508.687 310.068 508.373C309.51 508.06 309.02 507.639 308.627 507.134C308.234 506.63 307.946 506.052 307.778 505.435C307.611 504.818 307.568 504.173 307.652 503.539L325.17 371.639C325.231 371.18 325.206 370.713 325.097 370.263L307.49 297.618C307.323 296.948 307.304 296.25 307.434 295.572C307.564 294.894 307.841 294.252 308.243 293.692C310.974 289.927 320.329 281.155 348.158 280.989H348.188C349.114 280.989 350.022 281.255 350.801 281.757C351.581 282.258 352.2 282.972 352.585 283.815L356.297 291.981C356.573 292.588 357.006 293.11 357.55 293.494C362.659 297.111 387.412 317.412 372.878 361.983C358.593 405.79 340.291 490.837 336.766 507.441C336.542 508.521 335.952 509.489 335.096 510.184C334.24 510.879 333.171 511.257 332.069 511.256C331.88 511.256 331.691 511.245 331.503 511.223V511.223Z" fill="#2F2E41"/>
<path id="Vector_27" d="M429.142 192.724C429.189 193.276 429.28 193.822 429.414 194.359L396.067 231.067L384.289 228.529L378.135 245.803L398.549 252.322C400.198 252.849 401.973 252.827 403.609 252.258C405.244 251.69 406.651 250.607 407.618 249.171L439.139 202.376C441.268 202.47 443.376 201.914 445.182 200.782C446.988 199.649 448.406 197.994 449.249 196.036C450.091 194.077 450.317 191.909 449.896 189.819C449.476 187.73 448.43 185.817 446.896 184.337C445.362 182.856 443.414 181.878 441.311 181.531C439.208 181.185 437.049 181.487 435.121 182.398C433.194 183.308 431.589 184.784 430.521 186.629C429.453 188.473 428.972 190.6 429.142 192.724H429.142Z" fill="#FFB8B8"/>
<path id="Vector_28" d="M395.057 232.623L387.326 253.995C387.106 254.603 386.758 255.157 386.305 255.618C385.852 256.079 385.304 256.438 384.7 256.668C384.096 256.899 383.449 256.997 382.804 256.955C382.159 256.913 381.53 256.733 380.961 256.426L361.013 245.679C357.907 244.537 355.381 242.209 353.988 239.207C352.596 236.205 352.452 232.773 353.587 229.664C354.721 226.555 357.043 224.024 360.042 222.625C363.041 221.225 366.473 221.073 369.584 222.2L391.72 226.682C392.354 226.811 392.953 227.074 393.475 227.455C393.998 227.836 394.432 228.325 394.749 228.888C395.066 229.452 395.257 230.078 395.311 230.722C395.364 231.367 395.277 232.015 395.057 232.623V232.623Z" fill="#9FC9A3"/>
<path id="Vector_29" d="M373.719 185.08H364.005L359.719 173.08L358.863 185.08H354.219L351.719 178.08L351.219 185.08H316.719C316.719 178.185 319.459 171.571 324.335 166.695C329.211 161.819 335.824 159.08 342.719 159.08H347.719C354.615 159.08 361.228 161.819 366.104 166.695C370.98 171.571 373.719 178.185 373.719 185.08V185.08Z" fill="#2F2E41"/>
<path id="Vector_30" d="M114.287 442H110.787V438.5C110.787 437.307 110.313 436.162 109.469 435.318C108.625 434.474 107.48 434 106.287 434C105.093 434 103.949 434.474 103.105 435.318C102.261 436.162 101.787 437.307 101.787 438.5V442H98.2867C97.0933 442 95.9487 442.474 95.1048 443.318C94.2609 444.162 93.7867 445.307 93.7867 446.5C93.7867 447.693 94.2609 448.838 95.1048 449.682C95.9487 450.526 97.0933 451 98.2867 451H101.787V454.5C101.787 455.693 102.261 456.838 103.105 457.682C103.949 458.526 105.093 459 106.287 459C107.48 459 108.625 458.526 109.469 457.682C110.313 456.838 110.787 455.693 110.787 454.5V451H114.287C115.48 451 116.625 450.526 117.469 449.682C118.313 448.838 118.787 447.693 118.787 446.5C118.787 445.307 118.313 444.162 117.469 443.318C116.625 442.474 115.48 442 114.287 442Z" fill="white"/>
<path id="Vector_31" d="M629.447 356.16H627.627V354.34C627.627 353.719 627.38 353.124 626.941 352.685C626.503 352.247 625.907 352 625.287 352C624.666 352 624.071 352.247 623.632 352.685C623.193 353.124 622.947 353.719 622.947 354.34V356.16H621.127C620.506 356.16 619.911 356.407 619.472 356.845C619.033 357.284 618.787 357.879 618.787 358.5C618.787 359.121 619.033 359.716 619.472 360.155C619.911 360.593 620.506 360.84 621.127 360.84H622.947V362.66C622.947 363.281 623.193 363.876 623.632 364.315C624.071 364.753 624.666 365 625.287 365C625.907 365 626.503 364.753 626.941 364.315C627.38 363.876 627.627 363.281 627.627 362.66V360.84H629.447C630.067 360.84 630.663 360.593 631.102 360.155C631.54 359.716 631.787 359.121 631.787 358.5C631.787 357.879 631.54 357.284 631.102 356.845C630.663 356.407 630.067 356.16 629.447 356.16V356.16Z" fill="#FF6584"/>
<path id="Vector_32" d="M233.447 235.16H231.627V233.34C231.627 232.719 231.38 232.124 230.941 231.685C230.503 231.247 229.907 231 229.287 231C228.666 231 228.071 231.247 227.632 231.685C227.193 232.124 226.947 232.719 226.947 233.34V235.16H225.127C224.506 235.16 223.911 235.407 223.472 235.845C223.033 236.284 222.787 236.879 222.787 237.5C222.787 238.121 223.033 238.716 223.472 239.155C223.911 239.593 224.506 239.84 225.127 239.84H226.947V241.66C226.947 242.281 227.193 242.876 227.632 243.315C228.071 243.753 228.666 244 229.287 244C229.907 244 230.503 243.753 230.941 243.315C231.38 242.876 231.627 242.281 231.627 241.66V239.84H233.447C234.067 239.84 234.663 239.593 235.101 239.155C235.54 238.716 235.787 238.121 235.787 237.5C235.787 236.879 235.54 236.284 235.101 235.845C234.663 235.407 234.067 235.16 233.447 235.16V235.16Z" fill="white"/>
<path id="Vector_33" d="M698.447 475.16H696.627V473.34C696.627 472.719 696.38 472.124 695.941 471.685C695.503 471.247 694.907 471 694.287 471C693.666 471 693.071 471.247 692.632 471.685C692.193 472.124 691.947 472.719 691.947 473.34V475.16H690.127C689.506 475.16 688.911 475.407 688.472 475.845C688.033 476.284 687.787 476.879 687.787 477.5C687.787 478.121 688.033 478.716 688.472 479.155C688.911 479.593 689.506 479.84 690.127 479.84H691.947V481.66C691.947 482.281 692.193 482.876 692.632 483.315C693.071 483.753 693.666 484 694.287 484C694.907 484 695.503 483.753 695.941 483.315C696.38 482.876 696.627 482.281 696.627 481.66V479.84H698.447C699.067 479.84 699.663 479.593 700.102 479.155C700.54 478.716 700.787 478.121 700.787 477.5C700.787 476.879 700.54 476.284 700.102 475.845C699.663 475.407 699.067 475.16 698.447 475.16V475.16Z" fill="white"/>
<path id="Vector_34" d="M488.447 280.16H486.627V278.34C486.627 277.719 486.38 277.124 485.941 276.685C485.503 276.247 484.907 276 484.287 276C483.666 276 483.071 276.247 482.632 276.685C482.193 277.124 481.947 277.719 481.947 278.34V280.16H480.127C479.506 280.16 478.911 280.407 478.472 280.845C478.033 281.284 477.787 281.879 477.787 282.5C477.787 283.121 478.033 283.716 478.472 284.155C478.911 284.593 479.506 284.84 480.127 284.84H481.947V286.66C481.947 287.281 482.193 287.876 482.632 288.315C483.071 288.753 483.666 289 484.287 289C484.907 289 485.503 288.753 485.941 288.315C486.38 287.876 486.627 287.281 486.627 286.66V284.84H488.447C489.067 284.84 489.663 284.593 490.101 284.155C490.54 283.716 490.787 283.121 490.787 282.5C490.787 281.879 490.54 281.284 490.101 280.845C489.663 280.407 489.067 280.16 488.447 280.16V280.16Z" fill="white"/>
<path id="Vector_35" d="M167.447 330.16H165.627V328.34C165.627 327.719 165.38 327.124 164.941 326.685C164.503 326.247 163.907 326 163.287 326C162.666 326 162.071 326.247 161.632 326.685C161.193 327.124 160.947 327.719 160.947 328.34V330.16H159.127C158.506 330.16 157.911 330.407 157.472 330.845C157.033 331.284 156.787 331.879 156.787 332.5C156.787 333.121 157.033 333.716 157.472 334.155C157.911 334.593 158.506 334.84 159.127 334.84H160.947V336.66C160.947 337.281 161.193 337.876 161.632 338.315C162.071 338.753 162.666 339 163.287 339C163.907 339 164.503 338.753 164.941 338.315C165.38 337.876 165.627 337.281 165.627 336.66V334.84H167.447C168.067 334.84 168.663 334.593 169.101 334.155C169.54 333.716 169.787 333.121 169.787 332.5C169.787 331.879 169.54 331.284 169.101 330.845C168.663 330.407 168.067 330.16 167.447 330.16V330.16Z" fill="white"/>
<path id="Vector_36" d="M173.447 164.16H171.627V162.34C171.627 161.719 171.38 161.124 170.941 160.685C170.503 160.247 169.907 160 169.287 160C168.666 160 168.071 160.247 167.632 160.685C167.193 161.124 166.947 161.719 166.947 162.34V164.16H165.127C164.506 164.16 163.911 164.407 163.472 164.845C163.033 165.284 162.787 165.879 162.787 166.5C162.787 167.121 163.033 167.716 163.472 168.155C163.911 168.593 164.506 168.84 165.127 168.84H166.947V170.66C166.947 171.281 167.193 171.876 167.632 172.315C168.071 172.753 168.666 173 169.287 173C169.907 173 170.503 172.753 170.941 172.315C171.38 171.876 171.627 171.281 171.627 170.66V168.84H173.447C174.067 168.84 174.663 168.593 175.101 168.155C175.54 167.716 175.787 167.121 175.787 166.5C175.787 165.879 175.54 165.284 175.101 164.845C174.663 164.407 174.067 164.16 173.447 164.16V164.16Z" fill="white"/>
<g id="Group" opacity="0.7">
<path id="Vector_37" opacity="0.7" d="M637.43 244H497.34C485.554 244 476 253.554 476 265.34V384.66C476 396.446 485.554 406 497.34 406H637.43C649.216 406 658.77 396.446 658.77 384.66V265.34C658.77 253.554 649.216 244 637.43 244Z" fill="url(#paint0_linear)"/>
</g>
<path id="Vector_38" d="M634.04 247H500.72C488.934 247 479.38 256.554 479.38 268.34V381.66C479.38 393.446 488.934 403 500.72 403H634.04C645.826 403 655.38 393.446 655.38 381.66V268.34C655.38 256.554 645.826 247 634.04 247Z" fill="#E0E0E0"/>
<path id="Vector_39" d="M542.89 365.63L519.23 324.63L542.89 283.63H590.2L613.86 324.63L590.2 365.63H542.89Z" fill="#CAC9C2"/>
<path id="Vector_40" d="M567.36 343.36C563.713 343.36 560.148 342.278 557.115 340.252C554.083 338.226 551.719 335.346 550.324 331.977C548.928 328.607 548.563 324.9 549.274 321.323C549.986 317.746 551.742 314.46 554.321 311.881C556.9 309.302 560.185 307.546 563.762 306.834C567.339 306.123 571.047 306.488 574.417 307.884C577.786 309.279 580.666 311.643 582.692 314.675C584.718 317.708 585.8 321.273 585.8 324.92C585.795 329.809 583.85 334.496 580.393 337.953C576.936 341.41 572.249 343.355 567.36 343.36" fill="white"/>
<path id="Vector_41" d="M604.44 269.94C603.572 268.612 602.403 267.507 601.029 266.713C599.655 265.919 598.114 265.459 596.53 265.37H538.23C536.646 265.459 535.104 265.919 533.731 266.713C532.357 267.507 531.188 268.612 530.32 269.94L513.32 299.44C513.154 301.288 513.522 303.145 514.38 304.79L525.91 324.5L546.49 288.94H611.55C613.242 289.007 614.885 289.525 616.31 290.44L604.47 269.93" fill="#5072AA"/>
<path id="Vector_42" d="M514.03 298.16L513.28 299.45C513.114 301.298 513.482 303.155 514.34 304.8L525.87 324.51L532 313.91L514 298.15" fill="#4D6796"/>
<path id="Vector_43" d="M539.73 280.54C539.026 280.54 538.338 280.331 537.752 279.94C537.167 279.549 536.71 278.993 536.441 278.342C536.171 277.692 536.101 276.976 536.238 276.285C536.376 275.595 536.715 274.961 537.213 274.463C537.711 273.965 538.345 273.626 539.035 273.488C539.726 273.351 540.442 273.422 541.092 273.691C541.743 273.96 542.299 274.417 542.69 275.002C543.081 275.588 543.29 276.276 543.29 276.98C543.29 277.924 542.915 278.83 542.247 279.497C541.58 280.165 540.674 280.54 539.73 280.54V280.54ZM598.03 276.98C598.035 277.413 597.955 277.842 597.794 278.244C597.634 278.646 597.395 279.012 597.093 279.322C596.791 279.631 596.431 279.878 596.033 280.049C595.635 280.219 595.208 280.31 594.775 280.315C594.342 280.32 593.913 280.24 593.511 280.079C593.109 279.919 592.743 279.68 592.433 279.378C591.808 278.768 591.451 277.934 591.44 277.06C591.44 277.06 591.44 277 591.44 276.98C591.44 276.106 591.787 275.268 592.405 274.65C593.023 274.032 593.861 273.685 594.735 273.685C595.609 273.685 596.447 274.032 597.065 274.65C597.683 275.268 598.03 276.106 598.03 276.98V276.98Z" fill="white"/>
<path id="Vector_44" d="M633.58 320.43L616.27 290.43C614.845 289.515 613.202 288.997 611.51 288.93H588.06L608.36 324.71L576.24 381.46C575.42 382.772 574.286 383.858 572.94 384.62H596.54C598.124 384.531 599.665 384.071 601.039 383.277C602.413 382.483 603.582 381.378 604.45 380.05L633.6 329.56C634.315 328.145 634.688 326.581 634.688 324.995C634.688 323.409 634.315 321.845 633.6 320.43" fill="#CC4232"/>
<path id="Vector_45" d="M617.06 291.8L616.28 290.45C614.856 289.534 613.212 289.016 611.52 288.95H588.06L594.17 299.71L617.06 291.79" fill="#B23F33"/>
<path id="Vector_46" d="M594.73 375.9C594.026 375.9 593.338 375.691 592.752 375.3C592.167 374.909 591.71 374.353 591.441 373.702C591.171 373.052 591.101 372.336 591.238 371.645C591.376 370.955 591.715 370.321 592.213 369.823C592.711 369.325 593.345 368.986 594.035 368.848C594.726 368.711 595.442 368.782 596.092 369.051C596.743 369.32 597.299 369.777 597.69 370.362C598.081 370.948 598.29 371.636 598.29 372.34C598.29 373.284 597.915 374.19 597.247 374.857C596.58 375.525 595.674 375.9 594.73 375.9V375.9ZM622.42 328.48C621.716 328.48 621.028 328.271 620.442 327.88C619.857 327.489 619.4 326.933 619.131 326.282C618.861 325.632 618.791 324.916 618.928 324.225C619.066 323.535 619.405 322.901 619.903 322.403C620.401 321.905 621.035 321.566 621.725 321.428C622.416 321.291 623.132 321.362 623.782 321.631C624.433 321.9 624.989 322.357 625.38 322.942C625.771 323.528 625.98 324.216 625.98 324.92C625.98 325.864 625.605 326.77 624.937 327.437C624.27 328.105 623.364 328.48 622.42 328.48" fill="white"/>
<path id="Vector_47" d="M546.91 360.48L514.36 304.8C513.502 303.155 513.134 301.298 513.3 299.45L501.19 320.45C500.475 321.866 500.103 323.429 500.103 325.015C500.103 326.601 500.475 328.164 501.19 329.58L530.36 380.05C531.229 381.376 532.398 382.48 533.772 383.272C535.146 384.064 536.687 384.522 538.27 384.61H572.96C574.306 383.848 575.44 382.762 576.26 381.45L588.14 360.45H546.91" fill="#ECB02A"/>
<path id="Vector_48" d="M570.95 384.62H572.95C574.296 383.858 575.431 382.772 576.25 381.46L588.13 360.46H575.5L570.95 384.6" fill="#C79732"/>
<path id="Vector_49" d="M539.73 375.9C539.026 375.9 538.338 375.691 537.752 375.3C537.167 374.909 536.71 374.353 536.441 373.702C536.171 373.052 536.101 372.336 536.238 371.645C536.376 370.955 536.715 370.321 537.213 369.823C537.711 369.325 538.345 368.986 539.035 368.848C539.726 368.711 540.442 368.782 541.092 369.051C541.743 369.32 542.299 369.777 542.69 370.362C543.081 370.948 543.29 371.636 543.29 372.34C543.29 373.284 542.915 374.19 542.247 374.857C541.58 375.525 540.674 375.9 539.73 375.9V375.9ZM511.99 328.48C511.286 328.48 510.598 328.271 510.012 327.88C509.427 327.489 508.97 326.933 508.701 326.282C508.431 325.632 508.361 324.916 508.498 324.225C508.636 323.535 508.975 322.901 509.473 322.403C509.97 321.905 510.605 321.566 511.295 321.428C511.986 321.291 512.702 321.362 513.352 321.631C514.003 321.9 514.559 322.357 514.95 322.942C515.341 323.528 515.55 324.216 515.55 324.92C515.55 325.864 515.175 326.77 514.507 327.437C513.84 328.105 512.934 328.48 511.99 328.48Z" fill="white"/>
<g id="Group_2" opacity="0.7">
<path id="Vector_50" opacity="0.7" d="M235.43 331H95.34C83.5543 331 74 340.554 74 352.34V471.66C74 483.446 83.5543 493 95.34 493H235.43C247.216 493 256.77 483.446 256.77 471.66V352.34C256.77 340.554 247.216 331 235.43 331Z" fill="url(#paint1_linear)"/>
</g>
<path id="Vector_51" d="M232.04 334H98.7199C86.9342 334 77.3799 343.554 77.3799 355.34V468.66C77.3799 480.446 86.9342 490 98.7199 490H232.04C243.826 490 253.38 480.446 253.38 468.66V355.34C253.38 343.554 243.826 334 232.04 334Z" fill="#E0E0E0"/>
<path id="Vector_52" d="M133.96 400.22C133.924 401.658 134.103 403.094 134.49 404.48C134.915 405.666 135.426 406.819 136.02 407.93C136.235 408.257 136.352 408.639 136.36 409.03C136.331 409.324 136.233 409.608 136.075 409.858C135.917 410.108 135.703 410.317 135.45 410.47L132.45 412.47C132.084 412.733 131.65 412.882 131.2 412.9C130.653 412.864 130.14 412.625 129.76 412.23C129.116 411.537 128.54 410.783 128.04 409.98C127.56 409.17 127.04 408.26 126.56 407.15C124.872 409.252 122.726 410.94 120.285 412.086C117.845 413.231 115.175 413.804 112.48 413.76C108.48 413.76 105.25 412.61 102.9 410.31C100.485 407.673 99.2141 404.185 99.366 400.613C99.5178 397.04 101.08 393.673 103.71 391.25C106.63 388.76 110.51 387.51 115.44 387.51C117.14 387.523 118.837 387.65 120.52 387.89C122.29 388.13 124.11 388.51 126.03 388.94V385.44C126.03 381.8 125.26 379.26 123.78 377.78C122.3 376.3 119.66 375.58 115.97 375.58C114.228 375.579 112.492 375.787 110.8 376.2C109.04 376.62 107.313 377.165 105.63 377.83C105.084 378.073 104.523 378.28 103.95 378.45C103.701 378.531 103.442 378.578 103.18 378.59C102.51 378.59 102.18 378.11 102.18 377.11V374.76C102.128 374.179 102.246 373.595 102.52 373.08C102.882 372.646 103.341 372.303 103.86 372.08C105.77 371.13 107.783 370.405 109.86 369.92C112.3 369.294 114.811 368.988 117.33 369.01C123.03 369.01 127.2 370.3 129.88 372.89C132.56 375.48 133.88 379.4 133.88 384.67V400.22H133.96ZM114.52 407.5C116.199 407.482 117.864 407.191 119.45 406.64C121.208 406.031 122.777 404.973 124 403.57C124.773 402.686 125.331 401.636 125.63 400.5C125.96 399.135 126.121 397.734 126.11 396.33V394.33C124.656 393.978 123.184 393.707 121.7 393.52C120.208 393.33 118.705 393.233 117.2 393.23C113.99 393.23 111.64 393.85 110.06 395.15C108.862 396.021 107.978 397.257 107.543 398.672C107.108 400.088 107.143 401.607 107.645 403C108.147 404.394 109.087 405.587 110.325 406.4C111.563 407.214 113.032 407.603 114.51 407.51L114.52 407.5ZM152.98 412.67C152.335 412.736 151.688 412.566 151.16 412.19C150.66 411.671 150.314 411.024 150.16 410.32L138.91 373.32C138.692 372.699 138.548 372.055 138.48 371.4C138.456 371.241 138.469 371.079 138.518 370.926C138.566 370.773 138.649 370.633 138.76 370.518C138.871 370.402 139.007 370.313 139.158 370.258C139.309 370.203 139.47 370.183 139.63 370.2H144.32C144.982 370.119 145.649 370.291 146.19 370.68C146.689 371.2 147.035 371.847 147.19 372.55L155.19 404.26L162.66 372.55C162.758 371.846 163.077 371.191 163.57 370.68C164.146 370.327 164.816 370.159 165.49 370.2H169.32C169.997 370.128 170.677 370.298 171.24 370.68C171.741 371.186 172.061 371.843 172.15 372.55L179.72 404.64L188.01 372.55C188.174 371.85 188.519 371.205 189.01 370.68C189.567 370.326 190.222 370.158 190.88 370.2H195.33C195.493 370.177 195.659 370.191 195.816 370.243C195.972 370.295 196.114 370.383 196.23 370.5C196.347 370.616 196.434 370.758 196.487 370.914C196.539 371.071 196.553 371.237 196.53 371.4C196.518 371.659 196.484 371.916 196.43 372.17C196.354 372.58 196.24 372.981 196.09 373.37L184.55 410.37C184.408 411.078 184.06 411.729 183.55 412.24C183.009 412.587 182.372 412.755 181.73 412.72H177.61C176.933 412.792 176.253 412.622 175.69 412.24C175.189 411.714 174.87 411.041 174.78 410.32L167.36 379.43L159.98 410.27C159.869 410.984 159.553 411.651 159.07 412.19C158.503 412.563 157.826 412.732 157.15 412.67H152.98ZM214.52 413.96C212.035 413.964 209.558 413.675 207.14 413.1C205.226 412.71 203.372 412.064 201.63 411.18C201.015 410.889 200.5 410.423 200.15 409.84C199.963 409.418 199.864 408.962 199.86 408.5V406.06C199.86 405.06 200.24 404.58 200.96 404.58C201.252 404.58 201.543 404.627 201.82 404.72C202.11 404.82 202.54 405.01 203.02 405.2C204.712 405.945 206.479 406.509 208.29 406.88C210.166 407.259 212.076 407.45 213.99 407.45C216.426 407.595 218.853 407.047 220.99 405.87C221.77 405.399 222.411 404.73 222.848 403.931C223.286 403.131 223.504 402.231 223.48 401.32C223.497 400.704 223.392 400.091 223.171 399.516C222.949 398.941 222.616 398.415 222.19 397.97C220.789 396.78 219.133 395.928 217.35 395.48L210.36 393.32C206.86 392.22 204.28 390.59 202.7 388.43C201.161 386.443 200.321 384.003 200.31 381.49C200.27 379.635 200.714 377.801 201.6 376.17C202.455 374.628 203.632 373.288 205.05 372.24C206.549 371.108 208.244 370.264 210.05 369.75C212 369.19 214.021 368.917 216.05 368.94C217.123 368.931 218.195 368.995 219.26 369.13C220.36 369.27 221.37 369.47 222.37 369.66C223.37 369.85 224.24 370.14 225.1 370.43C225.795 370.646 226.465 370.934 227.1 371.29C227.665 371.575 228.158 371.985 228.54 372.49C228.851 372.956 229.002 373.511 228.97 374.07V376.32C228.97 377.32 228.59 377.85 227.87 377.85C227.232 377.779 226.614 377.585 226.05 377.28C223.154 375.999 220.016 375.361 216.85 375.41C214.645 375.279 212.445 375.742 210.48 376.75C209.749 377.184 209.153 377.812 208.756 378.563C208.359 379.315 208.177 380.162 208.23 381.01C208.217 381.646 208.339 382.278 208.587 382.864C208.835 383.45 209.204 383.977 209.67 384.41C211.225 385.643 213.02 386.538 214.94 387.04L221.74 389.2C225.19 390.3 227.68 391.83 229.16 393.8C230.622 395.728 231.396 398.09 231.36 400.51C231.384 402.436 230.956 404.34 230.11 406.07C229.258 407.708 228.065 409.144 226.61 410.28C225.027 411.51 223.22 412.42 221.29 412.96C219.071 413.64 216.761 413.978 214.44 413.96H214.52Z" fill="#252F3E"/>
<path id="Vector_53" d="M223.57 437.22C207.81 448.86 184.92 455.04 165.24 455.04C138.945 455.176 113.547 445.49 94.0199 427.88C92.5399 426.54 93.8799 424.72 95.6499 425.77C114.565 436.68 135.749 443.063 157.543 444.418C179.337 445.773 201.149 442.063 221.27 433.58C223.9 432.38 226.16 435.3 223.57 437.22V437.22Z" fill="#FF9900"/>
<path id="Vector_54" d="M230.13 429.77C228.13 427.18 216.82 428.52 211.69 429.15C210.16 429.34 209.92 428 211.31 426.99C220.31 420.67 235.11 422.49 236.84 424.6C238.57 426.71 236.36 441.6 227.93 448.6C226.64 449.7 225.39 449.13 225.93 447.69C227.88 442.98 232.14 432.3 230.13 429.77Z" fill="#FF9900"/>
<g id="Group_3" opacity="0.7">
<path id="Vector_55" opacity="0.7" d="M254.43 111H114.34C102.554 111 93 120.554 93 132.34V251.66C93 263.446 102.554 273 114.34 273H254.43C266.216 273 275.77 263.446 275.77 251.66V132.34C275.77 120.554 266.216 111 254.43 111Z" fill="url(#paint2_linear)"/>
</g>
<path id="Vector_56" d="M251.04 114H117.72C105.934 114 96.38 123.554 96.38 135.34V248.66C96.38 260.446 105.934 270 117.72 270H251.04C262.826 270 272.38 260.446 272.38 248.66V135.34C272.38 123.554 262.826 114 251.04 114Z" fill="#E0E0E0"/>
<path id="Vector_57" d="M150.81 258.93V247.22C150.815 247.052 150.782 246.884 150.716 246.729C150.649 246.575 150.549 246.436 150.423 246.324C150.298 246.212 150.149 246.128 149.988 246.079C149.827 246.03 149.657 246.017 149.49 246.04C147.825 246.072 146.183 246.436 144.66 247.11V258.9H141.36V237.22H144.65V244.38C146.338 243.721 148.128 243.359 149.94 243.31C152.94 243.31 154.05 245.15 154.05 247.67V258.92H150.79L150.81 258.93ZM160.22 251.85C160.33 255.77 161.1 256.54 163.51 256.54C165.462 256.45 167.383 256.023 169.19 255.28L169.74 257.75C167.732 258.732 165.535 259.264 163.3 259.31C157.81 259.31 156.96 256.31 156.96 251.49C156.896 249.06 157.172 246.633 157.78 244.28C159.906 243.555 162.145 243.216 164.39 243.28C168.89 243.28 170.26 245.78 170.26 250.14V251.81H160.26L160.22 251.85ZM164.39 246.06C163.105 246.038 161.82 246.128 160.55 246.33C160.329 247.396 160.209 248.481 160.19 249.57H167.05C167.05 247.29 166.64 246.06 164.39 246.06ZM176.39 247.13V258.92H173.1V245.65C175.467 244.419 178.067 243.7 180.73 243.54V246.28C179.251 246.333 177.789 246.62 176.4 247.13H176.39ZM189.39 259.31C184.48 259.31 182.26 256.9 182.26 251.38C182.26 245.54 185.19 243.32 189.39 243.32C194.3 243.32 196.52 245.73 196.52 251.25C196.52 257.09 193.58 259.31 189.39 259.31ZM189.39 246.06C186.87 246.06 185.47 247.51 185.47 251.38C185.47 255.6 186.65 256.54 189.39 256.54C191.91 256.54 193.31 255.11 193.31 251.25C193.31 247.03 192.13 246.07 189.39 246.07V246.06ZM212.39 258.92H208.52C207.608 256.346 206.213 253.97 204.41 251.92H202.68V258.92H199.46V237.22H202.75V249.67H204.29C205.929 247.918 207.24 245.886 208.16 243.67H211.86C210.658 246.118 209.075 248.359 207.17 250.31C209.239 252.97 211.013 255.847 212.46 258.89L212.39 258.92ZM218.56 259.3C215.56 259.3 214.45 257.46 214.45 254.94V243.71H217.71V255.37C217.705 255.538 217.738 255.706 217.804 255.861C217.871 256.015 217.971 256.154 218.096 256.266C218.222 256.378 218.371 256.462 218.532 256.511C218.693 256.56 218.863 256.573 219.03 256.55C220.75 256.52 222.448 256.156 224.03 255.48V243.71H227.36V256.93C224.71 258.477 221.699 259.298 218.63 259.31L218.56 259.3ZM217.11 231.69H151.54C150.205 231.693 148.882 231.432 147.648 230.923C146.414 230.415 145.292 229.667 144.346 228.725C143.401 227.782 142.651 226.662 142.138 225.43C141.626 224.197 141.361 222.875 141.36 221.54V135.29C141.36 133.956 141.623 132.635 142.133 131.402C142.644 130.169 143.392 129.049 144.336 128.106C145.279 127.162 146.399 126.414 147.632 125.903C148.865 125.393 150.186 125.13 151.52 125.13H217.15C218.488 125.125 219.814 125.384 221.052 125.892C222.29 126.4 223.415 127.147 224.364 128.091C225.312 129.035 226.065 130.157 226.579 131.392C227.093 132.627 227.359 133.952 227.36 135.29V221.54C227.36 222.875 227.097 224.197 226.586 225.43C226.074 226.664 225.325 227.784 224.381 228.728C223.436 229.671 222.315 230.419 221.081 230.929C219.847 231.439 218.525 231.701 217.19 231.7L217.11 231.69Z" fill="#6762A6"/>
<path id="Vector_58" d="M195.25 217.04V174.72C195.25 174.72 198 164.59 161.34 178.86C161.27 179.04 161.27 139.72 161.27 139.72L173.27 139.65V164.84C173.27 164.84 206.81 151.63 206.81 174.84V217.02H195.25V217.04ZM202.08 154.89H189.36C193.93 149.3 198.07 139.72 198.07 139.72H211.21C211.21 139.72 208.96 145.96 202.06 154.89H202.08ZM161.49 216.96V192.86L173.54 204.91L161.49 216.96V216.96Z" fill="white"/>
</g>
<defs>
<linearGradient id="paint0_linear" x1="121912" y1="45118" x2="121912" y2="18874" gradientUnits="userSpaceOnUse">
<stop stop-color="#808080" stop-opacity="0.25"/>
<stop offset="0.54" stop-color="#808080" stop-opacity="0.12"/>
<stop offset="1" stop-color="#808080" stop-opacity="0.1"/>
</linearGradient>
<linearGradient id="paint1_linear" x1="141432" y1="89269" x2="141432" y2="63025" gradientUnits="userSpaceOnUse">
<stop stop-color="#808080" stop-opacity="0.25"/>
<stop offset="0.54" stop-color="#808080" stop-opacity="0.12"/>
<stop offset="1" stop-color="#808080" stop-opacity="0.1"/>
</linearGradient>
<linearGradient id="paint2_linear" x1="56645.7" y1="101037" x2="56645.7" y2="74793" gradientUnits="userSpaceOnUse">
<stop stop-color="#808080" stop-opacity="0.25"/>
<stop offset="0.54" stop-color="#808080" stop-opacity="0.12"/>
<stop offset="1" stop-color="#808080" stop-opacity="0.1"/>
</linearGradient>
<clipPath id="clip0">
<rect width="781.723" height="640.45" fill="white"/>
</clipPath>
</defs>
</svg>
