<svg width="1358" height="702" viewBox="0 0 1358 702" fill="none" xmlns="http://www.w3.org/2000/svg">
<rect width="1358" height="702" fill="#E5E5E5"/>
<path id="Vector" d="M706.96 244.208C700.347 241.941 693.68 239.841 686.96 237.908C688.067 233.381 689.097 228.831 690.05 224.258C705.19 150.748 695.29 91.5279 661.48 72.0379C629.06 53.3379 576.04 72.8379 522.48 119.428C517.2 124.041 512.043 128.775 507.01 133.628C503.63 130.395 500.197 127.225 496.71 124.118C440.6 74.2879 384.39 53.2979 350.57 72.8479C318.18 91.5979 308.57 147.268 322.22 216.938C323.553 223.838 325.083 230.698 326.81 237.518C318.86 239.778 311.17 242.188 303.81 244.758C238.02 267.648 196 303.648 196 340.938C196 379.448 241.11 418.078 309.64 441.498C315.2 443.385 320.8 445.138 326.44 446.758C324.613 454.091 322.987 461.485 321.56 468.938C308.56 537.398 318.72 591.758 351.02 610.388C384.39 629.648 440.39 609.848 494.91 562.188C499.22 558.418 503.54 554.418 507.91 550.238C513.363 555.498 518.96 560.605 524.7 565.558C577.52 611.008 629.7 629.368 661.96 610.678C695.29 591.388 706.12 532.988 692.06 461.948C690.993 456.521 689.75 450.985 688.33 445.338C692.27 444.178 696.123 442.975 699.89 441.728C771.13 418.128 817.49 379.968 817.49 340.938C817.49 303.508 774.11 267.318 706.99 244.208H706.96Z" fill="#53C1DE"/>
<path id="Vector_2" d="M691.51 416.528C688.11 417.658 684.63 418.738 681.07 419.798C672.384 392.869 661.87 366.564 649.6 341.068C661.402 315.911 671.508 289.994 679.85 263.488C686.2 265.328 692.38 267.268 698.32 269.318C755.83 289.108 790.91 318.378 790.91 340.938C790.91 364.938 753.02 396.148 691.51 416.528ZM665.99 467.108C672.21 498.518 673.09 526.918 668.99 549.108C665.29 569.058 657.85 582.358 648.65 587.688C629.06 599.018 587.18 584.288 542.01 545.418C536.83 540.958 531.62 536.208 526.38 531.168C545.212 510.319 562.615 488.222 578.47 465.028C606.791 462.628 634.914 458.285 662.64 452.028C663.907 457.148 665.03 462.148 666.01 467.028L665.99 467.108ZM407.87 585.748C388.73 592.508 373.49 592.698 364.28 587.388C344.68 576.078 336.53 532.388 347.65 473.888C348.983 466.975 350.493 460.098 352.18 453.258C379.791 459.186 407.772 463.239 435.93 465.388C452.249 488.501 470.071 510.515 489.28 531.288C485.42 535.028 481.473 538.665 477.44 542.198C453.33 563.278 429.16 578.198 407.87 585.748V585.748ZM318.23 416.378C287.92 406.018 262.9 392.558 245.74 377.878C230.33 364.678 222.55 351.568 222.55 340.938C222.55 318.308 256.29 289.438 312.55 269.828C319.617 267.368 326.747 265.125 333.94 263.098C342.297 289.897 352.415 316.114 364.23 341.578C352.268 367.407 342.026 393.998 333.57 421.178C328.41 419.705 323.297 418.105 318.23 416.378ZM348.28 211.838C336.6 152.148 344.35 107.118 363.87 95.838C384.66 83.838 430.63 100.958 479.09 143.988C482.19 146.738 485.3 149.618 488.41 152.588C469.338 173.234 451.656 195.122 435.48 218.108C407.587 220.609 379.886 224.915 352.55 230.998C350.957 224.651 349.533 218.268 348.28 211.848V211.838ZM616.39 278.028C610.317 267.535 604.02 257.175 597.5 246.948C617.33 249.458 636.32 252.778 654.16 256.858C648.435 275.018 641.797 292.878 634.27 310.368C628.53 299.468 622.57 288.688 616.39 278.028ZM507.03 171.558C519.954 185.648 532.159 200.38 543.6 215.698C519.127 214.545 494.643 214.545 470.15 215.698C482.22 199.778 494.59 184.978 507.03 171.568V171.558ZM397.03 278.208C390.93 288.788 385.08 299.501 379.48 310.348C371.75 292.018 365.14 273.988 359.74 256.578C377.47 252.578 396.38 249.368 416.08 246.898C409.467 257.191 403.11 267.628 397.01 278.208H397.03ZM416.64 436.858C397.412 434.771 378.303 431.696 359.39 427.648C364.88 409.938 371.64 391.518 379.54 372.788C385.16 383.648 391.03 394.368 397.15 404.948C403.377 415.741 409.867 426.378 416.62 436.858H416.64ZM507.78 512.188C495.18 498.648 482.63 483.648 470.39 467.438C482.29 467.911 494.41 468.148 506.75 468.148C519.417 468.148 531.92 467.868 544.26 467.308C532.869 482.883 520.686 497.862 507.76 512.188H507.78ZM634.47 371.838C642.387 389.683 649.369 407.927 655.39 426.498C636.243 430.806 616.883 434.107 597.39 436.388C603.957 425.968 610.317 415.425 616.47 404.758C622.723 393.918 628.723 382.945 634.47 371.838ZM593.47 391.498C584.057 407.845 574.12 423.878 563.66 439.598C545.22 440.918 526.17 441.598 506.75 441.598C487.33 441.598 468.6 440.998 450.48 439.818C439.753 424.151 429.623 408.095 420.09 391.648C410.557 375.201 401.72 358.508 393.58 341.568C401.76 324.548 410.57 307.848 420.01 291.468C429.437 275.095 439.48 259.095 450.14 243.468C468.63 242.068 487.57 241.338 506.73 241.338C525.89 241.338 544.95 242.078 563.42 243.478C573.96 259.058 583.96 274.995 593.42 291.288C602.88 307.581 611.81 324.205 620.21 341.158C611.91 358.238 603.007 375.005 593.5 391.458L593.47 391.498ZM648.24 95.038C669.05 107.038 677.14 155.438 664.07 218.908C663.21 223.035 662.277 227.151 661.27 231.258C633.894 225.052 606.136 220.665 578.18 218.128C562.16 195.122 544.61 173.219 525.65 152.568C530.317 148.075 535.08 143.705 539.94 139.458C585.82 99.528 628.7 83.768 648.24 95.038Z" fill="white"/>
<path id="Vector_3" d="M506.73 285.438C517.707 285.438 528.437 288.693 537.564 294.791C546.691 300.89 553.805 309.558 558.005 319.699C562.206 329.84 563.305 341 561.164 351.765C559.022 362.531 553.736 372.421 545.974 380.182C538.213 387.944 528.323 393.23 517.557 395.372C506.792 397.513 495.632 396.414 485.491 392.213C475.35 388.013 466.682 380.899 460.583 371.772C454.485 362.645 451.23 351.915 451.23 340.938C451.229 333.649 452.663 326.432 455.452 319.698C458.241 312.963 462.329 306.845 467.483 301.691C472.637 296.537 478.755 292.449 485.489 289.66C492.224 286.871 499.441 285.437 506.73 285.438" fill="#53C1DE"/>
<path id="Vector_4" d="M337.378 40.17L319.128 51.74L330.208 31.59C327.082 29.09 323.211 27.7036 319.208 27.65H318.908C317.643 27.6677 316.378 27.574 315.128 27.37L308.938 31.29L311.588 26.47C307.208 24.9394 303.422 22.0665 300.768 18.26L289.698 25.26L296.698 12.54C290.218 4.77 281.498 0 271.888 0C260.378 0 250.128 6.85 243.508 17.52C241.551 20.7103 238.784 23.3265 235.49 25.1037C232.195 26.8809 228.49 27.7558 224.748 27.64H224.128C211.418 27.64 201.128 42.05 201.128 59.83C201.128 77.61 211.428 92.01 224.128 92.01C226.918 92.0019 229.663 91.3155 232.128 90.01C240.418 85.7 251.298 85.62 259.978 89.47C263.7 91.1438 267.733 92.0135 271.813 92.0221C275.894 92.0307 279.93 91.1781 283.658 89.52C292.278 85.75 303.028 85.83 311.268 90.06C313.713 91.3534 316.433 92.0394 319.198 92.06C331.908 92.06 342.198 77.65 342.198 59.88C342.275 53.0092 340.617 46.2302 337.378 40.17V40.17Z" fill="#F2F2F2"/>
<path id="Vector_5" opacity="0.03" d="M302.968 87.26C296.328 85.9974 289.463 86.7425 283.248 89.4C279.521 91.0567 275.486 91.9085 271.408 91.8999C267.329 91.8913 263.298 91.0224 259.578 89.35C250.888 85.5 240.008 85.58 231.718 89.89C229.253 91.1955 226.508 91.8819 223.718 91.89C212.428 91.89 203.038 80.51 201.078 65.51C203.334 63.8671 205.249 61.8023 206.718 59.43C213.378 48.77 223.588 41.9 235.098 41.9C246.608 41.9 256.738 48.67 263.358 59.22C265.334 62.4076 268.098 65.0314 271.385 66.8375C274.671 68.6437 278.368 69.5711 282.118 69.53H282.378C291.378 69.54 299.178 76.75 302.968 87.26Z" fill="black"/>
<path id="Vector_6" d="M814.448 63.73L805.378 69.5L810.908 59.5C809.346 58.2371 807.407 57.5331 805.398 57.5H805.258C804.625 57.5088 803.993 57.462 803.368 57.36L800.278 59.36L801.578 56.9C799.393 56.1386 797.503 54.7074 796.178 52.81L790.658 56.31L794.148 49.97C792.68 48.0747 790.808 46.5297 788.668 45.447C786.529 44.3643 784.175 43.771 781.778 43.71C776.028 43.71 770.918 47.13 767.618 52.45C766.637 54.0345 765.255 55.3316 763.611 56.2097C761.967 57.0878 760.121 57.5157 758.258 57.45H757.948C751.608 57.45 746.468 64.64 746.468 73.45C746.468 82.26 751.608 89.5 757.948 89.5C759.343 89.4951 760.715 89.152 761.948 88.5C764.106 87.4517 766.465 86.8846 768.864 86.838C771.262 86.7913 773.642 87.2663 775.838 88.23C777.697 89.0574 779.709 89.4849 781.743 89.4849C783.778 89.4849 785.79 89.0574 787.648 88.23C789.829 87.2856 792.187 86.8209 794.563 86.8675C796.938 86.9141 799.276 87.4708 801.418 88.5C802.651 89.1523 804.024 89.4955 805.418 89.5C811.758 89.5 816.898 82.32 816.898 73.45C816.908 70.056 816.065 66.7139 814.448 63.73V63.73Z" fill="#F2F2F2"/>
<path id="Vector_7" opacity="0.03" d="M797.298 87.2199C793.988 86.5947 790.567 86.9672 787.469 88.2899C785.61 89.1173 783.598 89.5449 781.563 89.5449C779.529 89.5449 777.517 89.1173 775.659 88.2899C773.46 87.3261 771.079 86.851 768.679 86.8977C766.279 86.9443 763.918 87.5114 761.758 88.5599C760.527 89.2146 759.153 89.5579 757.758 89.5599C752.118 89.5599 747.438 83.8899 746.458 76.4099C747.58 75.5976 748.537 74.5795 749.279 73.4099C752.579 68.0899 757.698 64.6799 763.438 64.6799C769.178 64.6799 774.229 68.0499 777.529 73.3099C778.513 74.901 779.892 76.2105 781.532 77.1111C783.172 78.0118 785.018 78.473 786.888 78.4499H787.038C791.528 78.3799 795.378 81.9799 797.298 87.2199Z" fill="black"/>
<path id="Vector_8" d="M218.718 213.17L233.378 222.45L224.498 206.3C227.016 204.296 230.13 203.187 233.348 203.15H233.578C234.583 203.165 235.587 203.091 236.578 202.93L241.528 206.07L239.378 202.21C242.885 200.977 245.917 198.676 248.048 195.63L256.918 201.25L251.378 191.06C256.568 184.84 263.558 181.06 271.248 181.06C280.478 181.06 288.688 186.54 293.998 195.06C295.563 197.613 297.774 199.708 300.408 201.132C303.042 202.556 306.005 203.259 308.998 203.17H309.498C319.678 203.17 327.928 214.71 327.928 228.95C327.928 243.19 319.678 254.74 309.498 254.74C307.256 254.731 305.05 254.179 303.068 253.13C299.603 251.446 295.813 250.536 291.961 250.462C288.109 250.387 284.286 251.151 280.758 252.7C277.769 254.036 274.532 254.727 271.258 254.727C267.984 254.727 264.747 254.036 261.758 252.7C258.256 251.183 254.468 250.436 250.652 250.51C246.835 250.584 243.079 251.478 239.638 253.13C237.677 254.151 235.5 254.689 233.288 254.7C223.098 254.7 214.848 243.16 214.848 228.91C214.8 223.422 216.131 218.01 218.718 213.17V213.17Z" fill="#F2F2F2"/>
<path id="Vector_9" opacity="0.03" d="M246.268 250.9C251.589 249.897 257.088 250.496 262.068 252.62C265.057 253.956 268.294 254.647 271.568 254.647C274.842 254.647 278.079 253.956 281.068 252.62C284.598 251.071 288.422 250.307 292.276 250.381C296.129 250.455 299.921 251.366 303.388 253.05C305.366 254.099 307.569 254.651 309.808 254.66C318.858 254.66 326.378 245.55 327.948 233.53C326.143 232.208 324.608 230.552 323.428 228.65C318.118 220.11 309.908 214.65 300.678 214.65C291.448 214.65 283.348 220.07 278.038 228.53C276.458 231.079 274.248 233.177 271.62 234.622C268.993 236.067 266.037 236.811 263.038 236.78H262.808C255.548 236.71 249.308 242.49 246.268 250.9Z" fill="black"/>
<path id="Vector_10" d="M957.423 151.431L888.798 167.135L859.802 112.449L918.482 89.5392L957.423 151.431Z" fill="#2F2E41"/>
<path id="Vector_11" d="M792.721 223.888L783.222 205.342C782.488 203.91 782.074 202.335 782.009 200.727C781.944 199.12 782.229 197.517 782.844 196.03C783.459 194.543 784.39 193.207 785.572 192.115C786.754 191.023 788.159 190.201 789.69 189.706V189.706C791.234 189.207 792.868 189.051 794.478 189.251C796.087 189.451 797.634 190 799.009 190.861C800.383 191.723 801.553 192.874 802.435 194.236C803.317 195.597 803.89 197.135 804.114 198.742L806.699 217.266L830.977 255.523V232.716L858.198 235.659L854.388 276.304C854.197 278.342 853.6 280.322 852.632 282.126C851.664 283.929 850.345 285.521 848.752 286.808V286.808C847.018 288.208 845 289.214 842.838 289.755C840.676 290.297 838.422 290.36 836.232 289.942C834.043 289.524 831.971 288.634 830.161 287.333C828.351 286.033 826.845 284.354 825.75 282.413L792.721 223.888Z" fill="#DBB8BD"/>
<path id="Vector_12" d="M998.717 592.473L977.382 593.945L963.403 462.254L882.476 382.799L874.384 593.945H850.106C835.298 464.302 799.787 326.319 845.691 293.043L858.198 271.708L933.975 285.686L936.918 315.114L950.523 349.298L1001.78 435.409C1005.06 440.919 1006.62 447.281 1006.27 453.684L998.717 592.473Z" fill="#2F2E41"/>
<path id="Vector_13" d="M864.484 656.805C862.079 656.805 859.7 656.309 857.496 655.348C855.291 654.387 853.309 652.981 851.672 651.219C850.036 649.457 848.781 647.376 847.985 645.107C847.189 642.837 846.87 640.428 847.048 638.03L850.071 597.214C859.028 588.036 867.337 589.236 875.085 599.421L881.692 636.233C882.144 638.75 882.038 641.336 881.382 643.808C880.726 646.28 879.535 648.578 877.894 650.539C876.253 652.501 874.202 654.079 871.885 655.162C869.568 656.244 867.041 656.805 864.484 656.805V656.805Z" fill="#E5E9FF"/>
<path id="Vector_14" d="M1009.21 664.191C1007.63 664.191 1006.07 663.858 1004.62 663.214C1003.18 662.57 1001.88 661.629 1000.83 660.452L960.234 615.251C959.087 613.975 958.213 612.478 957.664 610.852C957.115 609.227 956.903 607.506 957.041 605.796C957.179 604.086 957.664 602.421 958.466 600.905C959.268 599.388 960.371 598.051 961.707 596.974L977.814 584L1001.36 594.3L1019.89 649.325C1020.46 651.02 1020.62 652.827 1020.36 654.596C1020.09 656.364 1019.41 658.044 1018.36 659.497C1017.32 660.95 1015.95 662.133 1014.35 662.949C1012.76 663.766 1011 664.191 1009.21 664.191V664.191Z" fill="#E5E9FF"/>
<path id="Vector_15" d="M901.37 147.844C916.152 147.844 928.136 135.86 928.136 121.078C928.136 106.295 916.152 94.3119 901.37 94.3119C886.587 94.3119 874.604 106.295 874.604 121.078C874.604 135.86 886.587 147.844 901.37 147.844Z" fill="#DBB8BD"/>
<path id="Vector_16" d="M916.686 235.291H882.844L875.119 167.975C883.356 156.364 886.034 144.235 882.844 131.557H916.686C911.468 142.943 912.364 154.341 925.883 165.767L916.686 235.291Z" fill="#DBB8BD"/>
<path id="Vector_17" d="M932.504 287.158C905.992 296.887 881.136 293.879 858.198 276.122C857.645 254.862 852.451 228.483 845.182 199.814C844.092 195.516 844.447 190.978 846.194 186.902C847.94 182.826 850.98 179.439 854.845 177.264L876.591 165.032L900.869 222.416L922.94 163.56L937.616 166.822C941.08 167.596 944.208 169.454 946.545 172.126C948.881 174.798 950.306 178.145 950.611 181.682C954.458 225.333 953.308 264.69 932.504 287.158Z" fill="#E6E6E6"/>
<path id="Vector_18" d="M861.141 250.373C845.787 251.858 834.759 245.516 827.299 232.716L832.449 209.135C832.449 201.463 834.894 193.992 839.428 187.804C843.963 181.616 850.352 177.035 857.668 174.725L860.405 173.86L861.141 250.373Z" fill="#E6E6E6"/>
<path id="Vector_19" d="M971.496 355.578L975.134 371.949C975.548 373.814 975.503 375.751 975.001 377.595C974.498 379.438 973.555 381.132 972.252 382.529C970.949 383.926 969.326 384.985 967.522 385.615C965.718 386.244 963.788 386.425 961.899 386.141V386.141C960.302 385.902 958.772 385.337 957.404 384.481C956.035 383.625 954.857 382.497 953.943 381.166C953.029 379.836 952.399 378.332 952.091 376.747C951.783 375.163 951.804 373.532 952.153 371.956L956.126 354.027L944.275 239.337L967.818 229.038L971.496 355.578Z" fill="#DBB8BD"/>
<path id="Vector_20" d="M940.597 244.487C955.95 245.973 966.978 239.63 974.439 226.83L969.289 203.249C969.289 195.578 966.844 188.106 962.309 181.918C957.774 175.731 951.385 171.149 944.07 168.839L941.332 167.974L940.597 244.487Z" fill="#E6E6E6"/>
<path id="Vector_21" d="M915.969 81.1074C915.969 81.1074 931.172 83.967 934.687 102.927C935.237 106.124 935.338 109.383 934.985 112.608C934.634 116.258 935.143 123.966 943.068 133.043C948.239 138.93 953.057 145.117 957.497 151.573V151.573L941.612 155.802L934.514 129.484C931.073 116.724 925.772 104.54 918.782 93.3244L918.636 93.0902C918.636 93.0902 913.36 107.187 899.219 109.12L903.579 103.379C903.579 103.379 887.048 112.936 877.683 115.855C876.614 116.188 875.656 116.807 874.913 117.644C874.17 118.481 873.669 119.506 873.465 120.606C873.26 121.707 873.36 122.843 873.754 123.891C874.147 124.939 874.819 125.86 875.697 126.555C875.763 126.607 875.831 126.66 875.9 126.712C882.789 131.944 896.842 144.429 891.29 156.506C885.738 168.583 892.213 170.785 892.213 170.785L880.274 166.243L874.809 163.903L875.361 167.943L848.685 168.502C848.685 168.502 841.477 168.458 854.281 149.216C854.281 149.216 857.371 142.001 854.834 136.489C852.799 132.315 851.785 127.717 851.877 123.073C852.684 103.674 860.856 64.2079 915.969 81.1074Z" fill="#2F2E41"/>
<path id="Vector_22" d="M957.423 151.431L888.798 167.135L859.802 112.449L918.482 89.5392L957.423 151.431Z" fill="#2F2E41"/>
<path id="Vector_23" d="M792.721 223.888L783.222 205.342C782.488 203.91 782.074 202.335 782.009 200.727C781.944 199.12 782.229 197.517 782.844 196.03C783.459 194.543 784.39 193.207 785.572 192.115C786.754 191.023 788.159 190.201 789.69 189.706V189.706C791.234 189.207 792.868 189.051 794.478 189.251C796.087 189.451 797.634 190 799.009 190.861C800.383 191.723 801.553 192.874 802.435 194.236C803.317 195.597 803.89 197.135 804.114 198.742L806.699 217.266L830.977 255.523V232.716L858.198 235.659L854.388 276.304C854.197 278.342 853.6 280.322 852.632 282.126C851.664 283.929 850.345 285.521 848.752 286.808V286.808C847.018 288.208 845 289.214 842.838 289.755C840.676 290.297 838.422 290.36 836.232 289.942C834.043 289.524 831.971 288.634 830.161 287.333C828.351 286.033 826.845 284.354 825.75 282.413L792.721 223.888Z" fill="#FBBEBE"/>
<path id="Vector_24" d="M998.717 592.473L977.382 593.945L963.403 462.254L882.476 382.799L874.384 593.945H850.106C835.298 464.302 799.787 326.319 845.691 293.043L858.198 271.708L933.975 285.686L936.918 315.114L950.523 349.298L1001.78 435.409C1005.06 440.919 1006.62 447.281 1006.27 453.684L998.717 592.473Z" fill="#2F2E41"/>
<path id="Vector_25" d="M901.37 147.844C916.152 147.844 928.136 135.86 928.136 121.078C928.136 106.295 916.152 94.3119 901.37 94.3119C886.587 94.3119 874.604 106.295 874.604 121.078C874.604 135.86 886.587 147.844 901.37 147.844Z" fill="#FBBEBE"/>
<path id="Vector_26" d="M916.686 235.291H882.844L875.119 167.975C883.356 156.364 886.034 144.235 882.844 131.557H916.686C911.468 142.943 912.364 154.341 925.883 165.767L916.686 235.291Z" fill="#FBBEBE"/>
<path id="Vector_27" d="M932.504 287.158C905.992 296.887 881.136 293.879 858.198 276.122C857.645 254.862 852.451 228.483 845.182 199.814C844.092 195.516 844.447 190.978 846.194 186.902C847.94 182.826 850.98 179.439 854.845 177.264L876.591 165.032L900.869 222.416L922.94 163.56L937.616 166.822C941.08 167.596 944.208 169.454 946.545 172.126C948.881 174.798 950.306 178.145 950.611 181.682C954.458 225.333 953.308 264.69 932.504 287.158Z" fill="#E6E6E6"/>
<path id="Vector_28" d="M861.141 250.373C845.787 251.858 834.759 245.516 827.299 232.716L832.449 209.135C832.449 201.463 834.894 193.992 839.428 187.804C843.963 181.616 850.352 177.035 857.668 174.725L860.405 173.86L861.141 250.373Z" fill="#E6E6E6"/>
<path id="Vector_29" d="M971.496 355.578L975.134 371.949C975.548 373.814 975.503 375.751 975.001 377.595C974.498 379.438 973.555 381.132 972.252 382.529C970.949 383.926 969.326 384.985 967.522 385.615C965.718 386.244 963.788 386.425 961.899 386.141V386.141C960.302 385.902 958.772 385.337 957.404 384.481C956.035 383.625 954.857 382.497 953.943 381.166C953.029 379.836 952.399 378.332 952.091 376.747C951.783 375.163 951.804 373.532 952.153 371.956L956.126 354.027L944.275 239.337L967.818 229.038L971.496 355.578Z" fill="#FBBEBE"/>
<path id="Vector_30" d="M940.597 244.487C955.95 245.973 966.978 239.63 974.439 226.83L969.289 203.249C969.289 195.578 966.844 188.106 962.309 181.918C957.774 175.731 951.385 171.149 944.07 168.839L941.332 167.974L940.597 244.487Z" fill="#E6E6E6"/>
<path id="Vector_31" d="M915.969 81.1074C915.969 81.1074 931.172 83.967 934.687 102.927C935.237 106.124 935.338 109.383 934.985 112.608C934.634 116.258 935.143 123.966 943.068 133.043C948.239 138.93 953.057 145.117 957.497 151.573L941.612 155.802L934.514 129.484C931.073 116.724 925.772 104.54 918.782 93.3244L918.636 93.0902C918.636 93.0902 913.36 107.187 899.219 109.12L903.579 103.379C903.579 103.379 887.048 112.936 877.683 115.855C876.614 116.188 875.656 116.807 874.913 117.644C874.17 118.481 873.669 119.506 873.465 120.606C873.26 121.707 873.36 122.843 873.754 123.891C874.147 124.939 874.819 125.86 875.697 126.555C875.763 126.607 875.831 126.66 875.9 126.712C882.789 131.944 896.842 144.429 891.29 156.506C885.738 168.583 892.213 170.785 892.213 170.785L880.274 166.243L874.809 163.903L875.361 167.943L848.685 168.502C848.685 168.502 841.477 168.458 854.281 149.216C854.281 149.216 857.371 142.001 854.834 136.489C852.799 132.315 851.785 127.717 851.877 123.073C852.684 103.674 860.856 64.2079 915.969 81.1074Z" fill="#2F2E41"/>
<path id="Vector_32" d="M195.229 485.819L189.849 483.709C189.329 483.509 188.849 483.279 188.309 483.079C198.264 479.408 206.674 472.46 212.157 463.377C217.64 454.294 219.87 443.615 218.481 433.097C217.092 422.578 212.166 412.845 204.514 405.496C196.861 398.148 186.936 393.621 176.369 392.659L180.119 411.559L165.899 392.879H165.769C159.683 393.71 153.821 395.733 148.516 398.83C143.212 401.928 138.57 406.04 134.855 410.932C131.14 415.824 128.426 421.4 126.867 427.342C125.308 433.283 124.935 439.474 125.769 445.559C125.889 446.449 126.079 447.299 126.239 448.169C121.827 444.852 117.932 440.899 114.679 436.439C108.449 427.439 106.309 416.319 104.149 402.729C99.9193 375.799 96.0793 348.579 92.6293 321.399C103.273 318.182 112.42 311.273 118.427 301.916C124.433 292.559 126.906 281.366 125.399 270.349C125.199 268.929 124.929 267.549 124.609 266.179L124.369 265.179C124.029 263.859 123.659 262.559 123.219 261.299C123.149 261.089 123.059 260.889 122.979 260.689C122.589 259.619 122.159 258.569 121.699 257.539C121.519 257.159 121.349 256.769 121.169 256.389C120.629 255.279 120.059 254.189 119.439 253.129C119.229 252.769 118.999 252.429 118.789 252.129C118.299 251.349 117.789 250.579 117.269 249.839C116.989 249.449 116.719 249.049 116.429 248.669L116.219 248.369C109.588 239.691 100.129 233.608 89.4815 231.175C78.8344 228.742 67.6716 230.113 57.9293 235.049L62.8093 259.649L48.7393 241.189C41.1788 247.596 35.8638 256.251 33.5701 265.892C31.2764 275.533 32.1241 285.654 35.9893 294.779H35.9393C36.0693 295.089 36.2293 295.389 36.3693 295.699C36.6293 296.279 36.8893 296.849 37.1693 297.419C37.5293 298.139 37.9093 298.849 38.3093 299.549C38.5993 300.089 38.8893 300.619 39.2093 301.139C39.6693 301.889 40.2093 302.619 40.6693 303.349C40.9693 303.769 41.2393 304.209 41.5493 304.619C42.3493 305.699 43.1993 306.739 44.0893 307.749C44.3993 308.099 44.7393 308.419 45.0893 308.749C45.7193 309.419 46.3593 310.079 47.0293 310.749C47.4393 311.149 47.8793 311.519 48.3093 311.889C48.9293 312.443 49.5593 312.973 50.1993 313.479C50.6593 313.839 51.1293 314.189 51.5993 314.539C52.2793 315.029 52.9693 315.539 53.6593 315.949C54.1293 316.259 54.5993 316.559 55.0793 316.849C55.8693 317.329 56.6793 317.759 57.4993 318.189C57.9193 318.409 58.3193 318.639 58.7393 318.849C59.9793 319.449 61.2393 319.999 62.5293 320.489C62.7693 320.589 63.0293 320.649 63.2693 320.739C64.3393 321.129 65.4293 321.489 66.5393 321.799C67.0093 321.929 67.5393 322.039 67.9793 322.149C68.8793 322.369 69.7793 322.579 70.6993 322.749L72.3093 323.009C73.2093 323.139 74.1193 323.239 75.0293 323.319C75.5693 323.369 76.0993 323.409 76.6493 323.439C77.6493 323.489 78.6493 323.499 79.6493 323.489H79.8393C81.306 334.969 82.846 346.439 84.4593 357.899C80.6787 352.779 75.8915 348.485 70.3915 345.281C64.8915 342.078 58.7948 340.032 52.4756 339.27C46.1565 338.507 39.7482 339.045 33.6441 340.848C27.5401 342.652 21.8691 345.685 16.9793 349.759L29.1193 370.399L9.43933 357.449C5.74789 362.326 3.05313 367.881 1.5089 373.799C-0.0353283 379.717 -0.398771 385.881 0.439327 391.939C1.01989 396.239 2.20844 400.434 3.96933 404.399C7.72832 412.979 13.9791 420.231 21.9106 425.215C29.8422 430.198 39.0883 432.683 48.4495 432.347C57.8106 432.01 66.8546 428.868 74.4081 423.329C81.9615 417.789 87.6757 410.107 90.8093 401.279C90.9893 402.429 91.1593 403.599 91.3393 404.759C93.2393 416.759 95.6093 431.679 104.009 443.839C109.709 452.079 117.549 458.169 125.169 463.529C130.129 467.023 135.199 470.356 140.379 473.529C145.825 478.576 152.392 482.257 159.539 484.269C167.859 488.529 176.379 492.409 185.079 495.829L190.499 497.959C195.379 499.859 200.379 501.809 205.309 503.889C204.529 503.959 203.739 504.019 202.949 504.129C193.127 505.475 183.987 509.907 176.847 516.786C169.708 523.665 164.939 532.634 163.229 542.399L196.229 560.399L163.289 558.929C164.739 566.7 168.135 573.976 173.159 580.079C178.183 586.181 184.671 590.912 192.018 593.828C199.365 596.744 207.331 597.75 215.173 596.754C223.014 595.757 230.475 592.79 236.859 588.129C236.309 589.129 235.769 590.129 235.219 591.179C234.129 593.179 233.049 595.179 231.999 597.179C217.689 624.309 216.649 647.749 229.079 663.179L239.209 655.019C227.109 640.019 236.709 616.149 243.509 603.259C244.509 601.309 245.599 599.339 246.669 597.359C255.859 580.359 266.279 560.989 262.129 540.419C255.919 509.479 222.269 496.399 195.229 485.819Z" fill="#9FC9A3" fill-opacity="0.54"/>
<path id="Vector_33" d="M1107.9 436.649L1114.79 433.949C1115.45 433.689 1116.1 433.409 1116.79 433.139C1104.03 428.444 1093.26 419.55 1086.24 407.92C1079.21 396.289 1076.35 382.614 1078.13 369.143C1079.91 355.673 1086.22 343.208 1096.02 333.798C1105.82 324.389 1118.53 318.595 1132.07 317.369L1127.27 341.569L1145.49 317.649H1145.65C1161.37 319.811 1175.6 328.132 1185.19 340.78C1194.79 353.429 1198.96 369.371 1196.81 385.099C1196.66 386.229 1196.42 387.329 1196.21 388.439C1201.82 384.009 1207.08 379.119 1211.02 373.439C1219.02 361.899 1221.73 347.679 1224.49 330.269C1229.96 295.789 1234.89 260.929 1239.33 226.089C1225.69 221.975 1213.97 213.134 1206.27 201.153C1198.58 189.173 1195.4 174.839 1197.33 160.729C1197.58 158.909 1197.93 157.139 1198.33 155.389C1198.43 154.949 1198.53 154.509 1198.64 154.079C1199.07 152.389 1199.55 150.729 1200.11 149.079C1200.2 148.809 1200.32 148.559 1200.41 148.299C1200.91 146.929 1201.41 145.579 1202.06 144.299C1202.28 143.799 1202.5 143.299 1202.73 142.829C1203.42 141.399 1204.15 139.999 1204.95 138.639C1205.22 138.189 1205.51 137.759 1205.78 137.309C1206.4 136.309 1207.05 135.309 1207.72 134.379C1208.08 133.879 1208.43 133.379 1208.8 132.889L1209.07 132.499C1217.56 121.386 1229.67 113.599 1243.31 110.494C1256.95 107.388 1271.24 109.159 1283.71 115.499L1277.47 146.989L1295.47 123.349C1305.15 131.552 1311.95 142.635 1314.89 154.98C1317.83 167.325 1316.74 180.286 1311.79 191.969H1311.86C1311.69 192.369 1311.48 192.749 1311.31 193.149C1310.98 193.889 1310.64 194.619 1310.31 195.349C1309.85 196.279 1309.31 197.189 1308.86 198.089C1308.48 198.769 1308.11 199.449 1307.7 200.089C1307.11 201.089 1306.47 201.989 1305.83 202.919C1305.45 203.459 1305.1 204.019 1304.71 204.549C1303.71 205.939 1302.59 207.269 1301.45 208.549C1301.05 208.999 1300.62 209.409 1300.2 209.849C1299.39 210.709 1298.58 211.559 1297.72 212.369C1297.19 212.869 1296.63 213.369 1296.08 213.829C1295.29 214.529 1294.48 215.209 1293.65 215.829C1293.06 216.299 1292.46 216.749 1291.86 217.189C1290.99 217.819 1290.11 218.409 1289.22 218.999C1288.62 219.389 1288.02 219.779 1287.41 220.149C1286.41 220.759 1285.36 221.319 1284.31 221.869C1283.78 222.139 1283.31 222.439 1282.72 222.699C1281.14 223.469 1279.52 224.179 1277.87 224.809C1277.56 224.929 1277.23 225.019 1276.92 225.129C1275.54 225.629 1274.15 226.129 1272.74 226.479C1272.13 226.649 1271.51 226.789 1270.89 226.939C1269.74 227.219 1268.58 227.479 1267.41 227.699C1266.74 227.819 1266.05 227.929 1265.34 228.029C1264.19 228.199 1263.03 228.329 1261.86 228.429C1261.17 228.489 1260.49 228.549 1259.79 228.589C1258.53 228.649 1257.26 228.659 1255.99 228.649C1255.9 228.644 1255.82 228.644 1255.74 228.649C1253.86 243.316 1251.88 257.982 1249.82 272.649C1254.67 266.102 1260.8 260.614 1267.85 256.523C1274.89 252.432 1282.7 249.823 1290.79 248.857C1298.88 247.891 1307.08 248.587 1314.89 250.904C1322.7 253.22 1329.96 257.108 1336.22 262.329L1320.54 288.909L1345.75 272.319C1355.28 284.934 1359.41 300.817 1357.25 316.479C1356.51 321.978 1354.99 327.345 1352.75 332.419C1347.93 343.406 1339.93 352.692 1329.77 359.074C1319.62 365.455 1307.78 368.637 1295.79 368.206C1283.8 367.775 1272.22 363.75 1262.55 356.656C1252.88 349.561 1245.57 339.723 1241.56 328.419C1241.33 329.899 1241.11 331.419 1240.88 332.879C1238.44 348.229 1235.41 367.339 1224.65 382.879C1217.36 393.439 1207.32 401.239 1197.56 408.099C1191.21 412.566 1184.72 416.822 1178.08 420.869C1171.11 427.332 1162.7 432.042 1153.55 434.609C1142.88 440.069 1131.98 445.006 1120.86 449.419L1113.91 452.139C1107.66 454.579 1101.26 457.079 1094.91 459.739C1095.91 459.829 1096.91 459.909 1097.91 460.039C1110.49 461.767 1122.2 467.449 1131.34 476.266C1140.48 485.083 1146.58 496.577 1148.77 509.089L1106.46 532.199L1148.64 530.309C1146.95 539.662 1143.03 548.471 1137.22 555.989C1127.68 568.335 1113.7 576.471 1098.25 578.664C1082.8 580.856 1067.11 576.933 1054.52 567.729L1056.62 571.639C1058.02 574.219 1059.4 576.789 1060.74 579.339C1079.07 614.079 1080.4 644.079 1064.49 663.829L1051.49 653.379C1066.98 634.159 1054.69 603.609 1045.99 587.109C1044.67 584.609 1043.31 582.109 1041.99 579.549C1030.22 557.719 1016.87 532.979 1022.22 506.649C1030.22 466.949 1073.27 450.149 1107.9 436.649Z" fill="#9FC9A3"/>
<path id="Vector_34" d="M644 702C949.966 702 1198 691.479 1198 678.5C1198 665.521 949.966 655 644 655C338.034 655 90 665.521 90 678.5C90 691.479 338.034 702 644 702Z" fill="#3F3D56"/>
<path id="Vector_35" d="M875 89V116H881.801L890.455 107.474L889.296 116H919.355L917.5 107.474L921.209 116H926V89H875Z" fill="#2F2E41"/>
</svg>
