<svg width="859" height="751" viewBox="0 0 859 751" fill="none" xmlns="http://www.w3.org/2000/svg">
<g id="undraw_creative_draft_vb5x 1" clip-path="url(#clip0)">
<path id="Vector" d="M78.6064 668.906C77.052 658.885 74.0197 649.15 69.6084 640.019L68.9653 638.689L64.1889 643.985L67.728 636.097L67.4966 635.639C64.3736 629.457 60.9124 623.452 57.1289 617.65L56.4272 616.576L55.4912 617.614L56.1465 616.152L55.8184 615.66C51.1324 608.631 47.5322 604.186 47.4966 604.141L46.4785 602.889L45.8237 604.383C45.7036 604.656 33.8047 632.075 32.2285 659.169L32.2036 659.591L40.2119 669.271L32.0449 664.144L32.0591 666.005C32.0839 669.189 32.3006 672.369 32.708 675.527C33.0677 678.244 33.491 680.896 33.978 683.484C34.75 683.508 35.5009 683.742 36.1496 684.162C35.5855 681.27 35.0989 678.298 34.69 675.245C34.3746 672.809 34.1758 670.333 34.0967 667.865L49.8936 677.783L34.25 658.874C35.6744 635.967 44.5147 612.887 46.9966 606.796C48.3286 608.524 50.8413 611.877 53.8472 616.357L48.3829 628.539L56.1734 619.901C59.5509 625.158 62.6621 630.583 65.4951 636.153L57.0806 654.91L68.4576 642.295C72.4313 650.84 75.182 659.903 76.6284 669.215C78.6197 684.256 78.231 698.705 75.5337 709.901C72.9502 720.626 68.397 727.218 63.041 727.988C61.9387 728.141 60.8172 728.074 59.7407 727.792C58.8774 728.406 57.8386 728.723 56.7799 728.696H56.488C58.1494 729.618 60.0118 730.118 61.9117 730.153C62.3811 730.152 62.8499 730.119 63.3145 730.052C69.6114 729.147 74.6402 722.171 77.4737 710.409C80.2314 698.959 80.6353 684.229 78.6064 668.906Z" fill="#9FC9A3"/>
<path id="Vector_2" d="M60.9829 729.362C52.7461 729.362 40.8701 724.83 29.0908 716.582C27.357 715.358 25.7014 714.027 24.1338 712.597L22.8145 711.392L27.8027 709.955L21.1606 709.712L20.8804 709.418C8.43017 696.379 0.682619 677.961 0.605469 677.778L0 676.323L1.57422 676.394C1.73096 676.401 5.47363 676.577 11.0986 677.375L11.4492 677.425V677.422L12.6826 677.61C17.2759 678.308 21.8262 679.264 26.312 680.474L26.791 680.604L28.2876 684.29L28.0606 680.984L29.4336 681.38C35.9414 683.259 42.1225 686.124 47.7613 689.877C65.6749 702.421 75.587 718.099 70.3472 725.581C68.5561 728.139 65.2593 729.361 60.9829 729.362ZM26.8398 712.314C27.9341 713.24 29.0727 714.122 30.2407 714.946C46.6474 726.435 64.2637 730.78 68.7085 724.435C73.1523 718.089 63.0429 703.02 46.6338 691.53C41.5713 688.162 36.0559 685.531 30.2529 683.715L31.1401 696.632L25.312 682.277C21.4736 681.258 17.5468 680.42 13.6157 679.781L14.2597 689.156L10.2485 679.276C7.14055 678.849 4.63518 678.617 3.11125 678.499C5.18889 683.062 12.0541 697.151 22.0478 707.743L40.3779 708.414L26.8398 712.314Z" fill="#9FC9A3"/>
<path id="Vector_3" d="M324.37 728.233H0.337402V730.474H324.37V728.233Z" fill="#3F3D56"/>
<path id="Vector_4" d="M777.185 172.947H773.186V63.4019C773.186 55.0759 771.546 46.8314 768.36 39.1391C765.174 31.4468 760.504 24.4574 754.616 18.57C748.729 12.6826 741.74 8.01246 734.047 4.82621C726.355 1.63996 718.111 9.19268e-06 709.784 1.54799e-10H477.698C460.882 -3.71302e-05 444.756 6.67975 432.866 18.5699C420.976 30.46 414.296 46.5865 414.296 63.4017V664.376C414.296 681.191 420.975 697.318 432.866 709.208C444.756 721.098 460.882 727.778 477.697 727.778H709.784C726.599 727.778 742.726 721.098 754.616 709.208C766.506 697.318 773.186 681.192 773.186 664.376V250.924H777.185L777.185 172.947Z" fill="#E6E6E6"/>
<path id="Vector_5" d="M712.343 16.495H682.047C683.441 19.9106 683.972 23.6165 683.596 27.2861C683.22 30.9556 681.947 34.4764 679.889 37.538C677.831 40.5997 675.052 43.1084 671.797 44.8431C668.541 46.5778 664.909 47.4852 661.22 47.4855H528.261C524.572 47.4852 520.94 46.5778 517.684 44.8431C514.429 43.1084 511.65 40.5997 509.592 37.538C507.535 34.4764 506.262 30.9556 505.885 27.286C505.509 23.6164 506.041 19.9106 507.434 16.4949H479.138C472.92 16.4949 466.763 17.7196 461.019 20.099C455.274 22.4785 450.055 25.9661 445.658 30.3627C441.262 34.7594 437.774 39.979 435.394 45.7235C433.015 51.468 431.79 57.6249 431.79 63.8427V663.935C431.79 670.153 433.015 676.31 435.394 682.055C437.774 687.799 441.261 693.019 445.658 697.415C450.055 701.812 455.274 705.3 461.019 707.679C466.763 710.058 472.92 711.283 479.138 711.283H712.343C718.56 711.283 724.717 710.058 730.462 707.679C736.206 705.3 741.426 701.812 745.822 697.415C750.219 693.019 753.707 687.799 756.086 682.055C758.466 676.31 759.69 670.153 759.69 663.935V663.935V63.8427C759.69 57.6249 758.466 51.468 756.086 45.7235C753.707 39.979 750.219 34.7594 745.823 30.3628C741.426 25.9662 736.206 22.4786 730.462 20.0991C724.717 17.7197 718.56 16.495 712.343 16.495H712.343Z" fill="white"/>
<path id="Vector_6" d="M602.081 245.023C587.643 245.023 573.529 240.742 561.524 232.72C549.519 224.699 540.163 213.298 534.637 199.959C529.112 186.62 527.667 171.942 530.483 157.781C533.3 143.621 540.253 130.613 550.462 120.404C560.671 110.195 573.678 103.242 587.839 100.426C602 97.609 616.677 99.0546 630.016 104.58C643.355 110.105 654.756 119.462 662.778 131.466C670.799 143.471 675.081 157.585 675.081 172.023C675.059 191.377 667.361 209.932 653.675 223.618C639.99 237.303 621.435 245.001 602.081 245.023V245.023ZM602.081 101.023C588.038 101.023 574.311 105.187 562.635 112.989C550.959 120.79 541.859 131.879 536.485 144.853C531.111 157.826 529.705 172.102 532.445 185.874C535.184 199.647 541.946 212.298 551.876 222.228C561.806 232.157 574.457 238.919 588.229 241.659C602.002 244.398 616.278 242.992 629.251 237.618C642.225 232.245 653.313 223.144 661.115 211.469C668.917 199.793 673.081 186.066 673.081 172.023C673.059 153.199 665.572 135.152 652.262 121.842C638.951 108.532 620.904 101.044 602.081 101.023V101.023Z" fill="#3F3D56"/>
<path id="Vector_7" d="M588.081 666.023C580.763 666.023 573.609 663.853 567.524 659.787C561.44 655.722 556.697 649.943 553.897 643.182C551.097 636.421 550.364 628.982 551.792 621.805C553.219 614.627 556.743 608.035 561.918 602.86C567.092 597.686 573.685 594.162 580.862 592.734C588.04 591.306 595.479 592.039 602.24 594.839C609.001 597.64 614.779 602.382 618.845 608.467C622.911 614.552 625.081 621.705 625.081 629.023C625.07 638.833 621.168 648.237 614.231 655.174C607.295 662.11 597.89 666.012 588.081 666.023ZM588.081 594.023C581.158 594.023 574.391 596.076 568.636 599.922C562.88 603.767 558.394 609.234 555.745 615.629C553.096 622.025 552.403 629.062 553.753 635.851C555.104 642.641 558.437 648.877 563.332 653.772C568.227 658.667 574.463 662 581.252 663.351C588.042 664.701 595.079 664.008 601.475 661.359C607.87 658.71 613.336 654.224 617.182 648.468C621.028 642.712 623.081 635.945 623.081 629.023C623.07 619.744 619.379 610.847 612.818 604.286C606.256 597.724 597.36 594.034 588.081 594.023V594.023Z" fill="#3F3D56"/>
<path id="Vector_8" d="M858.081 448.419H708.501V298.84H858.081V448.419ZM710.501 446.419H856.081V300.84H710.501V446.419Z" fill="#3F3D56"/>
<path id="Vector_9" d="M542.193 528.419H461.081V447.307H542.193V528.419ZM463.081 526.419H540.193V449.307H463.081V526.419Z" fill="#3F3D56"/>
<path id="Vector_10" d="M86.2789 240.366C104.465 240.366 119.207 225.624 119.207 207.438C119.207 189.252 104.465 174.51 86.2789 174.51C68.0931 174.51 53.3506 189.252 53.3506 207.438C53.3506 225.624 68.0931 240.366 86.2789 240.366Z" fill="#2F2E41"/>
<path id="Vector_11" d="M141.16 285.839C162.809 285.839 180.36 268.288 180.36 246.638C180.36 224.989 162.809 207.438 141.16 207.438C119.51 207.438 101.959 224.989 101.959 246.638C101.959 268.288 119.51 285.839 141.16 285.839Z" fill="#2F2E41"/>
<path id="Vector_12" d="M186.352 584.041L167.125 618.057C167.125 618.057 141.982 592.914 155.293 586.259L175.999 579.604L186.352 584.041Z" fill="#FFB8B8"/>
<path id="Vector_13" d="M152.335 674.998L158.251 700.141L140.503 706.057L134.587 677.217L152.335 674.998Z" fill="#FFB8B8"/>
<path id="Vector_14" d="M189.341 421.24L193.153 460.137C193.153 460.137 261.78 523.402 238.117 547.066C214.453 570.73 184.873 589.956 184.873 589.956L171.562 580.343L201.881 538.931L140.503 495.301L154.554 677.956L133.108 683.872L85.0412 498.999C85.0412 498.999 70.2513 439.839 106.487 410.259L189.341 421.24Z" fill="#2F2E41"/>
<path id="Vector_15" d="M145.68 699.402C145.68 699.402 156.772 685.351 161.949 697.923C165.36 706.568 168.08 715.469 170.083 724.545C170.083 724.545 189.31 753.385 159.73 749.687C130.15 745.99 139.024 732.679 139.024 732.679C137.451 731.661 136.199 730.217 135.413 728.515C134.628 726.813 134.341 724.924 134.587 723.066C135.327 716.41 139.024 700.881 139.024 700.881C139.024 700.881 142.722 694.225 145.68 699.402Z" fill="#2F2E41"/>
<path id="Vector_16" d="M176.369 602.898C176.369 602.898 182.654 609.183 172.302 619.536C172.302 619.536 170.823 648.377 157.512 645.419C144.201 642.461 139.764 606.225 141.243 602.528C142.722 598.83 139.024 571.469 147.898 572.209C156.772 572.948 167.865 582.562 167.865 582.562C167.865 582.562 148.638 600.309 167.125 612.141C167.125 612.141 171.932 610.293 176.369 602.898Z" fill="#2F2E41"/>
<path id="Vector_17" d="M121.276 317.083L177.478 318.562C165.093 300.986 162.762 280.252 167.865 257.184L130.89 264.579C138.01 283.406 138.133 299.555 121.276 317.083Z" fill="#FFB8B8"/>
<path id="Vector_18" d="M103.529 412.478L190.789 436.881L207.536 321.513C207.194 316.326 205.044 311.423 201.459 307.659C197.875 303.894 193.084 301.505 187.92 300.91L167.865 298.596L131.629 302.293L114.491 307.136C109.689 308.494 105.486 311.434 102.566 315.481C99.6454 319.528 98.1787 324.443 98.4039 329.428L103.529 412.478Z" fill="#9FC9A3"/>
<path id="Vector_19" d="M187.091 414.696L201.142 430.965L235.159 394.73L222.512 332.024C221.004 324.544 217.303 317.683 211.881 312.314C206.459 306.945 199.562 303.312 192.068 301.877L182.655 300.075L203.36 384.377L187.091 414.696Z" fill="#9FC9A3"/>
<path id="Vector_20" d="M187.788 437.564L198.184 423.57L189.31 414.696L174.897 418.456C172.86 418.988 170.995 420.036 169.482 421.501C167.97 422.965 166.861 424.795 166.264 426.814C165.668 428.833 165.602 430.972 166.075 433.023C166.548 435.074 167.543 436.969 168.964 438.522V438.522C170.179 439.852 171.674 440.896 173.34 441.58C175.006 442.264 176.803 442.572 178.602 442.48C180.401 442.389 182.157 441.9 183.746 441.05C185.334 440.201 186.714 439.01 187.788 437.564Z" fill="#FFB8B8"/>
<path id="Vector_21" d="M119.058 419.133L105.008 435.402L70.9908 399.167L83.6374 336.461C85.1459 328.981 88.8467 322.12 94.2685 316.751C99.6902 311.382 106.587 307.749 114.081 306.314L123.495 304.511L102.789 388.814L119.058 419.133Z" fill="#9FC9A3"/>
<path id="Vector_22" d="M118.361 442.001L107.966 428.007L116.84 419.133L131.253 422.893C133.29 423.425 135.155 424.473 136.667 425.938C138.18 427.402 139.288 429.232 139.885 431.251C140.482 433.27 140.547 435.409 140.074 437.46C139.601 439.511 138.606 441.406 137.186 442.959C135.97 444.289 134.476 445.333 132.81 446.017C131.143 446.701 129.346 447.009 127.547 446.917C125.748 446.826 123.992 446.337 122.404 445.487C120.816 444.638 119.435 443.447 118.361 442.001V442.001Z" fill="#FFB8B8"/>
<path id="Vector_23" d="M146.579 275.482C160.758 275.482 172.252 263.988 172.252 249.809C172.252 235.631 160.758 224.137 146.579 224.137C132.401 224.137 120.907 235.631 120.907 249.809C120.907 263.988 132.401 275.482 146.579 275.482Z" fill="#FFB8B8"/>
<path id="Vector_24" d="M174.088 247.422H130.183L116.855 229.39C129.968 217.913 146.378 215.856 164.68 219.198L174.088 247.422Z" fill="#2F2E41"/>
<path id="Vector_25" d="M562.081 220.023C595.218 220.023 622.081 193.16 622.081 160.023C622.081 126.886 595.218 100.023 562.081 100.023C528.943 100.023 502.081 126.886 502.081 160.023C502.081 193.16 528.943 220.023 562.081 220.023Z" fill="#E6E6E6"/>
<path id="Vector_26" d="M816.086 273.194H684.905V404.375H816.086V273.194Z" fill="#9FC9A3"/>
<path id="Vector_27" d="M484.056 504.345H554.378V434.023H484.056V504.345Z" fill="#E6E6E6"/>
<path id="Vector_28" d="M568.081 653.023C584.649 653.023 598.081 639.592 598.081 623.023C598.081 606.454 584.649 593.023 568.081 593.023C551.512 593.023 538.081 606.454 538.081 623.023C538.081 639.592 551.512 653.023 568.081 653.023Z" fill="#9FC9A3"/>
</g>
<defs>
<clipPath id="clip0">
<rect width="858.081" height="750.015" fill="white"/>
</clipPath>
</defs>
</svg>
