<svg width="726" height="765" viewBox="0 0 726 765" fill="none" xmlns="http://www.w3.org/2000/svg">
<g id="undraw_my_location_f9pr 1" clip-path="url(#clip0)">
<path id="Vector" d="M519.034 169.224H515.121V62.0368C515.121 53.89 513.516 45.823 510.399 38.2963C507.281 30.7696 502.711 23.9307 496.951 18.1701C491.19 12.4094 484.351 7.83984 476.824 4.72221C469.298 1.60458 461.231 -3.40184e-05 453.084 -3.81427e-06H225.994C217.848 -2.35126e-05 209.781 1.6046 202.254 4.72223C194.727 7.83987 187.888 12.4095 182.128 18.1701C176.367 23.9308 171.797 30.7697 168.68 38.2963C165.562 45.823 163.958 53.89 163.958 62.0368V650.072C163.958 658.218 165.562 666.285 168.68 673.812C171.797 681.339 176.367 688.178 182.128 693.938C187.888 699.699 194.727 704.269 202.254 707.386C209.781 710.504 217.848 712.108 225.994 712.108H453.084C461.231 712.108 469.298 710.504 476.824 707.386C484.351 704.269 491.19 699.699 496.951 693.938C502.711 688.178 507.281 681.339 510.399 673.812C513.516 666.285 515.121 658.218 515.121 650.072V245.521H519.034V169.224Z" fill="#3F3D56"/>
<path id="Vector_2" d="M718.244 682.871H0.244141V684.871H718.244V682.871Z" fill="#3F3D56"/>
<path id="Vector_3" opacity="0.2" d="M501.918 62.4727V649.643C501.923 655.728 500.728 661.755 498.402 667.379C496.076 673.002 492.663 678.112 488.36 682.415C484.057 686.718 478.947 690.131 473.324 692.457C467.7 694.783 461.673 695.978 455.588 695.973H227.408C221.322 695.977 215.296 694.782 209.673 692.455C204.05 690.128 198.941 686.716 194.638 682.413C190.335 678.11 186.922 673 184.596 667.378C182.269 661.755 181.073 655.728 181.078 649.643V62.4727C181.073 56.3873 182.269 50.3608 184.596 44.7379C186.922 39.1149 190.335 34.0058 194.638 29.7028C198.941 25.3998 204.05 21.9874 209.673 19.6606C215.296 17.3338 221.322 16.1384 227.408 16.1427H255.088C253.724 19.4847 253.204 23.1107 253.573 26.7012C253.941 30.2916 255.187 33.7364 257.2 36.7319C259.214 39.7275 261.933 42.1818 265.119 43.8787C268.304 45.5756 271.858 46.463 275.468 46.4627H405.568C409.177 46.463 412.731 45.5756 415.917 43.8787C419.102 42.1818 421.821 39.7275 423.835 36.7319C425.848 33.7364 427.094 30.2916 427.463 26.7012C427.831 23.1107 427.311 19.4847 425.948 16.1427H455.588C461.673 16.1372 467.7 17.3318 473.324 19.6582C478.947 21.9846 484.057 25.397 488.36 29.7002C492.663 34.0035 496.076 39.113 498.402 44.7365C500.728 50.36 501.923 56.387 501.918 62.4727V62.4727Z" fill="black"/>
<path id="Vector_4" d="M71.5626 684.765L70.4894 684.363C70.2535 684.274 46.7809 675.281 35.7853 654.889C24.7892 634.497 30.1735 609.944 30.2291 609.699L30.4826 608.581L31.5553 608.983C31.7911 609.072 55.2633 618.065 66.2594 638.457C77.2555 658.849 71.8712 683.402 71.8156 683.647L71.5626 684.765ZM37.546 653.94C46.8424 671.181 65.3912 680.019 70.091 682.037C70.9845 677 73.7868 656.63 64.4987 639.406C55.2116 622.183 36.6554 613.332 31.9537 611.309C31.0597 616.349 28.2584 636.716 37.546 653.94Z" fill="#9FC9A3"/>
<path id="Vector_5" d="M44.1884 647.736C63.9489 659.625 71.5594 683.239 71.5594 683.239C71.5594 683.239 47.1316 687.578 27.371 675.689C7.61043 663.8 0 640.186 0 640.186C0 640.186 24.4278 635.847 44.1884 647.736Z" fill="#9FC9A3"/>
<path id="Vector_6" d="M238.647 16.1427V695.973H227.407C224.468 695.977 221.534 695.699 218.647 695.143V16.9727C221.534 16.416 224.468 16.1381 227.407 16.1427L238.647 16.1427Z" fill="#3F3D56"/>
<path id="Vector_7" d="M346.647 46.4627H326.647V695.973H346.647V46.4627Z" fill="#3F3D56"/>
<path id="Vector_8" d="M471.647 19.0026V693.113C466.506 695.011 461.068 695.98 455.587 695.973H451.647V16.1426H455.587C461.068 16.1356 466.506 17.104 471.647 19.0026V19.0026Z" fill="#3F3D56"/>
<path id="Vector_9" d="M501.918 129.343H181.078V149.343H501.918V129.343Z" fill="#3F3D56"/>
<path id="Vector_10" d="M501.918 356.343H181.078V376.343H501.918V356.343Z" fill="#3F3D56"/>
<path id="Vector_11" d="M491.647 468.343H330.647V488.343H491.647V468.343Z" fill="#3F3D56"/>
<path id="Vector_12" d="M501.917 214.343H326.647V234.343H501.917V214.343Z" fill="#3F3D56"/>
<path id="Vector_13" d="M341.098 148.003L338.778 149.343L326.648 156.343L238.648 207.153L218.648 218.703L181.078 240.393V217.293L218.648 195.603L238.648 184.063L298.778 149.343L326.648 133.253L331.098 130.683L341.098 148.003Z" fill="#3F3D56"/>
<path id="Vector_14" d="M501.918 575.343H181.078V595.343H501.918V575.343Z" fill="#3F3D56"/>
<path id="Vector_15" d="M571.647 215.343C571.647 278.855 456.647 420.343 456.647 420.343C456.647 420.343 341.647 278.855 341.647 215.343C341.647 184.843 353.764 155.592 375.33 134.025C396.897 112.459 426.148 100.343 456.647 100.343C487.147 100.343 516.398 112.459 537.965 134.025C559.531 155.592 571.647 184.843 571.647 215.343V215.343Z" fill="#9FC9A3"/>
<path id="Vector_16" opacity="0.2" d="M456.647 278.343C494.203 278.343 524.647 247.898 524.647 210.343C524.647 172.787 494.203 142.343 456.647 142.343C419.092 142.343 388.647 172.787 388.647 210.343C388.647 247.898 419.092 278.343 456.647 278.343Z" fill="black"/>
<path id="Vector_17" d="M454.412 237.186C468.403 237.186 479.746 225.844 479.746 211.852C479.746 197.861 468.403 186.519 454.412 186.519C440.421 186.519 429.079 197.861 429.079 211.852C429.079 225.844 440.421 237.186 454.412 237.186Z" fill="white"/>
<path id="Vector_18" d="M493.961 285.343C495.021 279.844 494.852 274.18 493.466 268.754C492.081 263.329 489.514 258.277 485.949 253.959C482.383 249.642 477.908 246.165 472.843 243.779C467.777 241.392 462.247 240.155 456.647 240.155C451.048 240.155 445.518 241.392 440.452 243.779C435.387 246.165 430.911 249.642 427.346 253.959C423.781 258.277 421.214 263.329 419.829 268.754C418.443 274.18 418.274 279.844 419.333 285.343H493.961Z" fill="white"/>
<path id="Vector_19" d="M576.488 122.786C576.488 122.786 558.42 116.333 546.805 142.145C535.189 167.956 517.122 196.349 517.122 196.349L527.446 198.93C527.446 198.93 530.027 180.862 536.48 178.281L533.899 201.511C533.899 201.511 611.333 228.613 646.178 198.93L644.888 189.896C644.888 189.896 650.05 191.186 650.05 198.93L653.922 195.058C653.922 195.058 650.05 187.315 638.435 176.99C630.811 170.214 628.191 157.321 627.291 149.261C626.617 142.53 623.924 136.16 619.566 130.987C611.847 122.041 597.782 112.534 576.488 122.786Z" fill="#2F2E41"/>
<path id="Vector_20" d="M686.148 268.843C686.148 268.843 720.148 297.843 725.148 314.843C730.148 331.843 706.148 333.843 706.148 333.843L654.148 338.843C654.148 338.843 653.148 362.843 644.148 365.843C635.148 368.843 642.321 326.155 642.321 326.155L693.148 311.843L670.148 287.843L686.148 268.843Z" fill="#FBBEBE"/>
<path id="Vector_21" d="M527.148 298.843L523.148 351.843L501.148 441.843C501.148 441.843 481.148 482.843 498.148 483.843C515.148 484.843 514.148 444.843 514.148 444.843L546.148 359.843L549.148 301.843L527.148 298.843Z" fill="#FBBEBE"/>
<path id="Vector_22" d="M545.148 682.843V721.843L569.148 715.843L562.148 679.843L545.148 682.843Z" fill="#FBBEBE"/>
<path id="Vector_23" d="M673.148 682.843V721.843L697.148 715.843L690.148 679.843L673.148 682.843Z" fill="#FBBEBE"/>
<path id="Vector_24" d="M583.147 205.843C601.373 205.843 616.147 191.068 616.147 172.843C616.147 154.617 601.373 139.843 583.147 139.843C564.922 139.843 550.147 154.617 550.147 172.843C550.147 191.068 564.922 205.843 583.147 205.843Z" fill="#FBBEBE"/>
<path id="Vector_25" d="M568.148 188.843C568.148 188.843 580.148 231.843 561.148 242.843C542.148 253.843 609.148 261.843 627.148 228.843C627.148 228.843 595.148 217.843 604.148 188.843H568.148Z" fill="#FBBEBE"/>
<path id="Vector_26" d="M545.147 247.843L539.147 245.843C539.147 245.843 527.147 250.843 527.147 259.843C527.147 268.843 525.147 304.843 525.147 304.843L552.147 307.843L545.147 247.843Z" fill="white"/>
<path id="Vector_27" d="M549.147 354.791C549.147 354.791 516.147 396.843 516.147 447.843C516.147 498.843 524.147 683.843 524.147 683.843C524.147 683.843 554.147 697.843 572.147 680.843L588.147 470.843L651.147 687.843C651.147 687.843 681.147 693.843 695.147 683.843L668.147 543.843C668.147 543.843 667.147 377.843 637.147 365.843C607.147 353.843 549.147 354.791 549.147 354.791Z" fill="#2F2E41"/>
<path id="Vector_28" d="M571.148 709.843C571.148 709.843 545.148 695.843 543.148 714.843C541.148 733.843 540.148 745.843 540.148 745.843C540.148 745.843 537.148 768.843 565.148 763.843C593.148 758.843 583.148 744.843 583.148 744.843C583.148 744.843 573.148 728.843 573.148 724.843C573.148 720.843 571.148 709.843 571.148 709.843Z" fill="#2F2E41"/>
<path id="Vector_29" d="M670.589 709.387C670.589 709.387 694.251 691.72 699.02 710.221C703.788 728.721 706.54 740.444 706.54 740.444C706.54 740.444 712.885 762.754 684.454 761.92C656.024 761.086 663.859 745.77 663.859 745.77C663.859 745.77 671.401 728.475 670.814 724.518C670.226 720.561 670.589 709.387 670.589 709.387Z" fill="#2F2E41"/>
<path id="Vector_30" d="M641.147 233.843C641.147 233.843 654.147 226.843 667.147 241.843L693.147 271.843L673.147 293.843L635.147 270.843L641.147 233.843Z" fill="white"/>
<path id="Vector_31" d="M547.488 173.052C559.171 164.597 568.627 154.859 574.883 143.275C574.883 143.275 596.322 167.097 609.423 168.288C622.525 169.479 610.614 139.702 610.614 139.702L586.793 133.747L564.163 136.129L546.297 148.04L547.488 173.052Z" fill="#2F2E41"/>
<path id="Vector_32" d="M622.148 226.843C622.148 226.843 608.153 248.969 566.15 238.406L542.315 244.97L539.147 245.843C539.147 245.843 542.147 305.843 550.147 316.843C558.147 327.843 556.147 333.843 554.147 334.843C552.147 335.843 547.147 333.843 550.147 338.843C553.147 343.843 557.147 340.843 553.147 343.843C549.147 346.843 547.147 357.843 547.147 357.843L641.147 369.843C641.147 369.843 638.147 330.843 646.147 310.843C654.147 290.843 656.147 282.843 656.147 282.843L650.147 232.843L622.148 226.843Z" fill="white"/>
<path id="Vector_33" d="M466.647 503.343C483.768 503.343 497.647 489.463 497.647 472.343C497.647 455.222 483.768 441.343 466.647 441.343C449.527 441.343 435.647 455.222 435.647 472.343C435.647 489.463 449.527 503.343 466.647 503.343Z" fill="#9FC9A3"/>
</g>
<defs>
<clipPath id="clip0">
<rect width="725.833" height="764.554" fill="white"/>
</clipPath>
</defs>
</svg>
