<svg width="1096" height="575" viewBox="0 0 1096 575" fill="none" xmlns="http://www.w3.org/2000/svg">
<g id="undraw_contact_us_15o2 1">
<g id="Group" opacity="0.1">
<path id="Vector" opacity="0.1" d="M509.553 358.176C515.22 358.176 519.814 351.838 519.814 344.021C519.814 336.203 515.22 329.865 509.553 329.865C503.885 329.865 499.291 336.203 499.291 344.021C499.291 351.838 503.885 358.176 509.553 358.176Z" fill="#3F3D56"/>
<path id="Vector_2" opacity="0.1" d="M517.677 283.455C519.109 280.822 519.849 277.835 519.823 274.8C519.823 266.981 515.224 260.645 509.553 260.645C503.881 260.645 499.255 267 499.255 274.819C499.229 277.854 499.969 280.841 501.401 283.474C499.994 286.116 499.255 289.095 499.255 292.124C499.255 295.154 499.994 298.132 501.401 300.775C499.994 303.417 499.255 306.395 499.255 309.425C499.255 312.454 499.994 315.433 501.401 318.075C499.967 320.707 499.226 323.695 499.255 326.73C499.255 334.539 503.854 340.885 509.516 340.885C515.179 340.885 519.787 334.539 519.787 326.73C519.816 323.695 519.075 320.707 517.641 318.075C519.048 315.433 519.786 312.454 519.786 309.425C519.786 306.395 519.048 303.417 517.641 300.775C519.048 298.132 519.786 295.154 519.786 292.124C519.786 289.095 519.048 286.116 517.641 283.474L517.677 283.455Z" fill="#3F3D56"/>
<path id="Vector_3" opacity="0.1" d="M509.553 271.675C515.22 271.675 519.814 265.337 519.814 257.519C519.814 249.701 515.22 243.363 509.553 243.363C503.885 243.363 499.291 249.701 499.291 257.519C499.291 265.337 503.885 271.675 509.553 271.675Z" fill="#3F3D56"/>
<path id="Vector_4" opacity="0.1" d="M509.553 254.374C515.22 254.374 519.814 248.037 519.814 240.219C519.814 232.401 515.22 226.063 509.553 226.063C503.885 226.063 499.291 232.401 499.291 240.219C499.291 248.037 503.885 254.374 509.553 254.374Z" fill="#3F3D56"/>
<path id="Vector_5" opacity="0.1" d="M471.14 121.815C469.734 119.937 468.456 117.955 467.317 115.886L494.278 111.222L465.116 111.45C462.324 105.033 460.805 98.0836 460.65 91.0266C460.494 83.9697 461.708 76.9537 464.215 70.4077L503.34 91.7933L467.271 63.8429C470.625 57.632 475.161 52.2191 480.596 47.9444C486.03 43.6698 492.245 40.6259 498.85 39.004C505.455 37.3821 512.307 37.2173 518.975 38.5201C525.644 39.8228 531.984 42.5648 537.598 46.5738C543.212 50.5828 547.978 55.772 551.597 61.8153C555.216 67.8586 557.609 74.6252 558.626 81.6899C559.642 88.7546 559.261 95.9645 557.506 102.866C555.751 109.768 552.659 116.213 548.426 121.796C550.612 124.722 552.492 127.888 554.034 131.239L519.021 150.449L556.343 137.253C558.966 145.416 559.615 154.139 558.231 162.632C556.847 171.126 553.474 179.122 548.417 185.895C554.121 193.535 557.67 202.712 558.657 212.377C559.645 222.042 558.031 231.805 554 240.549C549.969 249.293 543.685 256.665 535.865 261.823C528.044 266.981 519.004 269.717 509.778 269.717C500.552 269.717 491.512 266.981 483.692 261.823C475.872 256.665 469.587 249.293 465.556 240.549C461.526 231.805 459.912 222.042 460.899 212.377C461.887 202.712 465.435 193.535 471.14 185.895C464.323 176.765 460.616 165.486 460.616 153.869C460.616 142.253 464.323 130.973 471.14 121.843V121.815Z" fill="#6C63FF"/>
<path id="Vector_6" opacity="0.1" d="M558.94 153.841C558.957 165.46 555.249 176.746 548.417 185.867C554.121 193.507 557.67 202.684 558.657 212.349C559.645 222.014 558.031 231.776 554 240.52C549.969 249.264 543.685 256.637 535.865 261.795C528.044 266.953 519.004 269.688 509.778 269.688C500.552 269.688 491.512 266.953 483.692 261.795C475.872 256.637 469.587 249.264 465.556 240.52C461.526 231.776 459.912 222.014 460.899 212.349C461.886 202.684 465.435 193.507 471.14 185.867C464.548 177.05 558.94 148.026 558.94 153.841Z" fill="black"/>
</g>
<g id="Group_2" opacity="0.1">
<path id="Vector_7" opacity="0.1" d="M612.28 341.39C616.98 341.39 620.79 336.407 620.79 330.26C620.79 324.113 616.98 319.13 612.28 319.13C607.58 319.13 603.77 324.113 603.77 330.26C603.77 336.407 607.58 341.39 612.28 341.39Z" fill="#3F3D56"/>
<path id="Vector_8" opacity="0.1" d="M619 282.63C620.183 280.561 620.794 278.214 620.77 275.83C620.77 269.68 616.96 264.69 612.27 264.69C607.58 264.69 603.76 269.69 603.76 275.83C603.734 278.215 604.349 280.563 605.54 282.63C604.373 284.708 603.76 287.052 603.76 289.435C603.76 291.818 604.373 294.162 605.54 296.24C604.373 298.318 603.76 300.662 603.76 303.045C603.76 305.428 604.373 307.772 605.54 309.85C604.349 311.917 603.734 314.265 603.76 316.65C603.76 322.8 607.57 327.79 612.27 327.79C616.97 327.79 620.77 322.79 620.77 316.65C620.794 314.266 620.183 311.919 619 309.85C620.158 307.769 620.765 305.427 620.765 303.045C620.765 300.663 620.158 298.321 619 296.24C620.158 294.159 620.765 291.817 620.765 289.435C620.765 287.053 620.158 284.711 619 282.63Z" fill="#3F3D56"/>
<path id="Vector_9" opacity="0.1" d="M612.28 273.35C616.98 273.35 620.79 268.367 620.79 262.22C620.79 256.073 616.98 251.09 612.28 251.09C607.58 251.09 603.77 256.073 603.77 262.22C603.77 268.367 607.58 273.35 612.28 273.35Z" fill="#3F3D56"/>
<path id="Vector_10" opacity="0.1" d="M612.28 259.74C616.98 259.74 620.79 254.757 620.79 248.61C620.79 242.463 616.98 237.48 612.28 237.48C607.58 237.48 603.77 242.463 603.77 248.61C603.77 254.757 607.58 259.74 612.28 259.74Z" fill="#3F3D56"/>
<path id="Vector_11" opacity="0.1" d="M580.44 155.48C579.272 154.005 578.213 152.448 577.27 150.82L599.62 147.15L575.45 147.33C573.131 142.284 571.866 136.817 571.732 131.265C571.598 125.713 572.598 120.192 574.67 115.04L607.1 131.87L577.19 109.87C579.987 105.018 583.754 100.795 588.257 97.4641C592.759 94.1332 597.899 91.7661 603.357 90.5105C608.815 89.2549 614.473 89.1378 619.978 90.1665C625.483 91.1952 630.717 93.3475 635.353 96.4893C639.989 99.6311 643.928 103.695 646.924 108.427C649.919 113.159 651.907 118.457 652.764 123.992C653.62 129.526 653.327 135.178 651.901 140.594C650.476 146.01 647.95 151.074 644.48 155.47C646.29 157.774 647.849 160.265 649.13 162.9L620.13 177.97L651.06 167.59C653.232 174.011 653.769 180.872 652.622 187.552C651.475 194.233 648.68 200.522 644.49 205.85C649.224 211.858 652.17 219.076 652.993 226.68C653.816 234.284 652.482 241.967 649.144 248.848C645.805 255.729 640.596 261.532 634.114 265.591C627.632 269.651 620.138 271.804 612.49 271.804C604.842 271.804 597.348 269.651 590.865 265.591C584.383 261.532 579.175 255.729 575.836 248.848C572.498 241.967 571.163 234.284 571.986 226.68C572.809 219.076 575.756 211.858 580.49 205.85C574.84 198.669 571.769 189.797 571.769 180.66C571.769 171.523 574.84 162.651 580.49 155.47L580.44 155.48Z" fill="#6C63FF"/>
<path id="Vector_12" opacity="0.1" d="M653.2 180.67C653.213 189.809 650.141 198.685 644.48 205.86C649.213 211.868 652.16 219.086 652.983 226.69C653.806 234.294 652.472 241.977 649.133 248.858C645.795 255.739 640.586 261.542 634.104 265.601C627.622 269.661 620.128 271.814 612.48 271.814C604.831 271.814 597.337 269.661 590.855 265.601C584.373 261.542 579.165 255.739 575.826 248.858C572.488 241.977 571.153 234.294 571.976 226.69C572.799 219.086 575.746 211.868 580.48 205.86C575 198.93 653.2 176.1 653.2 180.67Z" fill="black"/>
</g>
<g id="Group_3" opacity="0.1">
<path id="Vector_13" opacity="0.1" d="M231.843 318.626C236.081 318.626 239.517 313.892 239.517 308.052C239.517 302.212 236.081 297.478 231.843 297.478C227.605 297.478 224.17 302.212 224.17 308.052C224.17 313.892 227.605 318.626 231.843 318.626Z" fill="#3F3D56"/>
<path id="Vector_14" opacity="0.1" d="M237.912 262.801C238.979 260.835 239.53 258.605 239.508 256.341C239.508 250.498 236.082 245.757 231.843 245.757C227.605 245.757 224.17 250.508 224.17 256.341C224.151 258.606 224.705 260.836 225.775 262.801C224.723 264.776 224.17 267.002 224.17 269.266C224.17 271.531 224.723 273.757 225.775 275.731C224.723 277.706 224.17 279.932 224.17 282.196C224.17 284.461 224.723 286.687 225.775 288.661C224.705 290.627 224.151 292.856 224.17 295.122C224.17 300.965 227.605 305.705 231.843 305.705C236.082 305.705 239.508 300.955 239.508 295.122C239.53 292.857 238.979 290.628 237.912 288.661C238.956 286.684 239.504 284.459 239.504 282.196C239.504 279.934 238.956 277.709 237.912 275.731C238.956 273.754 239.504 271.529 239.504 269.266C239.504 267.004 238.956 264.779 237.912 262.801V262.801Z" fill="#3F3D56"/>
<path id="Vector_15" opacity="0.1" d="M231.843 253.985C236.081 253.985 239.517 249.251 239.517 243.411C239.517 237.571 236.081 232.837 231.843 232.837C227.605 232.837 224.17 237.571 224.17 243.411C224.17 249.251 227.605 253.985 231.843 253.985Z" fill="#3F3D56"/>
<path id="Vector_16" opacity="0.1" d="M231.843 241.055C236.081 241.055 239.517 236.321 239.517 230.481C239.517 224.641 236.081 219.907 231.843 219.907C227.605 219.907 224.17 224.641 224.17 230.481C224.17 236.321 227.605 241.055 231.843 241.055Z" fill="#3F3D56"/>
<path id="Vector_17" opacity="0.1" d="M203.133 142.003C202.083 140.6 201.128 139.12 200.274 137.576L220.428 134.089L198.633 134.26C196.542 129.466 195.402 124.273 195.281 118.998C195.16 113.724 196.061 108.478 197.93 103.583L227.172 119.573L200.202 98.6716C202.724 94.0621 206.121 90.0499 210.181 86.8854C214.241 83.7209 218.876 81.4721 223.797 80.2792C228.719 79.0863 233.821 78.9751 238.785 79.9524C243.749 80.9297 248.468 82.9745 252.649 85.9593C256.829 88.9441 260.381 92.8048 263.082 97.3003C265.783 101.796 267.576 106.83 268.348 112.088C269.12 117.346 268.856 122.715 267.57 127.861C266.285 133.006 264.007 137.817 260.878 141.994C262.517 144.178 263.923 146.545 265.071 149.052L238.922 163.37L266.812 153.508C268.771 159.608 269.255 166.127 268.22 172.473C267.186 178.82 264.666 184.795 260.887 189.857C265.156 195.564 267.813 202.423 268.555 209.647C269.297 216.871 268.094 224.169 265.084 230.707C262.073 237.244 257.377 242.757 251.532 246.614C245.687 250.471 238.929 252.516 232.033 252.516C225.136 252.516 218.379 250.471 212.534 246.614C206.689 242.757 201.992 237.244 198.982 230.707C195.971 224.169 194.768 216.871 195.51 209.647C196.252 202.423 198.909 195.564 203.178 189.857C198.084 183.034 195.314 174.606 195.314 165.925C195.314 157.245 198.084 148.816 203.178 141.994L203.133 142.003Z" fill="#6C63FF"/>
<path id="Vector_18" opacity="0.1" d="M268.741 165.935C268.754 174.617 265.983 183.05 260.878 189.866C265.147 195.574 267.804 202.432 268.546 209.656C269.288 216.88 268.085 224.179 265.075 230.716C262.064 237.254 257.368 242.766 251.523 246.623C245.678 250.48 238.92 252.526 232.024 252.526C225.127 252.526 218.37 250.48 212.525 246.623C206.68 242.766 201.983 237.254 198.973 230.716C195.962 224.179 194.759 216.88 195.501 209.656C196.243 202.432 198.9 195.574 203.169 189.866C198.209 183.283 268.741 161.593 268.741 165.935Z" fill="black"/>
</g>
<path id="Vector_19" opacity="0.1" d="M525.5 544C721.837 544 881 540.194 881 535.5C881 530.806 721.837 527 525.5 527C329.163 527 170 530.806 170 535.5C170 540.194 329.163 544 525.5 544Z" fill="#9FC9A3"/>
<path id="Vector_20" opacity="0.1" d="M478 414C648.104 414 786 410.194 786 405.5C786 400.806 648.104 397 478 397C307.896 397 170 400.806 170 405.5C170 410.194 307.896 414 478 414Z" fill="#9FC9A3"/>
<path id="Vector_21" opacity="0.1" d="M430 99.4012C427.717 98.9742 425.357 99.2288 423.221 100.133C421.942 100.699 420.557 100.991 419.156 100.991C417.755 100.991 416.37 100.699 415.091 100.133C413.578 99.4747 411.937 99.1508 410.285 99.1835C408.632 99.2163 407.006 99.605 405.52 100.323C404.674 100.759 403.736 100.991 402.783 101C398.905 101 395.675 97.1339 395 92.0303C395.774 91.4686 396.434 90.7667 396.943 89.9618C399.215 86.3486 402.737 84 406.697 84C410.657 84 414.133 86.3034 416.405 89.8895C417.084 90.975 418.034 91.8683 419.165 92.4824C420.295 93.0966 421.567 93.4107 422.856 93.3943H422.956C426.022 93.3762 428.695 95.8332 430 99.4012Z" fill="#6C63FF"/>
<path id="Vector_22" opacity="0.1" d="M441.372 82.3834L435.166 86.531L438.933 79.3108C437.868 78.4131 436.548 77.9174 435.184 77.9028H435.075C434.646 77.911 434.216 77.8759 433.793 77.7982L431.688 79.2061L432.591 77.4748C431.099 76.9283 429.809 75.8995 428.905 74.5353L425.138 77.0467L427.523 72.4996C426.521 71.1377 425.245 70.0274 423.785 69.2492C422.326 68.4709 420.72 68.0443 419.085 68C415.164 68 411.677 70.4543 409.428 74.2785C408.761 75.4218 407.819 76.3593 406.697 76.9958C405.575 77.6323 404.314 77.9452 403.04 77.9028H402.833C398.505 77.9028 395 83.0588 395 89.4324C395 95.806 398.505 100.962 402.833 100.962C403.778 100.954 404.708 100.706 405.543 100.239C407.014 99.4875 408.622 99.0813 410.257 99.0484C411.892 99.0156 413.513 99.3568 415.011 100.049C416.285 100.661 417.667 100.985 419.067 101C420.445 100.997 421.808 100.693 423.069 100.106C424.557 99.4278 426.166 99.0939 427.786 99.1268C429.407 99.1596 431.003 99.5583 432.465 100.296C433.301 100.757 434.231 100.999 435.175 101C439.493 101 442.998 95.8345 442.998 89.4705C443.035 87.0012 442.475 84.5627 441.372 82.3834V82.3834Z" fill="#9FC9A3"/>
<path id="Vector_23" opacity="0.1" d="M320 174.307C322.281 173.856 324.638 174.125 326.772 175.082C328.053 175.681 329.44 175.991 330.842 175.991C332.245 175.991 333.632 175.681 334.913 175.082C336.427 174.386 338.067 174.043 339.72 174.076C341.372 174.109 342.999 174.517 344.486 175.273C345.329 175.744 346.269 175.993 347.224 176C351.103 176 354.334 171.897 355 166.493C354.226 165.9 353.569 165.157 353.065 164.303C350.784 160.477 347.261 158 343.309 158C339.357 158 335.871 160.429 333.589 164.236C332.912 165.384 331.962 166.329 330.833 166.979C329.704 167.629 328.434 167.963 327.146 167.947H327.046C323.97 167.966 321.287 170.558 320 174.307Z" fill="#6C63FF"/>
<path id="Vector_24" opacity="0.1" d="M308.601 157.374L314.817 161.521L311.04 154.311C312.108 153.41 313.431 152.911 314.799 152.893H314.898C315.33 152.9 315.763 152.868 316.19 152.798L318.295 154.197L317.391 152.475C318.88 151.927 320.167 150.898 321.068 149.535L324.835 152.047L322.487 147.49C323.489 146.129 324.766 145.021 326.225 144.244C327.684 143.467 329.29 143.042 330.924 143C334.836 143 338.332 145.454 340.582 149.278C341.248 150.42 342.188 151.357 343.308 151.993C344.428 152.63 345.688 152.944 346.96 152.903H347.177C351.495 152.903 355 158.068 355 164.432C355 170.796 351.495 175.962 347.177 175.962C346.232 175.958 345.302 175.713 344.466 175.248C342.995 174.493 341.385 174.083 339.749 174.049C338.112 174.014 336.488 174.356 334.99 175.049C333.72 175.666 332.34 175.99 330.942 176C329.561 175.999 328.195 175.694 326.931 175.106C325.445 174.428 323.838 174.094 322.219 174.127C320.599 174.16 319.005 174.559 317.545 175.296C316.709 175.757 315.779 175.999 314.835 176C310.507 176 307.002 170.844 307.002 164.47C306.96 162.001 307.51 159.56 308.601 157.374V157.374Z" fill="#9FC9A3"/>
<path id="Vector_25" d="M664.31 490.26C666.92 485.42 663.96 479.5 660.56 475.19C657.16 470.88 653 466.39 653.09 460.9C653.22 453.01 661.6 448.34 668.29 444.16C673.258 441.045 677.84 437.352 681.94 433.16C683.655 431.546 685.073 429.644 686.13 427.54C687.52 424.46 687.48 420.94 687.39 417.54C687.103 406.28 686.547 395.027 685.72 383.78" stroke="#3F3D56" stroke-width="4" stroke-miterlimit="10"/>
<path id="Vector_26" d="M698.45 383.22C698.354 381.157 697.74 379.152 696.665 377.389C695.59 375.626 694.089 374.161 692.3 373.13L689.54 378.58L689.63 371.98C687.127 371.243 684.455 371.32 681.998 372.201C679.542 373.082 677.429 374.72 675.965 376.88C674.5 379.039 673.76 381.608 673.851 384.216C673.941 386.824 674.858 389.335 676.469 391.388C678.08 393.441 680.301 394.929 682.812 395.637C685.324 396.345 687.995 396.237 690.441 395.328C692.887 394.419 694.981 392.756 696.42 390.58C697.86 388.404 698.571 385.826 698.45 383.22Z" fill="#9FC9A3"/>
<path id="Vector_27" d="M676.49 466.54C675.252 468.947 673.254 470.879 670.808 472.036C668.361 473.193 665.601 473.512 662.954 472.943C660.308 472.374 657.923 470.948 656.169 468.887C654.415 466.825 653.389 464.243 653.25 461.54C653.158 459.835 653.431 458.131 654.05 456.54C654.956 454.22 656.545 452.229 658.606 450.83C660.667 449.431 663.104 448.69 665.595 448.704C668.085 448.718 670.513 449.487 672.559 450.909C674.604 452.331 676.17 454.34 677.05 456.67L669.36 462.93L677.82 460.93C677.83 462.879 677.374 464.803 676.49 466.54Z" fill="#9FC9A3"/>
<path id="Vector_28" d="M670.41 442.64C667.389 442.782 664.421 441.808 662.073 439.902C659.725 437.996 658.16 435.292 657.678 432.306C657.196 429.32 657.83 426.262 659.459 423.714C661.088 421.165 663.598 419.306 666.51 418.49L666.44 423.56L669.23 418.04C672.492 417.887 675.681 419.037 678.096 421.236C680.51 423.435 681.952 426.503 682.105 429.765C682.257 433.027 681.108 436.216 678.909 438.631C676.71 441.045 673.642 442.488 670.38 442.64H670.41Z" fill="#9FC9A3"/>
<path id="Vector_29" d="M700.3 422.75C698.391 422.849 696.486 422.501 694.735 421.736C692.984 420.971 691.435 419.808 690.211 418.34C688.987 416.873 688.121 415.14 687.683 413.28C687.245 411.42 687.245 409.483 687.685 407.623C688.125 405.763 688.992 404.031 690.217 402.564C691.443 401.098 692.992 399.936 694.744 399.173C696.496 398.409 698.402 398.063 700.31 398.163C702.219 398.264 704.078 398.807 705.74 399.75L703.57 405.75L708 401.37C709.792 403.013 711.057 405.149 711.636 407.51C712.216 409.871 712.083 412.35 711.255 414.636C710.427 416.921 708.942 418.911 706.985 420.353C705.028 421.795 702.688 422.626 700.26 422.74L700.3 422.75Z" fill="#9FC9A3"/>
<path id="Vector_30" opacity="0.1" d="M696.79 386.5C693.95 386.81 691.19 387.69 688.33 387.87C685.47 388.05 682.33 387.36 680.55 385.15C679.713 383.862 678.952 382.527 678.27 381.15C677.493 379.937 676.428 378.933 675.17 378.23C674.374 379.79 673.919 381.502 673.838 383.252C673.756 385.002 674.048 386.749 674.696 388.376C675.343 390.004 676.33 391.475 677.592 392.69C678.853 393.906 680.359 394.838 682.009 395.425C683.66 396.012 685.416 396.24 687.162 396.094C688.907 395.948 690.602 395.431 692.131 394.577C693.661 393.724 694.991 392.554 696.032 391.146C697.074 389.737 697.803 388.123 698.17 386.41C697.72 386.42 697.25 386.45 696.79 386.5Z" fill="black"/>
<path id="Vector_31" opacity="0.1" d="M700.3 422.75C698.177 422.85 696.065 422.4 694.168 421.442C692.271 420.484 690.655 419.051 689.476 417.283C688.297 415.516 687.596 413.473 687.441 411.353C687.285 409.234 687.681 407.111 688.59 405.19C689.566 405.849 690.405 406.691 691.06 407.67C691.795 409.072 692.61 410.431 693.5 411.74C695.42 413.99 698.7 414.74 701.67 414.59C704.64 414.44 707.51 413.59 710.47 413.34C710.88 413.34 711.29 413.28 711.71 413.27C711.097 415.876 709.652 418.211 707.593 419.922C705.534 421.632 702.974 422.625 700.3 422.75Z" fill="black"/>
<path id="Vector_32" opacity="0.1" d="M670.41 442.64C668.309 442.738 666.219 442.297 664.337 441.358C662.455 440.419 660.846 439.014 659.661 437.276C658.477 435.538 657.758 433.526 657.572 431.431C657.386 429.336 657.74 427.229 658.6 425.31C659.615 425.978 660.499 426.825 661.21 427.81C662.016 429.245 662.908 430.631 663.88 431.96C665.95 434.27 669.45 435.09 672.59 434.96C675.73 434.83 678.59 434.15 681.59 433.96C680.843 436.38 679.37 438.511 677.37 440.064C675.369 441.617 672.939 442.516 670.41 442.64Z" fill="black"/>
<path id="Vector_33" opacity="0.1" d="M676.49 466.54C675.252 468.947 673.254 470.879 670.808 472.036C668.361 473.193 665.601 473.512 662.954 472.943C660.308 472.374 657.923 470.948 656.169 468.887C654.415 466.825 653.389 464.243 653.25 461.54C653.158 459.835 653.431 458.131 654.05 456.54C655.064 457.206 655.974 458.018 656.75 458.95C657.92 460.37 658.69 461.95 660.05 463.32C662.56 465.79 666.63 466.81 670.24 466.9C672.329 466.906 674.416 466.786 676.49 466.54Z" fill="black"/>
<path id="Vector_34" d="M492.868 319C490.512 314.418 493.184 308.801 496.263 304.712C499.342 300.623 503.08 296.364 502.999 291.155C502.89 283.66 495.324 279.239 489.275 275.274C484.791 272.32 480.656 268.817 476.959 264.838C475.404 263.315 474.119 261.513 473.167 259.516C471.921 256.584 471.957 253.254 472.029 250.029C472.3 239.346 472.803 228.67 473.537 218" stroke="#3F3D56" stroke-width="4" stroke-miterlimit="10"/>
<path id="Vector_35" d="M462.012 217.446C462.096 215.436 462.643 213.482 463.602 211.763C464.561 210.043 465.901 208.615 467.498 207.61L469.965 212.923L469.893 206.489C471.068 206.116 472.29 205.955 473.512 206.011C475.685 206.121 477.779 206.932 479.53 208.341C481.28 209.75 482.609 211.693 483.347 213.926C484.085 216.158 484.2 218.58 483.678 220.883C483.155 223.187 482.018 225.27 480.41 226.869C478.802 228.467 476.796 229.51 474.645 229.865C472.494 230.22 470.295 229.871 468.326 228.863C466.357 227.854 464.706 226.231 463.582 224.199C462.458 222.167 461.912 219.817 462.012 217.446V217.446Z" fill="#9FC9A3"/>
<path id="Vector_36" d="M481.271 296.754C482.476 299.101 484.452 300.962 486.867 302.025C489.282 303.088 491.989 303.289 494.534 302.593C497.079 301.896 499.307 300.346 500.845 298.202C502.383 296.058 503.136 293.45 502.98 290.817C502.823 288.183 501.765 285.683 499.984 283.736C498.203 281.79 495.806 280.515 493.196 280.126C490.587 279.737 487.923 280.257 485.651 281.599C483.379 282.941 481.638 285.023 480.719 287.496L487.903 293.345L480 291.476C479.994 293.312 480.429 295.122 481.271 296.754V296.754Z" fill="#9FC9A3"/>
<path id="Vector_37" d="M486.956 273.986C489.777 274.128 492.549 273.18 494.744 271.323C496.938 269.467 498.401 266.832 498.852 263.922C499.304 261.011 498.712 258.029 497.191 255.545C495.67 253.06 493.326 251.248 490.606 250.453L490.662 255.393L488.057 250.015C485.013 249.858 482.034 250.971 479.775 253.107C477.517 255.243 476.164 258.228 476.014 261.406C475.948 262.79 476.116 264.175 476.509 265.499C477.198 267.866 478.572 269.952 480.442 271.472C482.313 272.992 484.588 273.87 486.956 273.986V273.986Z" fill="#9FC9A3"/>
<path id="Vector_38" d="M459.955 254.985C461.732 255.076 463.506 254.75 465.135 254.034C466.765 253.318 468.206 252.232 469.345 250.86C470.484 249.488 471.289 247.87 471.696 246.132C472.103 244.394 472.101 242.585 471.691 240.848C471.281 239.111 470.473 237.494 469.332 236.125C468.191 234.755 466.748 233.671 465.117 232.958C463.486 232.244 461.712 231.922 459.935 232.016C458.159 232.11 456.428 232.617 454.881 233.499L456.911 239.104L452.739 235.096C451.627 236.107 450.725 237.33 450.086 238.693C449.446 240.055 449.083 241.532 449.015 243.037C448.96 244.101 449.057 245.167 449.304 246.204C449.888 248.629 451.243 250.798 453.165 252.383C455.087 253.967 457.47 254.88 459.955 254.985Z" fill="#9FC9A3"/>
<path id="Vector_39" opacity="0.1" d="M463.247 220.848C465.813 221.142 468.306 221.977 470.881 222.148C473.456 222.319 476.302 221.664 477.92 219.567C478.673 218.345 479.358 217.077 479.971 215.771C480.676 214.619 481.642 213.667 482.781 213C483.502 214.481 483.913 216.106 483.988 217.768C484.062 219.429 483.798 221.088 483.213 222.634C482.628 224.18 481.735 225.576 480.595 226.73C479.455 227.884 478.093 228.769 476.601 229.326C475.108 229.883 473.52 230.099 471.942 229.959C470.364 229.819 468.833 229.326 467.451 228.515C466.068 227.703 464.867 226.591 463.927 225.252C462.987 223.914 462.33 222.38 462 220.753C462.407 220.763 462.822 220.801 463.247 220.848Z" fill="black"/>
<path id="Vector_40" opacity="0.1" d="M460.332 254.987C462.253 255.082 464.164 254.644 465.88 253.717C467.596 252.789 469.059 251.403 470.126 249.694C471.193 247.985 471.828 246.01 471.97 243.961C472.111 241.912 471.755 239.858 470.935 238C470.049 238.638 469.286 239.452 468.689 240.399C468.024 241.755 467.286 243.07 466.48 244.336C464.751 246.513 461.781 247.239 459.091 247.093C456.402 246.948 453.803 246.126 451.123 245.884C450.752 245.884 450.371 245.826 450 245.817C450.553 248.338 451.861 250.598 453.726 252.253C455.591 253.908 457.91 254.868 460.332 254.987V254.987Z" fill="black"/>
<path id="Vector_41" opacity="0.1" d="M487.218 273.986C489.138 274.085 491.051 273.654 492.772 272.735C494.493 271.815 495.965 270.437 497.048 268.733C498.131 267.029 498.788 265.056 498.957 263.001C499.125 260.947 498.8 258.881 498.011 257C497.085 257.653 496.279 258.483 495.635 259.45C494.898 260.857 494.083 262.216 493.195 263.518C491.294 265.782 488.104 266.586 485.225 266.458C482.346 266.331 479.742 265.665 477 265.478C477.679 267.852 479.025 269.944 480.853 271.466C482.682 272.989 484.905 273.869 487.218 273.986V273.986Z" fill="black"/>
<path id="Vector_42" opacity="0.1" d="M482 296.614C483.244 299.293 485.356 301.339 487.906 302.336C490.455 303.332 493.249 303.204 495.716 301.976C498.183 300.748 500.138 298.514 501.18 295.731C502.222 292.947 502.273 289.824 501.322 287C500.446 287.635 499.662 288.416 498.999 289.317C497.992 290.682 497.277 292.201 496.158 293.519C493.989 295.893 490.495 296.874 487.379 296.961C485.582 296.962 483.786 296.846 482 296.614V296.614Z" fill="black"/>
<path id="Vector_43" d="M618.05 260.92C673.256 260.92 718.01 216.166 718.01 160.96C718.01 105.754 673.256 61 618.05 61C562.844 61 518.09 105.754 518.09 160.96C518.09 216.166 562.844 260.92 618.05 260.92Z" fill="#3F3D56"/>
<path id="Vector_44" d="M660.96 186.74C657.48 183.26 649.11 178.01 644.96 176.05C640.17 173.75 638.41 173.79 635.02 176.24C632.2 178.24 630.37 180.17 627.13 179.46C623.89 178.75 617.47 173.91 611.26 167.72C605.05 161.53 600.23 155.15 599.54 151.86C598.85 148.57 600.75 146.78 602.77 143.96C605.21 140.57 605.28 138.81 602.96 134.02C600.96 129.87 595.77 121.52 592.26 118.02C588.75 114.52 587.99 115.29 586.07 116.02C584.094 116.848 582.197 117.852 580.4 119.02C576.92 121.35 574.97 123.29 573.6 126.21C572.23 129.13 570.68 134.55 578.65 148.74C584.53 159.595 591.976 169.525 600.75 178.21C609.464 187.004 619.428 194.464 630.32 200.35C644.5 208.35 649.93 206.76 652.85 205.4C655.77 204.04 657.71 202.11 660.03 198.6C661.2 196.805 662.204 194.907 663.03 192.93C663.69 191.01 664.47 190.23 660.96 186.74Z" fill="#9FC9A3"/>
<path id="Vector_45" opacity="0.1" d="M618.05 61.01C598.268 61.0001 578.927 66.8579 562.474 77.8422C546.022 88.8265 533.197 104.444 525.622 122.719C518.047 140.993 516.062 161.104 519.919 180.507C523.776 199.91 533.301 217.732 547.289 231.721C561.278 245.709 579.1 255.234 598.503 259.091C617.906 262.948 638.017 260.963 656.291 253.388C674.566 245.813 690.183 232.988 701.168 216.536C712.152 200.083 718.01 180.742 718 160.96C717.987 134.456 707.452 109.041 688.711 90.2993C669.969 71.5579 644.554 61.0232 618.05 61.01ZM618.05 247.63C600.908 247.63 584.152 242.547 569.899 233.023C555.646 223.5 544.537 209.964 537.977 194.127C531.418 178.29 529.701 160.864 533.045 144.052C536.39 127.239 544.644 111.796 556.765 99.6751C568.886 87.554 584.329 79.2995 601.142 75.9553C617.954 72.6112 635.38 74.3275 651.217 80.8874C667.054 87.4472 680.59 98.5559 690.113 112.809C699.637 127.062 704.72 143.818 704.72 160.96C704.72 172.342 702.478 183.612 698.123 194.127C693.767 204.642 687.383 214.197 679.335 222.245C671.287 230.293 661.732 236.677 651.217 241.033C640.702 245.388 629.432 247.63 618.05 247.63Z" fill="black"/>
<path id="Vector_46" d="M573 465C622.706 465 663 422.691 663 370.5C663 318.309 622.706 276 573 276C523.294 276 483 318.309 483 370.5C483 422.691 523.294 465 573 465Z" fill="#3F3D56"/>
<path id="Vector_47" d="M624.136 342.199L597.221 370.757C597.174 370.804 597.136 370.861 597.111 370.924C597.085 370.987 597.072 371.055 597.072 371.123C597.072 371.191 597.085 371.259 597.111 371.322C597.136 371.385 597.174 371.441 597.221 371.489L616.106 392.431C616.558 392.906 616.865 393.509 616.989 394.166C617.113 394.822 617.049 395.502 616.804 396.12C616.559 396.738 616.144 397.267 615.612 397.64C615.08 398.013 614.454 398.214 613.813 398.218C612.95 398.216 612.122 397.859 611.511 397.224L592.725 376.356C592.629 376.258 592.5 376.203 592.365 376.203C592.231 376.203 592.102 376.258 592.006 376.356L587.428 381.177C585.554 383.176 583.316 384.764 580.845 385.848C578.374 386.932 575.721 387.49 573.04 387.489C570.309 387.476 567.608 386.895 565.094 385.781C562.58 384.666 560.305 383.041 558.4 380.999L554.003 376.309C553.907 376.211 553.778 376.156 553.643 376.156C553.509 376.156 553.379 376.211 553.283 376.309L534.543 397.13C534.241 397.445 533.883 397.695 533.489 397.866C533.095 398.036 532.672 398.124 532.245 398.124C531.818 398.124 531.396 398.036 531.002 397.866C530.607 397.695 530.249 397.445 529.948 397.13C529.645 396.816 529.404 396.443 529.24 396.032C529.075 395.62 528.991 395.179 528.991 394.734C528.991 394.288 529.075 393.847 529.24 393.436C529.404 393.025 529.645 392.651 529.948 392.338L548.76 371.442C548.844 371.34 548.89 371.21 548.89 371.076C548.89 370.942 548.844 370.812 548.76 370.71L521.845 342.152C521.776 342.08 521.688 342.03 521.592 342.01C521.495 341.99 521.396 342 521.305 342.039C521.214 342.079 521.137 342.145 521.083 342.23C521.028 342.315 521 342.416 521 342.518V399.662C521.007 401.871 521.852 403.988 523.349 405.55C524.847 407.112 526.876 407.993 528.994 408H617.005C619.123 407.993 621.152 407.112 622.65 405.55C624.148 403.988 624.992 401.871 625 399.662V342.565C625.004 342.458 624.977 342.353 624.922 342.264C624.867 342.174 624.786 342.104 624.692 342.064C624.597 342.024 624.493 342.016 624.393 342.04C624.294 342.064 624.204 342.12 624.136 342.199V342.199Z" fill="#9FC9A3"/>
<path id="Vector_48" d="M572.964 380.999C574.789 381.018 576.599 380.652 578.287 379.922C579.974 379.193 581.505 378.115 582.787 376.753L622 334.887C620.608 333.678 618.86 333.011 617.052 333H528.948C527.139 333.006 525.39 333.674 524 334.887L563.222 376.753C564.493 378.108 566.01 379.181 567.683 379.91C569.356 380.64 571.152 381.01 572.964 380.999V380.999Z" fill="#9FC9A3"/>
<path id="Vector_49" opacity="0.1" d="M572.045 276C554.241 275.991 536.834 281.555 522.027 291.991C507.219 302.426 495.677 317.262 488.859 334.623C482.042 351.984 480.256 371.089 483.727 389.522C487.198 407.955 495.771 424.886 508.36 438.175C520.95 451.464 536.99 460.513 554.453 464.177C571.915 467.841 590.015 465.956 606.462 458.759C622.909 451.563 636.965 439.379 646.851 423.75C656.737 408.12 662.009 389.746 662 370.953C661.988 345.773 652.507 321.629 635.64 303.825C618.772 286.021 595.899 276.013 572.045 276ZM572.045 453.289C556.617 453.289 541.536 448.46 528.709 439.413C515.881 430.366 505.884 417.506 499.98 402.461C494.076 387.416 492.531 370.861 495.541 354.889C498.551 338.918 505.98 324.247 516.889 312.732C527.797 301.217 541.696 293.375 556.827 290.198C571.958 287.021 587.642 288.652 601.895 294.883C616.149 301.115 628.331 311.669 636.902 325.209C645.473 338.749 650.048 354.668 650.048 370.953C650.048 392.79 641.83 413.732 627.201 429.173C612.573 444.614 592.733 453.289 572.045 453.289Z" fill="black"/>
<path id="Vector_50" d="M359 395C408.706 395 449 352.467 449 300C449 247.533 408.706 205 359 205C309.294 205 269 247.533 269 300C269 352.467 309.294 395 359 395Z" fill="#3F3D56"/>
<path id="Vector_51" d="M358.991 254L323 341.461L326.36 345L359 329.837L391.64 345L395 341.461L358.991 254Z" fill="#9FC9A3"/>
<path id="Vector_52" opacity="0.1" d="M359.045 205C341.243 204.991 323.838 210.554 309.031 220.987C294.225 231.42 282.683 246.254 275.864 263.612C269.045 280.97 267.256 300.073 270.724 318.504C274.191 336.936 282.76 353.868 295.345 367.158C307.929 380.449 323.966 389.502 341.425 393.171C358.885 396.841 376.983 394.962 393.431 387.773C409.879 380.584 423.938 368.408 433.829 352.784C443.72 337.16 449 318.791 449 300C449 274.813 439.524 250.656 422.656 232.842C405.787 215.027 382.907 205.013 359.045 205V205ZM359.045 382.289C343.616 382.289 328.533 377.459 315.704 368.41C302.876 359.36 292.878 346.498 286.975 331.45C281.073 316.403 279.531 299.845 282.544 283.872C285.558 267.899 292.991 253.228 303.905 241.715C314.818 230.202 328.721 222.364 343.855 219.192C358.989 216.021 374.674 217.658 388.927 223.897C403.179 230.136 415.358 240.697 423.924 254.243C432.49 267.79 437.057 283.713 437.048 300C437.046 321.835 428.826 342.776 414.198 358.215C399.57 373.654 379.731 382.327 359.045 382.327V382.289Z" fill="black"/>
<path id="Vector_53" opacity="0.1" d="M707.19 233.36C704.35 233.68 701.58 234.56 698.73 234.74C695.88 234.92 692.73 234.23 690.94 232.01C690.104 230.723 689.346 229.388 688.67 228.01C687.89 226.799 686.826 225.796 685.57 225.09C684.772 226.651 684.317 228.364 684.234 230.114C684.152 231.865 684.444 233.613 685.091 235.242C685.739 236.871 686.727 238.342 687.989 239.559C689.251 240.775 690.758 241.707 692.41 242.294C694.062 242.881 695.819 243.108 697.566 242.96C699.312 242.813 701.007 242.294 702.537 241.439C704.067 240.584 705.397 239.412 706.437 238.001C707.478 236.591 708.205 234.974 708.57 233.26C708.11 233.28 707.65 233.31 707.19 233.36Z" fill="#9FC9A3"/>
<path id="Vector_54" d="M508 403.726C508.011 402.266 507.698 400.824 507.085 399.515C506.472 398.205 505.577 397.066 504.471 396.188C504.457 393.607 503.58 391.115 501.993 389.15C500.406 387.186 498.212 385.876 495.798 385.452C495.425 383.576 494.591 381.837 493.379 380.408C492.168 378.98 490.621 377.913 488.894 377.314V377.314C488.475 377.176 488.047 377.071 487.613 377H487.486H487.261H487.08H486.882H486.638H486.088C483.69 377.058 481.388 378.01 479.591 379.685C477.794 381.361 476.617 383.653 476.269 386.156C473.101 385.385 470.204 386.385 469.672 388.498C469.538 389.059 469.57 389.65 469.762 390.192C470.303 391.829 472.063 393.399 474.419 394.17L474.725 394.265L475.186 394.389H475.285C474.782 395.517 474.523 396.75 474.527 397.996C474.52 399.526 474.912 401.029 475.662 402.339C476.412 403.649 477.49 404.715 478.778 405.42L478.57 405.554C478.277 405.835 478.043 406.179 477.884 406.563C477.314 407.625 476.869 408.756 476.557 409.932C476.332 410.941 476.296 411.988 476.016 412.987C475.493 414.824 474.157 416.375 474.003 418.289C473.931 419.145 474.067 420.192 473.489 420.744C473.347 420.874 473.193 420.989 473.029 421.087C472.629 421.385 472.288 421.763 472.027 422.2C471.854 422.597 471.616 422.958 471.323 423.266C470.8 423.676 469.942 423.638 469.69 424.275C469.437 424.913 470.096 425.665 469.942 426.36C469.789 427.055 469.229 427.188 468.823 427.578C468.351 428.114 468.018 428.77 467.858 429.482C467.004 429.653 466.124 429.625 465.282 429.398C464.44 429.171 463.655 428.751 462.984 428.168C463.214 428.783 463.384 429.421 463.49 430.072C462.704 429.44 461.813 428.968 460.863 428.682C459.794 428.169 458.841 427.423 458.066 426.493L459.564 426.274L452.949 415.624L450.99 415.195L452.741 418.745C452.595 418.816 452.465 418.92 452.362 419.05C452.259 419.18 452.185 419.333 452.146 419.497C452.052 419.892 452.031 420.303 452.082 420.706C452.172 421.667 452.323 422.621 452.534 423.561L453.039 426.055C453.084 426.284 453.138 426.521 453.201 426.75C452.541 426.716 451.88 426.793 451.243 426.978C449.931 426.464 448.564 426.122 447.173 425.96C446.875 425.896 446.568 425.896 446.27 425.96C445.933 426.129 445.639 426.38 445.413 426.693C444.274 428.087 443.261 429.591 442.39 431.185C438.78 437.715 434.078 443.416 429.629 449.317C426.56 450.63 423.465 451.877 420.369 453.124L413.709 455.808C412.411 456.43 411.002 456.754 409.576 456.76C408.944 456.76 408.159 456.617 407.771 457.188C407.597 457.485 407.46 457.805 407.365 458.14L406.679 458.216C406.363 457.073 405.818 456.015 405.081 455.113C404.919 455.143 404.766 455.214 404.635 455.32C404.505 455.426 404.401 455.564 404.332 455.722C404.17 456.036 404.071 456.379 403.881 456.674C403.529 457.226 402.907 457.493 402.464 457.959C402.022 458.425 401.742 459.149 401.255 459.625C400.591 460.143 399.81 460.471 398.99 460.577C397.753 460.881 396.56 461.358 395.443 461.995C395.034 462.265 394.594 462.479 394.134 462.632C393.626 462.737 393.105 462.756 392.591 462.689L389.072 462.413C388.755 462.372 388.435 462.388 388.124 462.461C387.771 462.613 387.472 462.879 387.271 463.221C387.07 463.563 386.977 463.963 387.005 464.365C387.05 464.768 387.173 465.157 387.365 465.509C387.558 465.861 387.816 466.168 388.124 466.411C388.733 466.885 389.409 467.255 390.128 467.506C393.173 468.756 396.313 469.737 399.513 470.437V471.189C401.752 472.379 404.225 472.999 406.733 472.997C406.919 473.011 407.105 472.975 407.275 472.893C407.505 472.711 407.665 472.447 407.726 472.15C408.474 469.789 408.947 467.341 409.134 464.86V464.86C409.574 464.828 410.005 464.712 410.406 464.517C411.615 464.165 412.825 465.04 414.079 465.183C415.622 465.364 417.048 464.412 418.51 463.832L419.142 463.613C418.726 464.177 418.233 464.674 417.68 465.088C417.075 465.545 416.399 465.887 415.812 466.363C415.315 466.838 414.784 467.271 414.224 467.658C413.828 467.851 413.421 468.016 413.005 468.153C412.39 468.394 411.805 468.713 411.263 469.104C410.783 469.406 410.378 469.824 410.081 470.323C409.933 470.578 409.846 470.868 409.829 471.166C409.812 471.465 409.864 471.764 409.982 472.036C410.107 472.258 410.275 472.45 410.476 472.597C410.677 472.745 410.905 472.846 411.146 472.893C411.622 472.969 412.105 472.969 412.581 472.893C414.494 472.74 416.399 472.559 418.303 472.379C419.108 472.325 419.907 472.204 420.694 472.017C421.109 471.912 421.525 471.77 421.94 471.646C422.652 471.456 423.381 471.341 424.115 471.303C424.327 471.286 424.541 471.308 424.746 471.37C425.189 471.522 425.504 471.998 425.956 472.093C426.262 472.134 426.572 472.091 426.858 471.969C428.249 471.653 429.668 471.494 431.091 471.493C431.714 471.493 432.445 471.332 432.733 470.723C433.022 470.113 432.499 469.133 432.264 468.324C432.144 467.807 432.077 467.277 432.065 466.744C431.957 465.433 431.601 464.158 431.019 462.994C430.705 462.451 430.442 461.877 430.233 461.281C432.963 460.187 435.574 458.79 438.022 457.112C439.363 456.088 440.867 455.324 442.462 454.856C444.346 454.619 446.257 454.854 448.039 455.542C452.378 456.868 456.647 458.437 460.827 460.243C462.822 461.109 464.807 462.023 466.865 462.68C467.465 463.529 468.19 464.271 469.013 464.879C470.434 465.722 472.03 466.183 473.661 466.221C475.836 466.43 478.02 466.516 480.203 466.478C481.875 466.554 483.542 466.229 485.077 465.526C485.443 465.333 485.786 465.093 486.097 464.812C486.686 464.865 487.279 464.78 487.834 464.565C488.389 464.349 488.893 464.008 489.309 463.565C490.493 462.496 491.345 461.077 491.755 459.491C492.288 457.321 491.881 454.733 493.145 453C493.479 452.524 493.921 452.144 494.255 451.668C494.659 451.016 494.861 450.247 494.833 449.469C494.847 449.438 494.866 449.41 494.887 449.383C495.164 448.684 495.346 447.947 495.428 447.194C495.583 446.603 495.779 446.024 496.015 445.462C496.656 443.783 497.217 442.071 497.693 440.332C498.019 439.176 498.278 438 498.47 436.81C498.605 435.859 498.686 434.907 498.758 433.955C498.854 432.455 499.13 430.974 499.58 429.548C500.709 426.153 501.348 422.598 501.475 419.002V418.793C503.138 418.592 504.669 417.742 505.768 416.41C506.866 415.079 507.453 413.362 507.413 411.597C507.413 410.538 507.201 409.49 506.79 408.523C507.589 407.065 508.006 405.41 508 403.726ZM475.709 445.1C475.808 445.472 475.926 445.833 476.043 446.195C475.511 445.652 474.996 445.091 474.464 444.539C474.671 444.615 474.888 444.682 475.086 444.767C475.295 444.857 475.495 444.969 475.682 445.1H475.709ZM473.155 443.273C470.033 440.418 466.423 438.2 463.228 435.43C464.97 436.334 466.666 437.391 468.345 438.4C470.336 439.599 472.355 440.751 474.401 441.855C474.065 442.408 473.633 442.889 473.128 443.273H473.155ZM474.482 436.077L474.635 435.916C474.635 436.325 474.635 436.696 474.635 437.048L473.796 436.744C474.028 436.536 474.248 436.314 474.455 436.077H474.482ZM447.019 443.787C448.3 442.258 449.414 440.582 450.341 438.79C451.577 441.065 453.59 442.711 455.295 444.625C452.543 444.253 449.781 443.939 447.019 443.787Z" fill="url(#paint0_linear)"/>
<path id="Vector_55" d="M452 416L453.815 416.445L460 427.555L457.278 428L452 416Z" fill="#2F2E41"/>
<path id="Vector_56" d="M404 459.094C404.564 460.772 405.26 462.412 406.081 464C408.43 463.55 410.742 462.951 413 462.209C412.555 461.609 412.074 461.031 411.559 460.479C410.999 459.926 410.337 459.467 409.602 459.12C408.82 458.96 408.008 458.96 407.226 459.12C406.157 459.094 405.078 459.112 404 459.094Z" fill="#FBBEBE"/>
<path id="Vector_57" d="M409.699 461.706C409.153 461.462 408.665 461.103 408.27 460.655C407.874 460.206 407.58 459.678 407.407 459.106C407.055 457.958 406.459 456.898 405.66 456C405.492 456.023 405.333 456.088 405.197 456.19C405.061 456.292 404.953 456.426 404.884 456.581C404.718 456.876 404.616 457.208 404.431 457.503C404.062 458.028 403.415 458.286 402.953 458.728C402.49 459.171 402.213 459.862 401.714 460.314C401.028 460.818 400.222 461.136 399.376 461.236C398.09 461.525 396.847 461.981 395.679 462.591C395.252 462.846 394.796 463.05 394.32 463.199C393.794 463.278 393.258 463.278 392.731 463.199L389.09 462.941C388.784 462.891 388.471 462.891 388.165 462.941C387.794 463.075 387.478 463.329 387.268 463.664C387.059 463.998 386.968 464.393 387.01 464.785C387.053 465.173 387.178 465.548 387.378 465.885C387.577 466.222 387.845 466.513 388.165 466.739C388.798 467.192 389.496 467.546 390.236 467.79C393.406 468.981 396.67 469.906 399.995 470.555V471.274C402.311 472.407 404.856 472.997 407.435 472.998C407.624 473.009 407.814 472.978 407.989 472.906C408.225 472.729 408.39 472.474 408.452 472.187C409.328 469.641 409.841 466.984 409.976 464.296C410.036 463.613 409.983 462.925 409.819 462.259C409.616 461.604 410.3 461.881 409.671 461.623" fill="#2F2E41"/>
<path id="Vector_58" d="M477.506 446.951C467.038 447.614 456.697 444.376 446.211 444.035C444.91 443.944 443.603 444.03 442.322 444.29C440.988 444.673 439.696 445.203 438.468 445.872C432.849 448.637 427.033 450.928 421.226 453.21L414.549 455.833C413.25 456.452 411.842 456.775 410.418 456.78C409.781 456.78 409.002 456.638 408.625 457.196C407.541 458.901 408.052 461.391 408.769 463.303C409.002 463.919 409.396 464.591 410.023 464.657C410.463 464.626 410.895 464.511 411.296 464.317C412.506 463.976 413.715 464.837 414.97 464.979C416.512 465.15 417.945 464.222 419.406 463.654C421.826 462.707 424.461 462.707 427.006 462.29C431.263 461.542 435.215 459.45 438.907 457.073C440.25 456.062 441.752 455.312 443.343 454.857C445.229 454.623 447.14 454.853 448.927 455.53C453.269 456.824 457.544 458.36 461.733 460.132C463.911 461.133 466.143 461.996 468.419 462.716C473.385 464.089 478.636 463.758 483.412 461.77C485.088 461.069 486.907 459.876 486.997 457.925C487.059 456.836 486.253 455.88 485.724 454.943C485.383 454.346 485.034 453.75 484.666 453.172C482.874 450.426 480.687 446.752 477.506 446.951Z" fill="#2F2E41"/>
<path id="Vector_59" opacity="0.1" d="M477.506 446.951C467.038 447.614 456.697 444.376 446.211 444.035C444.91 443.944 443.603 444.03 442.322 444.29C440.988 444.673 439.696 445.203 438.468 445.872C432.849 448.637 427.033 450.928 421.226 453.21L414.549 455.833C413.25 456.452 411.842 456.775 410.418 456.78C409.781 456.78 409.002 456.638 408.625 457.196C407.541 458.901 408.052 461.391 408.769 463.303C409.002 463.919 409.396 464.591 410.023 464.657C410.463 464.626 410.895 464.511 411.296 464.317C412.506 463.976 413.715 464.837 414.97 464.979C416.512 465.15 417.945 464.222 419.406 463.654C421.826 462.707 424.461 462.707 427.006 462.29C431.263 461.542 435.215 459.45 438.907 457.073C440.25 456.062 441.752 455.312 443.343 454.857C445.229 454.623 447.14 454.853 448.927 455.53C453.269 456.824 457.544 458.36 461.733 460.132C463.911 461.133 466.143 461.996 468.419 462.716C473.385 464.089 478.636 463.758 483.412 461.77C485.088 461.069 486.907 459.876 486.997 457.925C487.059 456.836 486.253 455.88 485.724 454.943C485.383 454.346 485.034 453.75 484.666 453.172C482.874 450.426 480.687 446.752 477.506 446.951Z" fill="black"/>
<path id="Vector_60" d="M424 459.432C425.628 459.997 427.27 460.52 428.927 461C429.818 459.441 431.6 458.357 431.983 456.57C432.006 456.493 432.006 456.411 431.983 456.333C431.939 456.258 431.874 456.197 431.796 456.16C430.605 455.491 429.285 455.096 427.929 455.003C426.86 454.939 426.37 456.078 425.889 456.88C425.702 457.236 424.437 459.605 424 459.432Z" fill="#FBBEBE"/>
<path id="Vector_61" d="M426.856 457.677C426.346 457.588 425.859 457.39 425.427 457.096C424.995 456.802 424.626 456.418 424.345 455.969C424.112 455.535 423.851 454.946 423.365 455.004C422.88 455.062 422.721 455.583 422.619 456.036C422.296 457.746 421.824 459.422 421.21 461.045C420.594 462.675 419.55 464.095 418.195 465.146C417.561 465.599 416.861 465.937 416.235 466.419C415.718 466.893 415.166 467.326 414.584 467.712C414.172 467.903 413.748 468.064 413.314 468.195C412.677 468.443 412.069 468.767 411.504 469.16C411.001 469.458 410.575 469.879 410.263 470.385C410.109 470.638 410.019 470.928 410.003 471.227C409.986 471.525 410.044 471.824 410.169 472.093C410.3 472.315 410.475 472.506 410.683 472.652C410.89 472.799 411.126 472.898 411.373 472.942C411.871 473.019 412.378 473.019 412.876 472.942C414.864 472.797 416.851 472.614 418.839 472.431C419.677 472.375 420.51 472.255 421.331 472.074L422.628 471.707C423.369 471.505 424.13 471.388 424.896 471.36C425.119 471.339 425.344 471.361 425.558 471.427C426.016 471.582 426.342 472.055 426.818 472.151C427.135 472.182 427.454 472.14 427.752 472.026C429.202 471.704 430.682 471.546 432.166 471.553C432.819 471.553 433.584 471.379 433.883 470.781C434.256 470.028 433.64 469.189 433.388 468.378C433.268 467.862 433.199 467.335 433.183 466.805C433.071 465.493 432.7 464.218 432.091 463.061C431.587 462.096 430.896 461.035 431.251 460.012C431.428 459.687 431.542 459.33 431.587 458.96C431.447 457.301 427.77 457.889 426.856 457.677Z" fill="#2F2E41"/>
<path id="Vector_62" d="M461.819 429.579C459.961 428.732 458.473 427.196 457.642 425.27C457.472 424.859 457.329 424.421 457.159 424.011C456.612 422.621 455.758 421.384 454.667 420.401C454.552 420.274 454.413 420.173 454.259 420.104C454.105 420.035 453.939 420 453.771 420C453.604 420.052 453.454 420.15 453.336 420.283C453.218 420.415 453.136 420.579 453.099 420.756C452.999 421.135 452.974 421.532 453.027 421.921C453.118 422.839 453.268 423.748 453.475 424.645L453.986 427.051C454.054 427.419 454.159 427.779 454.3 428.124C454.518 428.527 454.807 428.885 455.151 429.178C455.617 429.626 456.092 430.055 456.567 430.484C456.842 430.732 457.142 430.948 457.463 431.127C457.964 431.376 458.499 431.54 459.049 431.612C461.188 431.902 463.228 432.721 465 434C465 434 465 432.386 465 432.209C464.977 431.74 464.821 431.289 464.552 430.913C463.731 430.29 462.803 429.838 461.819 429.579V429.579Z" fill="#FBBEBE"/>
<path id="Vector_63" opacity="0.1" d="M461.819 429.579C459.961 428.732 458.473 427.196 457.642 425.27C457.472 424.859 457.329 424.421 457.159 424.011C456.612 422.621 455.758 421.384 454.667 420.401C454.552 420.274 454.413 420.173 454.259 420.104C454.105 420.035 453.939 420 453.771 420C453.604 420.052 453.454 420.15 453.336 420.283C453.218 420.415 453.136 420.579 453.099 420.756C452.999 421.135 452.974 421.532 453.027 421.921C453.118 422.839 453.268 423.748 453.475 424.645L453.986 427.051C454.054 427.419 454.159 427.779 454.3 428.124C454.518 428.527 454.807 428.885 455.151 429.178C455.617 429.626 456.092 430.055 456.567 430.484C456.842 430.732 457.142 430.948 457.463 431.127C457.964 431.376 458.499 431.54 459.049 431.612C461.188 431.902 463.228 432.721 465 434C465 434 465 432.386 465 432.209C464.977 431.74 464.821 431.289 464.552 430.913C463.731 430.29 462.803 429.838 461.819 429.579V429.579Z" fill="black"/>
<path id="Vector_64" d="M483.5 411C484.881 411 486 409.657 486 408C486 406.343 484.881 405 483.5 405C482.119 405 481 406.343 481 408C481 409.657 482.119 411 483.5 411Z" fill="#2F2E41"/>
<path id="Vector_65" d="M481.886 406.081C481.195 405.906 480.465 406.016 479.848 406.389C479.549 406.669 479.31 407.012 479.147 407.397C478.568 408.447 478.115 409.569 477.799 410.738C477.572 411.698 477.535 412.783 477.244 413.772C476.716 415.596 475.36 417.141 475.205 419.042C475.132 419.897 475.269 420.895 474.677 421.471C474.532 421.603 474.377 421.722 474.213 421.827C473.803 422.115 473.456 422.491 473.194 422.931C473.015 423.322 472.772 423.677 472.474 423.977C471.947 424.39 471.073 424.352 470.818 424.937C470.563 425.523 471.227 426.32 471.073 427.011C470.918 427.702 470.344 427.837 469.935 428.221C469.452 428.758 469.113 429.42 468.952 430.141C468.087 430.317 467.196 430.292 466.341 430.068C465.485 429.844 464.687 429.427 464 428.845C464.601 430.769 464.863 432.793 464.774 434.816C464.819 435.14 464.802 435.47 464.724 435.787C464.646 436.103 464.508 436.4 464.319 436.66C466.372 436.821 468.406 437.194 470.39 437.773C471.25 438.076 472.179 438.076 473.039 437.773C473.499 437.513 473.912 437.168 474.259 436.756C475.351 435.584 476.498 434.307 476.762 432.685C476.827 431.768 476.842 430.848 476.807 429.93C476.911 428.79 477.134 427.667 477.472 426.579C478.048 424.321 478.435 422.015 478.628 419.686C478.746 418.245 479.929 417.093 480.548 415.845C481.714 413.416 482.915 410.891 482.997 408.165C483.033 407.282 482.742 406.177 481.886 406.081Z" fill="#2F2E41"/>
<path id="Vector_66" opacity="0.1" d="M481.886 406.081C481.195 405.906 480.465 406.016 479.848 406.389C479.549 406.669 479.31 407.012 479.147 407.397C478.568 408.447 478.115 409.569 477.799 410.738C477.572 411.698 477.535 412.783 477.244 413.772C476.716 415.596 475.36 417.141 475.205 419.042C475.132 419.897 475.269 420.895 474.677 421.471C474.532 421.603 474.377 421.722 474.213 421.827C473.803 422.115 473.456 422.491 473.194 422.931C473.015 423.322 472.772 423.677 472.474 423.977C471.947 424.39 471.073 424.352 470.818 424.937C470.563 425.523 471.227 426.32 471.073 427.011C470.918 427.702 470.344 427.837 469.935 428.221C469.452 428.758 469.113 429.42 468.952 430.141C468.087 430.317 467.196 430.292 466.341 430.068C465.485 429.844 464.687 429.427 464 428.845C464.601 430.769 464.863 432.793 464.774 434.816C464.819 435.14 464.802 435.47 464.724 435.787C464.646 436.103 464.508 436.4 464.319 436.66C466.372 436.821 468.406 437.194 470.39 437.773C471.25 438.076 472.179 438.076 473.039 437.773C473.499 437.513 473.912 437.168 474.259 436.756C475.351 435.584 476.498 434.307 476.762 432.685C476.827 431.768 476.842 430.848 476.807 429.93C476.911 428.79 477.134 427.667 477.472 426.579C478.048 424.321 478.435 422.015 478.628 419.686C478.746 418.245 479.929 417.093 480.548 415.845C481.714 413.416 482.915 410.891 482.997 408.165C483.033 407.282 482.742 406.177 481.886 406.081Z" fill="black"/>
<path id="Vector_67" d="M479.434 449.94C477.25 448.834 475.65 446.784 473.879 445.019C470.507 441.653 466.381 439.298 462.83 436.123C460.474 434.034 458.335 431.603 455.79 429.848C453.512 428.316 450.931 427.36 448.248 427.054C447.952 426.982 447.645 426.982 447.349 427.054C447.009 427.207 446.714 427.454 446.495 427.769C445.348 429.141 444.328 430.626 443.447 432.203C438.952 440.309 432.56 447.117 427.265 454.65C427.143 454.807 427.054 454.989 427.004 455.184C426.982 455.477 427.051 455.768 427.202 456.014L428.281 458.245C428.883 459.504 429.854 460.963 431.149 460.715C431.732 460.536 432.253 460.182 432.65 459.695L437.487 454.784L442.557 449.644C445.524 446.64 448.544 443.56 450.486 439.708C451.997 442.492 454.685 444.314 456.519 446.86C457.22 447.813 457.795 448.891 458.425 449.921C459.422 451.561 460.564 453.106 461.697 454.689L467.514 462.556C468.251 463.667 469.163 464.634 470.211 465.416C471.645 466.244 473.244 466.699 474.876 466.742C477.061 466.948 479.255 467.031 481.448 466.99C483.128 467.061 484.802 466.736 486.348 466.036C487.119 465.677 487.777 465.092 488.247 464.351C488.716 463.61 488.977 462.743 489 461.85C488.91 460.926 488.625 460.036 488.164 459.247C486.06 455.27 483.345 451.914 479.434 449.94Z" fill="#2F2E41"/>
<path id="Vector_68" d="M485 412C486.105 412 487 411.105 487 410C487 408.895 486.105 408 485 408C483.895 408 483 408.895 483 410C483 411.105 483.895 412 485 412Z" fill="#E8E8F0"/>
<path id="Vector_69" d="M484.677 408.626C485.113 409.573 485.19 410.666 484.891 411.673C484.583 412.662 484.16 413.605 483.633 414.48C483.179 415.381 482.632 416.222 482 416.987C485.016 417.142 487.934 415.869 490.584 414.325C492.725 413.081 494.858 411.548 496 409.224C495.659 409.311 495.305 409.321 494.961 409.251C494.616 409.181 494.29 409.034 494.001 408.819C493.426 408.391 492.912 407.874 492.475 407.285L490.968 405.453C490.625 405.05 490.326 404.606 490.075 404.131C489.744 403.482 489.604 402.738 489.674 402C489.072 402.678 488.402 403.28 487.675 403.794C486.595 404.556 485.409 405.105 484.32 405.858C483.945 406.128 483.089 406.552 483.312 407.092C483.535 407.632 484.373 408.047 484.677 408.626Z" fill="#FBBEBE"/>
<path id="Vector_70" opacity="0.1" d="M484.677 408.626C485.113 409.573 485.19 410.666 484.891 411.673C484.583 412.662 484.16 413.605 483.633 414.48C483.179 415.381 482.632 416.222 482 416.987C485.016 417.142 487.934 415.869 490.584 414.325C492.725 413.081 494.858 411.548 496 409.224C495.659 409.311 495.305 409.321 494.961 409.251C494.616 409.181 494.29 409.034 494.001 408.819C493.426 408.391 492.912 407.874 492.475 407.285L490.968 405.453C490.625 405.05 490.326 404.606 490.075 404.131C489.744 403.482 489.604 402.738 489.674 402C489.072 402.678 488.402 403.28 487.675 403.794C486.595 404.556 485.409 405.105 484.32 405.858C483.945 406.128 483.089 406.552 483.312 407.092C483.535 407.632 484.373 408.047 484.677 408.626Z" fill="black"/>
<path id="Vector_71" d="M484.222 408.338C483.907 408.798 483.738 409.348 483.738 409.912C483.738 410.476 483.907 411.026 484.222 411.486C484.313 411.6 484.644 412.316 484.782 412.325C484.849 412.319 484.915 412.3 484.975 412.267C485.035 412.234 485.088 412.189 485.131 412.135C485.837 411.37 486.493 410.557 487.096 409.702C487.711 408.849 488.595 408.248 489.593 408.004C490.83 407.955 492.046 408.349 493.037 409.12C493.497 409.339 493.903 409.665 494.221 410.074C494.443 410.495 494.574 410.96 494.607 411.438C494.907 414.317 495.023 417.214 494.956 420.109C495.008 422.2 494.876 424.292 494.561 426.357C494.359 427.416 494.065 428.456 493.927 429.534C493.82 430.483 493.777 431.44 493.799 432.396V436.383C493.774 437.114 493.823 437.846 493.946 438.567C494.129 439.435 494.524 440.246 494.79 441.095C495.065 442.07 495.253 443.07 495.351 444.081L495.874 448.202C496.039 449.499 496.168 450.92 495.406 452.017C495.066 452.485 494.616 452.866 494.267 453.334C492.972 455.089 493.349 457.598 492.844 459.744C492.418 461.315 491.54 462.713 490.328 463.751C489.896 464.195 489.375 464.535 488.802 464.748C488.229 464.961 487.619 465.04 487.013 464.981C485.397 464.666 484.433 462.921 483.992 461.27C483.551 459.62 483.395 457.827 482.44 456.434C481.564 455.38 480.528 454.481 479.373 453.773C478.205 453.054 477.347 451.896 476.977 450.539C476.876 449.938 476.977 449.318 476.876 448.707C476.789 447.939 476.506 447.209 476.056 446.593C475.605 445.977 475.003 445.498 474.314 445.207C473.488 444.873 472.477 444.749 472 443.966C473.182 443.197 474.044 441.996 474.415 440.599C474.78 439.212 474.978 437.783 475.003 436.345L475.278 431.575C475.407 429.429 475.462 427.311 476.371 425.384C476.775 424.526 477.289 423.715 477.702 422.866C478.262 421.673 478.738 420.439 479.125 419.174C479.787 417.209 480.448 415.244 481.035 413.26C481.265 412.297 481.617 411.37 482.082 410.503C482.578 409.607 483.294 408.529 484.222 408.338Z" fill="#E8E8F0"/>
<path id="Vector_72" d="M474.131 440H475.356L475.613 438.112C475.647 437.733 475.734 437.361 475.871 437.008C476.074 436.633 476.311 436.279 476.58 435.951C477.777 434.204 477.694 431.892 477.989 429.768C478.522 426.962 479.427 424.243 480.677 421.688L483.052 416.26C483.268 415.816 483.441 415.351 483.567 414.872C483.667 414.344 483.716 413.806 483.715 413.268C483.715 412.428 483.972 409.369 484 408.548C484 408.237 483.328 408.407 483.19 408.133C482.895 407.529 482.49 409.162 481.929 409.52C481.401 409.933 481.017 410.509 480.833 411.163C480.318 412.522 480.005 413.995 479.526 415.344C479.11 416.753 478.345 418.028 477.307 419.045C476.819 419.479 476.258 419.828 475.798 420.3C474.325 421.792 474.177 424.161 474.131 426.294C474.095 427.597 473.855 440 474.131 440Z" fill="#2F2E41"/>
<path id="Vector_73" d="M491.939 406.129C491.382 406.436 490.899 406.875 490.528 407.41C490.158 407.946 489.909 408.564 489.802 409.217C489.596 410.528 489.233 411.805 488.72 413.018C487.259 415.698 483.534 416.477 482.497 419.376C482.237 420.35 482.097 421.357 482.083 422.369C481.902 424.45 481.253 426.455 481.055 428.527C480.955 430.139 480.992 431.758 481.163 433.364L482.47 449.727C482.721 452.134 482.59 454.569 482.083 456.93C483.423 457.132 484.79 456.893 485.996 456.246C487.214 455.657 488.332 454.849 489.514 454.165C491.534 452.987 493.77 452.16 495.547 450.592C495.865 450.325 496.139 450.004 496.358 449.642C496.63 448.955 496.812 448.233 496.899 447.494C497.053 446.915 497.249 446.35 497.486 445.803C498.136 444.151 498.702 442.463 499.181 440.747C499.506 439.612 499.765 438.457 499.956 437.288C500.101 436.338 500.182 435.388 500.254 434.438C500.348 432.964 500.627 431.51 501.084 430.114C502.215 426.777 502.857 423.278 502.987 419.737C503.022 419.228 502.988 418.716 502.887 418.216C502.689 417.606 502.423 417.022 502.094 416.477C501.553 415.404 501.192 414.225 500.723 413.132C499.444 410.726 497.611 408.696 495.393 407.231C494.347 406.481 493.121 405.682 491.939 406.129Z" fill="#2F2E41"/>
<path id="Vector_74" d="M464.064 433.503C463.142 432.992 462.307 432.323 461.594 431.522C461.271 431.124 461.001 430.679 460.696 430.281C459.863 429.335 458.78 428.675 457.588 428.385C456.408 428.111 455.202 427.987 453.995 428.015C453.184 427.958 452.371 428.061 451.596 428.319C451.21 428.455 450.862 428.691 450.584 429.006C450.307 429.321 450.108 429.703 450.006 430.12C449.974 430.635 450.068 431.15 450.281 431.615C450.493 432.08 450.817 432.479 451.219 432.773C451.92 433.381 452.749 433.803 453.635 434.005C454.357 434.141 455.086 434.233 455.818 434.28C460.112 434.754 463.947 437.219 467.711 439.465C471.017 441.449 474.388 443.294 477.826 445C477.959 443.916 478.016 442.823 477.996 441.73C477.996 440.915 477.933 439.664 477.206 439.18C476.171 438.723 475.093 438.383 473.99 438.166C471.773 437.402 469.609 436.478 467.514 435.399C466.328 434.859 465.187 434.195 464.064 433.503Z" fill="#FBBEBE"/>
<path id="Vector_75" d="M483.5 407C487.642 407 491 403.418 491 399C491 394.582 487.642 391 483.5 391C479.358 391 476 394.582 476 399C476 403.418 479.358 407 483.5 407Z" fill="#FBBEBE"/>
<path id="Vector_76" d="M493.722 416.014C493.115 416.906 492.621 417.876 492.251 418.9C491.36 420.918 489.845 422.636 489.105 424.775C488.366 426.914 488.357 429.66 486.833 431.406C486.528 431.674 486.297 432.022 486.164 432.415C486.158 432.659 486.134 432.903 486.093 433.143C485.87 433.779 484.881 433.807 484.694 434.46C484.64 434.647 484.694 434.853 484.605 435.039C484.453 435.46 483.918 435.525 483.571 435.777C482.831 436.3 482.983 437.514 482.457 438.271C482.227 438.553 481.931 438.766 481.598 438.889C481.264 439.012 480.906 439.04 480.559 438.971C479.867 438.824 479.202 438.562 478.589 438.196C478.369 438.07 478.126 437.99 477.876 437.963C477.58 437.974 477.295 438.078 477.056 438.262C476.384 438.78 475.845 439.466 475.487 440.256C475.13 441.047 474.964 441.918 475.006 442.791C475.109 444.541 475.507 446.259 476.183 447.863C476.258 448.141 476.389 448.398 476.566 448.619C476.831 448.838 477.153 448.968 477.489 448.995C477.825 449.022 478.162 448.943 478.455 448.769C479.037 448.407 479.656 448.115 480.3 447.9C481.477 447.676 482.626 448.526 483.82 448.451C484.69 448.317 485.509 447.939 486.191 447.358C487.39 446.609 488.467 445.663 489.382 444.556C489.899 443.837 490.273 443.025 490.736 442.259C491.326 441.328 491.966 440.433 492.652 439.578L497.037 433.975C497.473 433.442 497.866 432.874 498.213 432.275C498.603 431.457 498.902 430.595 499.105 429.706C499.573 428.226 499.873 426.693 499.996 425.139C500.023 423.854 499.915 422.57 499.675 421.31C499.542 420.055 499.242 418.826 498.784 417.658C497.83 415.547 495.513 413.829 493.722 416.014Z" fill="#2F2E41"/>
<path id="Vector_77" d="M508.999 405.398C509.006 403.956 508.693 402.532 508.086 401.245C507.479 399.958 506.596 398.843 505.509 397.993C505.473 395.43 504.592 392.965 503.02 391.033C501.448 389.102 499.289 387.831 496.925 387.445C496.471 385.015 495.23 382.836 493.423 381.292C491.615 379.747 489.356 378.937 487.045 379.004C484.734 379.071 482.519 380.011 480.792 381.658C479.065 383.305 477.936 385.553 477.605 388.005C474.469 387.245 471.599 388.233 471.076 390.302C470.554 392.372 472.768 395.049 476.073 395.999C477.115 396.312 478.2 396.427 479.279 396.341C480.048 397.556 481.046 398.584 482.209 399.361C483.372 400.138 484.673 400.645 486.029 400.85C486.431 402.808 487.334 404.606 488.635 406.045C489.937 407.484 491.587 408.506 493.4 408.996C493.904 410.294 494.684 411.448 495.676 412.367C495.676 412.623 495.676 412.889 495.676 413.155C495.676 414.054 495.841 414.944 496.162 415.774C496.483 416.605 496.954 417.359 497.547 417.995C498.14 418.631 498.844 419.135 499.619 419.479C500.394 419.823 501.224 420 502.063 420C502.902 420 503.732 419.823 504.507 419.479C505.282 419.135 505.986 418.631 506.579 417.995C507.172 417.359 507.643 416.605 507.964 415.774C508.285 414.944 508.45 414.054 508.45 413.155C508.451 412.11 508.242 411.077 507.839 410.126C508.618 408.692 509.02 407.058 508.999 405.398V405.398Z" fill="#2D2D2D"/>
<path id="Vector_78" opacity="0.1" d="M497.691 413.194C497.678 412.93 497.678 412.665 497.691 412.4C496.672 411.468 495.875 410.29 495.365 408.963C493.51 408.465 491.822 407.423 490.492 405.953C489.161 404.484 488.241 402.646 487.834 400.647C486.447 400.442 485.115 399.927 483.926 399.137C482.736 398.346 481.715 397.298 480.928 396.058C480.285 396.115 479.639 396.096 479 396C479.793 397.14 480.789 398.101 481.931 398.827C483.073 399.554 484.338 400.031 485.653 400.231C486.064 402.227 486.986 404.061 488.316 405.528C489.646 406.995 491.331 408.037 493.184 408.537C493.7 409.86 494.496 411.037 495.51 411.974C495.51 412.236 495.51 412.507 495.51 412.778C495.481 414.654 496.147 416.467 497.363 417.82C498.579 419.173 500.246 419.957 502 420C500.72 419.469 499.622 418.532 498.852 417.316C498.082 416.101 497.678 414.662 497.691 413.194V413.194Z" fill="black"/>
<path id="Vector_79" d="M486.728 402.33C487.248 401.915 487.241 400.985 486.714 400.254C486.187 399.522 485.339 399.267 484.819 399.682C484.3 400.098 484.306 401.028 484.833 401.759C485.36 402.49 486.209 402.746 486.728 402.33Z" fill="#FBBEBE"/>
</g>
<defs>
<linearGradient id="paint0_linear" x1="56399.1" y1="63802.3" x2="56399.1" y2="54107.2" gradientUnits="userSpaceOnUse">
<stop stop-color="#808080" stop-opacity="0.25"/>
<stop offset="0.54" stop-color="#808080" stop-opacity="0.12"/>
<stop offset="1" stop-color="#808080" stop-opacity="0.1"/>
</linearGradient>
</defs>
</svg>
