<svg width="239" height="32" viewBox="0 0 239 32" fill="none" xmlns="http://www.w3.org/2000/svg">
<path id="&#60;RawahAlsinan /&#62;" d="M0.53125 19.7734L0.601562 19.5625C0.648438 19.3516 0.929688 19.1523 1.44531 18.9648C1.49219 18.9414 2.10156 18.7188 3.27344 18.2969C4.44531 17.875 5.125 17.6172 5.3125 17.5234C9.46094 15.1094 11.9219 13.5977 12.6953 12.9883C12.7188 13.0117 12.8242 13.0234 13.0117 13.0234C13.4102 13.2109 13.5977 13.457 13.5742 13.7617C13.3398 14.5352 11.0898 15.9297 6.82422 17.9453C5.86328 18.4141 5.04297 18.8125 4.36328 19.1406L3.34375 19.5977C3.27344 19.7852 3.33203 19.9727 3.51953 20.1602L13.7852 30.8477L13.7148 30.9883V31.1289C13.668 31.3867 13.5391 31.5859 13.3281 31.7266C13.1406 31.8906 12.9766 31.9727 12.8359 31.9727C12.7188 31.9727 12.625 31.9609 12.5547 31.9375C12.4844 31.9375 12.4375 31.9141 12.4141 31.8672C12.3906 31.8438 12.3672 31.7969 12.3438 31.7266C12.2734 31.4922 10.6797 29.5 7.5625 25.75C3.27344 22.0469 0.929688 20.0547 0.53125 19.7734ZM31.9258 2.30078C32.793 2.30078 33.2266 2.85156 33.2266 3.95312C33.2266 5.05469 32.6758 6.53125 31.5742 8.38281C30.1914 10.7734 28.6328 12.4609 26.8984 13.4453C26.2422 13.8203 25.6094 14.043 25 14.1133C25.8203 14.8398 27.1445 17.1484 28.9727 21.0391C29.6055 22.375 30.3672 23.582 31.2578 24.6602C32.1484 25.7148 33.0273 26.2422 33.8945 26.2422C35.6758 26.2422 36.9414 25.6562 37.6914 24.4844C37.6914 26.2188 36.3086 27.2383 33.543 27.543C32.4883 27.4961 31.5273 27.0039 30.6602 26.0664C29.8164 25.1289 29.1016 24.0273 28.5156 22.7617C27.9531 21.4961 27.3789 20.2539 26.793 19.0352C26.207 17.8164 25.5156 16.8789 24.7188 16.2227C23.9453 15.543 23.1484 15.2031 22.3281 15.2031C22.0938 15.2031 21.8477 15.2266 21.5898 15.2734C20.6289 19.7734 19.9844 22.6328 19.6562 23.8516C19.3281 25.0469 19.1055 25.9141 18.9883 26.4531C18.8711 26.9922 18.707 27.4492 18.4961 27.8242C18.3086 28.1992 18.1914 28.4219 18.1445 28.4922C18.1211 28.5625 17.9922 28.6797 17.7578 28.8438C17.5234 29.0312 17.3828 29.1484 17.3359 29.1953C16.0234 29.1484 15.3672 28.293 15.3672 26.6289C15.3672 24.9648 16.0117 22.3281 17.3008 18.7188C17.8164 17.3125 18.3086 15.9766 18.7773 14.7109C20.0195 11.4297 20.7578 9.12109 20.9922 7.78516C20.9922 7.03516 20.8984 6.54297 20.7109 6.30859C20.5469 6.05078 20.3477 5.96875 20.1133 6.0625C19.8789 6.15625 19.5391 6.32031 19.0938 6.55469C18.6719 6.78906 18.3086 6.92969 18.0039 6.97656V6.13281C18.1211 5.94531 18.5547 5.61719 19.3047 5.14844C20.0547 4.67969 20.5586 4.44531 20.8164 4.44531C21.3086 4.44531 21.6836 4.98438 21.9414 6.0625C22.1992 7.11719 22.3281 8.14844 22.3281 9.15625C22.4688 8.73438 23.3711 7.82031 25.0352 6.41406C28.293 3.67188 30.5898 2.30078 31.9258 2.30078ZM20.043 14.7109C19.1758 15.7891 18.3555 17.6992 17.582 20.4414C16.8086 23.1836 16.4219 25.3398 16.4219 26.9102C16.5391 27.4258 16.6914 27.6836 16.8789 27.6836C17.1367 27.6836 17.4766 27.1562 17.8984 26.1016C18.7891 23.8516 19.4453 21.0977 19.8672 17.8398C20.0078 16.832 20.0781 16.1055 20.0781 15.6602C20.0781 15.2148 20.0664 14.8984 20.043 14.7109ZM32.4883 4.62109C32.4883 4.05859 32.2422 3.77734 31.75 3.77734C31.6094 3.77734 31.3281 3.82422 30.9062 3.91797C30.5078 4.01172 29.7461 4.42188 28.6211 5.14844C28.1523 5.61719 27.3906 6.26172 26.3359 7.08203C25.3047 7.87891 24.4609 8.55859 23.8047 9.12109C23.1719 9.66016 22.6445 10.2812 22.2227 10.9844C21.8008 11.6641 21.5898 12.2031 21.5898 12.6016C21.5898 12.9766 21.6133 13.2578 21.6602 13.4453C22.1289 13.6328 22.6211 13.7266 23.1367 13.7266C24.2148 13.7266 25.3867 13.3047 26.6523 12.4609C28.4805 11.1953 29.9805 9.66016 31.1523 7.85547C32.043 6.49609 32.4883 5.41797 32.4883 4.62109ZM45.8125 19.0703C45.1328 20.8047 44.793 22.4219 44.793 23.9219C44.793 26.4062 46.1406 27.6484 48.8359 27.6484C49.5156 27.5547 50.0195 27.4141 50.3477 27.2266C50.6992 27.0391 51.0742 26.7227 51.4727 26.2773C51.8711 25.8086 52.2578 25.4219 52.6328 25.1172H52.8086C52.6914 26.4297 52.2344 27.3203 51.4375 27.7891C50.6641 28.2344 49.5977 28.457 48.2383 28.457C45.3086 28.457 43.7266 27.2266 43.4922 24.7656C43.375 25.375 42.8359 26.0898 41.875 26.9102C40.9375 27.707 40.0938 28.1055 39.3438 28.1055C39.2969 28.1055 39.2383 28.1055 39.168 28.1055C37.7148 27.707 36.9883 26.8398 36.9883 25.5039C36.9883 23.7695 37.8906 22.082 39.6953 20.4414C41.1016 19.1523 42.4727 18.5078 43.8086 18.5078C44.5586 18.5078 45.2266 18.6953 45.8125 19.0703ZM38.0781 25.3281C38.0781 25.7031 38.0898 26.0078 38.1133 26.2422C38.1602 26.4531 38.2773 26.6523 38.4648 26.8398C38.6758 27.0273 38.9688 27.1211 39.3438 27.1211C40.375 27.0742 41.4062 26.2539 42.4375 24.6602C43.4922 23.043 44.0547 21.6602 44.125 20.5117C43.75 20.043 43.2344 19.8086 42.5781 19.8086C41.7344 19.8086 40.8555 20.3477 39.9414 21.4258C39.0273 22.5039 38.4062 23.8047 38.0781 25.3281ZM51.543 21.6016C51.543 20.3125 51.5898 18.8242 51.6836 17.1367C51.918 17.1367 52.1172 17.2305 52.2812 17.418C52.4688 17.582 52.5508 17.8398 52.5273 18.1914C52.5039 18.543 52.4922 19.5391 52.4922 21.1797C52.4922 22.8203 52.5156 23.8633 52.5625 24.3086C52.6562 25.668 52.9258 26.3477 53.3711 26.3477C53.6055 26.3477 53.8984 26.1602 54.25 25.7852C55.0938 24.8477 55.8672 23.3594 56.5703 21.3203C56.8281 20.5234 56.957 20.0195 56.957 19.8086C56.957 19.5742 56.957 19.4336 56.957 19.3867H57.8008C57.8477 19.6445 57.9297 20.3594 58.0469 21.5312C58.375 24.3203 58.7383 25.9375 59.1367 26.3828C59.6758 26.2656 60.0625 25.5156 60.2969 24.1328C60.5312 22.7266 60.6484 21.5898 60.6484 20.7227L61.3164 20.0195C61.5039 20.6289 61.6328 21.0391 61.7031 21.25C61.7969 21.4609 61.9375 21.6836 62.125 21.918C62.3125 22.1523 62.5234 22.293 62.7578 22.3398C63.0156 22.3867 63.3672 22.4102 63.8125 22.4102C64.6797 21.8477 65.1953 21.5664 65.3594 21.5664C65.5469 21.5664 65.6406 21.6016 65.6406 21.6719C65.6406 22 65.3477 22.375 64.7617 22.7969C64.1992 23.1953 63.8477 23.3945 63.707 23.3945C63.5664 23.3945 63.4844 23.3945 63.4609 23.3945C62.5938 23.3945 61.9961 23.2773 61.668 23.043C61.6445 23.1367 61.5859 23.418 61.4922 23.8867C61.3984 24.3555 61.293 24.7773 61.1758 25.1523C61.0586 25.5039 60.9062 25.8906 60.7188 26.3125C60.3203 27.25 59.7344 27.7188 58.9609 27.7188C58.6328 27.7188 58.3516 27.4727 58.1172 26.9805C57.8125 26.3945 57.543 25.668 57.3086 24.8008C57.0742 23.9102 56.957 23.4414 56.957 23.3945C55.293 26.3945 54.0156 27.8945 53.125 27.8945C52.0703 27.8945 51.543 25.7969 51.543 21.6016ZM73.4805 19.0703C72.8008 20.8047 72.4609 22.4219 72.4609 23.9219C72.4609 26.4062 73.8086 27.6484 76.5039 27.6484C77.1836 27.5547 77.6875 27.4141 78.0156 27.2266C78.3672 27.0391 78.7422 26.7227 79.1406 26.2773C79.5391 25.8086 79.9258 25.4219 80.3008 25.1172H80.4766C80.3594 26.4297 79.9023 27.3203 79.1055 27.7891C78.332 28.2344 77.2656 28.457 75.9062 28.457C72.9766 28.457 71.3945 27.2266 71.1602 24.7656C71.043 25.375 70.5039 26.0898 69.543 26.9102C68.6055 27.707 67.7617 28.1055 67.0117 28.1055C66.9648 28.1055 66.9062 28.1055 66.8359 28.1055C65.3828 27.707 64.6562 26.8398 64.6562 25.5039C64.6562 23.7695 65.5586 22.082 67.3633 20.4414C68.7695 19.1523 70.1406 18.5078 71.4766 18.5078C72.2266 18.5078 72.8945 18.6953 73.4805 19.0703ZM65.7461 25.3281C65.7461 25.7031 65.7578 26.0078 65.7812 26.2422C65.8281 26.4531 65.9453 26.6523 66.1328 26.8398C66.3438 27.0273 66.6367 27.1211 67.0117 27.1211C68.043 27.0742 69.0742 26.2539 70.1055 24.6602C71.1602 23.043 71.7227 21.6602 71.793 20.5117C71.418 20.043 70.9023 19.8086 70.2461 19.8086C69.4023 19.8086 68.5234 20.3477 67.6094 21.4258C66.6953 22.5039 66.0742 23.8047 65.7461 25.3281ZM92.8516 26.3828C91.5859 27.2969 90.2031 27.7539 88.7031 27.7539C87.9297 27.7539 87.2969 27.5195 86.8047 27.0508C86.3359 26.582 86.043 25.9961 85.9258 25.293C85.8086 24.5664 85.7266 23.9219 85.6797 23.3594C85.6562 22.7734 85.6445 22.293 85.6445 21.918C85.6445 21.5195 85.668 21.1094 85.7148 20.6875C85.6445 20.4297 85.3164 20.3008 84.7305 20.3008C84.168 20.3008 83.6172 20.5938 83.0781 21.1797C82.5391 21.7656 82.0938 22.4688 81.7422 23.2891C81.4141 24.0859 81.0859 24.8828 80.7578 25.6797C80.4531 26.4766 80.1602 27.0742 79.8789 27.4727C79.5977 27.8711 79.3633 28.0703 79.1758 28.0703C78.9883 28.0703 78.8477 28.0469 78.7539 28C78.7305 27.8594 78.7188 27.6953 78.7188 27.5078C78.7188 26.3359 79.1289 23.8164 79.9492 19.9492C80.7695 16.082 81.5781 12.7656 82.375 10C82.4219 9.83594 82.5508 9.48438 82.7617 8.94531C82.9961 8.38281 83.2422 7.98438 83.5 7.75C83.7578 7.49219 84.0273 7.36328 84.3086 7.36328C84.5898 7.36328 84.8125 7.42188 84.9766 7.53906V7.46875C85.2109 7.63281 85.3984 8.03125 85.5391 8.66406C85.6797 9.29688 85.75 9.80078 85.75 10.1758C85.75 12.3789 85.1758 14.3945 84.0273 16.2227C83.5586 16.9727 83.0898 17.6758 82.6211 18.332C82.1523 18.9883 81.7773 19.6094 81.4961 20.1953C81.2383 20.7812 81.1094 21.2148 81.1094 21.4961C81.1094 21.7773 81.1094 21.9531 81.1094 22.0234C82.3984 20.2188 83.7695 19.3164 85.2227 19.3164C85.7383 19.3164 86.1133 19.375 86.3477 19.4922C86.5352 19.6094 86.6523 19.7734 86.6992 19.9844C86.7461 20.1719 86.7695 20.6758 86.7695 21.4961C86.793 22.293 86.8281 22.9844 86.875 23.5703C86.9453 24.1328 87.0508 24.7422 87.1914 25.3984C87.332 26.0312 87.5195 26.4414 87.7539 26.6289C88.0117 26.8164 88.2461 26.9102 88.457 26.9102C88.668 26.9102 88.8906 26.8516 89.125 26.7344C91.1875 25.7266 92.5469 25.2227 93.2031 25.2227C93.5078 25.2227 93.6602 25.3164 93.6602 25.5039C93.6602 25.6914 93.3906 25.9844 92.8516 26.3828ZM83.3594 10.4219C82.4922 13.7734 82.0469 15.6836 82.0234 16.1523C82.0234 16.5977 82.0234 16.8438 82.0234 16.8906L82.0586 17.3828C83.1602 16.9375 83.9453 14.9922 84.4141 11.5469C84.5547 10.5391 84.625 9.71875 84.625 9.08594C84.625 8.45312 84.5195 8.13672 84.3086 8.13672C84.0977 8.13672 83.7812 8.89844 83.3594 10.4219ZM115.176 31.4453C114.941 31.4453 114.742 31.5156 114.578 31.6562C114.18 30.1562 113.852 27.9648 113.594 25.082C113.336 22.1992 113.02 20.0195 112.645 18.543C111.988 18.4961 110.711 18.25 108.812 17.8047C106.938 17.3359 105.59 17.1016 104.77 17.1016C104.184 17.7578 102.777 19.7852 100.551 23.1836C99.8945 24.168 99.0859 25.0586 98.125 25.8555C97.1875 26.6289 96.2617 27.0156 95.3477 27.0156C95.3242 27.0156 95.3008 27.0156 95.2773 27.0156L93.5898 26.9805C93.3555 26.8398 93.2383 26.6758 93.2383 26.4883C93.2383 26.3008 93.3555 26.1367 93.5898 25.9961C93.8242 26.043 94.1758 26.0664 94.6445 26.0664C95.1367 26.0664 95.8281 25.8203 96.7188 25.3281C97.6328 24.8125 98.5586 23.9688 99.4961 22.7969C101.02 20.9219 102.438 18.8008 103.75 16.4336C103.656 16.4102 103.434 16.2695 103.082 16.0117C102.73 15.7305 102.508 15.5547 102.414 15.4844C102.344 15.3906 102.098 15.1445 101.676 14.7461C101.254 14.3477 100.879 13.9844 100.551 13.6562C99.6602 12.8125 99.168 12.1797 99.0742 11.7578C99.0742 11.4531 99.168 11.2656 99.3555 11.1953C99.5664 11.125 99.7891 11.0898 100.023 11.0898H100.445C101.172 11.0898 102.227 11.3125 103.609 11.7578C104.992 12.2031 106.035 12.4258 106.738 12.4258C107.301 11.7461 108.109 10.082 109.164 7.43359C110.242 4.76172 111.039 3.07422 111.555 2.37109C112.117 1.36328 112.504 0.859375 112.715 0.859375C112.832 0.859375 112.891 1.02344 112.891 1.35156V1.73828L113.699 16.4336H114.051C115.527 15.7305 116.453 15.3789 116.828 15.3789C117.203 15.3789 117.391 15.4727 117.391 15.6602C117.391 15.9414 117.016 16.3281 116.266 16.8203C115.516 17.2891 114.777 17.5938 114.051 17.7344C114.027 17.9688 114.016 18.4961 114.016 19.3164C114.016 20.1133 114.215 22.1641 114.613 25.4688C115.012 28.7734 115.211 30.5898 115.211 30.918C115.234 31.2695 115.223 31.4453 115.176 31.4453ZM105.719 16.1172C106.352 16.2812 107.23 16.4453 108.355 16.6094C109.48 16.7734 110.195 16.9023 110.5 16.9961C109.609 15.7539 108.449 14.793 107.02 14.1133C106.996 14.1602 106.879 14.3359 106.668 14.6406C106.223 15.2031 105.906 15.6953 105.719 16.1172ZM107.898 13.0938L112.434 16.7852C112.457 16.3164 112.469 15.6016 112.469 14.6406C112.469 13.6562 112.422 11.957 112.328 9.54297C112.234 7.12891 112.117 5.26562 111.977 3.95312L107.898 13.0938ZM101.746 12.1094C101.605 12.0859 101.477 12.0742 101.359 12.0742C101.008 12.0742 100.832 12.1914 100.832 12.4258C100.832 12.9414 101.359 13.5859 102.414 14.3594C103.492 15.1328 104.277 15.5195 104.77 15.5195C104.887 15.5195 104.992 15.4961 105.086 15.4492C105.227 15.2852 105.367 15.0039 105.508 14.6055C105.648 14.207 105.836 13.8203 106.07 13.4453C105.883 13.3516 104.441 12.9062 101.746 12.1094ZM116.793 23.9219C116.887 21.2969 117.637 18.1094 119.043 14.3594C120.449 10.6094 121.633 8.57031 122.594 8.24219C122.875 8.24219 123.074 8.51172 123.191 9.05078C123.309 9.58984 123.367 10.0352 123.367 10.3867C123.367 11.6523 123.098 13.1523 122.559 14.8867C122.02 16.5977 121.387 17.9805 120.66 19.0352C120.379 19.5039 119.992 19.9961 119.5 20.5117C119.031 21.0273 118.668 21.5078 118.41 21.9531C118.176 22.375 118.059 22.9141 118.059 23.5703C118.059 24.7422 118.375 25.7031 119.008 26.4531C119.664 27.2031 120.578 27.5781 121.75 27.5781C123.695 27.5781 124.926 26.9102 125.441 25.5742H125.828C125.828 26.4883 125.371 27.2148 124.457 27.7539C123.543 28.293 122.512 28.5625 121.363 28.5625C120.215 28.5625 119.23 28.1289 118.41 27.2617C117.59 26.3711 117.051 25.2578 116.793 23.9219ZM122.453 10.5977C122.266 10.8086 121.949 11.3008 121.504 12.0742C121.082 12.8477 120.836 13.3516 120.766 13.5859C119.195 17.6875 118.41 19.9023 118.41 20.2305C119.395 19.5508 120.309 18.1328 121.152 15.9766C121.996 13.7969 122.43 12.0039 122.453 10.5977ZM127.199 24.3789H127.551C127.855 24.168 128.453 23.6992 129.344 22.9727C130.258 22.2227 130.762 21.8125 130.855 21.7422C130.973 21.6484 131.652 20.9805 132.895 19.7383C132.988 19.6211 133.129 19.375 133.316 19C133.715 18.1562 134.184 17.7344 134.723 17.7344C135.051 17.7344 135.215 17.9102 135.215 18.2617C135.215 18.5898 135.098 18.9648 134.863 19.3867C134.629 19.8086 134.512 20.1367 134.512 20.3711V26.9453C136.434 26.9453 137.746 26.5703 138.449 25.8203C138.73 25.5391 139.117 25.1172 139.609 24.5547C140.125 23.9922 140.652 23.5 141.191 23.0781V23.4297C141.191 24.25 140.688 25.0938 139.68 25.9609C138.672 26.8047 137.617 27.4258 136.516 27.8242C135.414 28.2227 134.652 28.4219 134.23 28.4219C133.809 28.4219 133.516 28.4102 133.352 28.3867C132.719 28.3867 132.121 28.2695 131.559 28.0352C130.996 27.8242 130.34 27.4961 129.59 27.0508C128.863 26.6055 128.277 26.2773 127.832 26.0664C126.848 26.7227 126.039 27.0508 125.406 27.0508C124.797 27.0508 124.492 26.9219 124.492 26.6641C124.492 26.5469 124.609 26.3711 124.844 26.1367C125.055 25.9023 125.523 25.6562 126.25 25.3984L125.582 24.3789C125.465 24.2852 125.477 24.2148 125.617 24.168C125.758 24.0977 125.863 24.0625 125.934 24.0625L126.531 24.2031C126.953 24.3203 127.176 24.3789 127.199 24.3789ZM129.203 25.0469C129.461 25.5625 130.07 25.9961 131.031 26.3477C131.992 26.6992 132.859 26.875 133.633 26.875C133.633 24.8359 133.492 23.0078 133.211 21.3906C132.695 21.6953 132.367 21.918 132.227 22.0586C132.086 22.1758 131.594 22.668 130.75 23.5352C129.906 24.4023 129.391 24.9062 129.203 25.0469ZM140.875 20.4766L141.016 20.0195C141.484 18.5195 141.883 17.7695 142.211 17.7695C142.68 17.7695 142.914 17.9453 142.914 18.2969C142.914 18.3672 142.902 18.4375 142.879 18.5078C141.988 20.6875 141.543 22.7617 141.543 24.7305C141.543 25.6211 141.766 26.3711 142.211 26.9805C142.656 27.5664 143.336 27.8594 144.25 27.8594C146.547 26.9688 147.988 26.5234 148.574 26.5234C148.762 26.5234 148.855 26.5703 148.855 26.6641C148.855 26.9453 148.246 27.3555 147.027 27.8945C145.809 28.4102 144.848 28.668 144.145 28.668C143.465 28.668 142.949 28.6094 142.598 28.4922C142.246 28.3984 141.988 28.3047 141.824 28.2109C141.66 28.1172 141.461 27.918 141.227 27.6133C140.992 27.2852 140.84 26.8633 140.77 26.3477C140.699 25.8086 140.664 25.0469 140.664 24.0625C140.664 23.0781 140.734 21.8828 140.875 20.4766ZM155.711 24.3438C155.711 23.9219 155.711 23.1953 155.711 22.1641C155.734 21.1094 155.746 20.207 155.746 19.457C155.09 19.5977 154.129 20.4414 152.863 21.9883C151.621 23.5352 150.941 24.3438 150.824 24.4141C149.91 25.6328 149.195 26.5 148.68 27.0156C148.469 27.2969 148.129 27.4375 147.66 27.4375V26.6641L149.172 21.7773C149.172 20.0664 149.465 18.8008 150.051 17.9805C150.215 17.7461 150.367 17.6289 150.508 17.6289C150.742 17.6289 150.859 18.0273 150.859 18.8242C150.859 19.5977 150.742 20.4648 150.508 21.4258C150.273 22.3633 150.156 23.1484 150.156 23.7812C150.344 23.5938 150.906 22.9375 151.844 21.8125C152.781 20.6875 153.344 20.0312 153.531 19.8438C153.695 19.75 153.977 19.5156 154.375 19.1406C155.219 18.3906 155.957 18.0156 156.59 18.0156C156.941 18.0156 157.164 18.1328 157.258 18.3672C157.281 18.625 157.293 19.0469 157.293 19.6328C157.293 20.1953 157.199 21.0977 157.012 22.3398C156.824 23.5586 156.719 24.5312 156.695 25.2578C156.695 26.3594 157.152 26.9102 158.066 26.9102C158.723 26.9102 159.355 26.7344 159.965 26.3828C160.574 26.0078 161.066 25.5977 161.441 25.1523C161.816 24.6836 162.25 24.1562 162.742 23.5703C163.234 22.9609 163.668 22.5156 164.043 22.2344V22.5859C164.043 23.7109 163.316 24.8828 161.863 26.1016C160.41 27.2969 159.086 27.8945 157.891 27.8945H156.73C156.379 27.6602 156.145 27.4375 156.027 27.2266C155.934 27.0156 155.863 26.8633 155.816 26.7695C155.77 26.6758 155.734 26.5352 155.711 26.3477C155.711 26.1367 155.711 25.9844 155.711 25.8906V24.3438ZM171.672 19.0703C170.992 20.8047 170.652 22.4219 170.652 23.9219C170.652 26.4062 172 27.6484 174.695 27.6484C175.375 27.5547 175.879 27.4141 176.207 27.2266C176.559 27.0391 176.934 26.7227 177.332 26.2773C177.73 25.8086 178.117 25.4219 178.492 25.1172H178.668C178.551 26.4297 178.094 27.3203 177.297 27.7891C176.523 28.2344 175.457 28.457 174.098 28.457C171.168 28.457 169.586 27.2266 169.352 24.7656C169.234 25.375 168.695 26.0898 167.734 26.9102C166.797 27.707 165.953 28.1055 165.203 28.1055C165.156 28.1055 165.098 28.1055 165.027 28.1055C163.574 27.707 162.848 26.8398 162.848 25.5039C162.848 23.7695 163.75 22.082 165.555 20.4414C166.961 19.1523 168.332 18.5078 169.668 18.5078C170.418 18.5078 171.086 18.6953 171.672 19.0703ZM163.938 25.3281C163.938 25.7031 163.949 26.0078 163.973 26.2422C164.02 26.4531 164.137 26.6523 164.324 26.8398C164.535 27.0273 164.828 27.1211 165.203 27.1211C166.234 27.0742 167.266 26.2539 168.297 24.6602C169.352 23.043 169.914 21.6602 169.984 20.5117C169.609 20.043 169.094 19.8086 168.438 19.8086C167.594 19.8086 166.715 20.3477 165.801 21.4258C164.887 22.5039 164.266 23.8047 163.938 25.3281ZM184.961 24.3438C184.961 23.9219 184.961 23.1953 184.961 22.1641C184.984 21.1094 184.996 20.207 184.996 19.457C184.34 19.5977 183.379 20.4414 182.113 21.9883C180.871 23.5352 180.191 24.3438 180.074 24.4141C179.16 25.6328 178.445 26.5 177.93 27.0156C177.719 27.2969 177.379 27.4375 176.91 27.4375V26.6641L178.422 21.7773C178.422 20.0664 178.715 18.8008 179.301 17.9805C179.465 17.7461 179.617 17.6289 179.758 17.6289C179.992 17.6289 180.109 18.0273 180.109 18.8242C180.109 19.5977 179.992 20.4648 179.758 21.4258C179.523 22.3633 179.406 23.1484 179.406 23.7812C179.594 23.5938 180.156 22.9375 181.094 21.8125C182.031 20.6875 182.594 20.0312 182.781 19.8438C182.945 19.75 183.227 19.5156 183.625 19.1406C184.469 18.3906 185.207 18.0156 185.84 18.0156C186.191 18.0156 186.414 18.1328 186.508 18.3672C186.531 18.625 186.543 19.0469 186.543 19.6328C186.543 20.1953 186.449 21.0977 186.262 22.3398C186.074 23.5586 185.969 24.5312 185.945 25.2578C185.945 26.3594 186.402 26.9102 187.316 26.9102C187.973 26.9102 188.605 26.7344 189.215 26.3828C189.824 26.0078 190.316 25.5977 190.691 25.1523C191.066 24.6836 191.5 24.1562 191.992 23.5703C192.484 22.9609 192.918 22.5156 193.293 22.2344V22.5859C193.293 23.7109 192.566 24.8828 191.113 26.1016C189.66 27.2969 188.336 27.8945 187.141 27.8945H185.98C185.629 27.6602 185.395 27.4375 185.277 27.2266C185.184 27.0156 185.113 26.8633 185.066 26.7695C185.02 26.6758 184.984 26.5352 184.961 26.3477C184.961 26.1367 184.961 25.9844 184.961 25.8906V24.3438ZM209.957 27.6484C209.957 27.7188 209.887 27.7539 209.746 27.7539C209.395 27.7539 209.195 27.5195 209.148 27.0508L209.465 26.4531C210.848 24.4609 215.043 19.5508 222.051 11.7227L222.156 11.6875L222.367 11.6523L222.754 11.6172C223.012 11.6172 223.141 11.7461 223.141 12.0039C223.141 12.0742 223.129 12.1562 223.105 12.25C223.105 12.3438 223 12.5312 222.789 12.8125C222.578 13.0938 222.426 13.2695 222.332 13.3398C217.41 17.8398 213.285 22.6094 209.957 27.6484ZM228.836 10.7734L229.68 10.3164L229.75 10.3516H229.82C230.102 10.4453 230.336 10.6211 230.523 10.8789C232.68 13.6445 235.27 16.4219 238.293 19.2109C238.434 19.3047 238.504 19.4102 238.504 19.5273C238.504 19.6211 238.492 19.6914 238.469 19.7383V19.9141C237.953 20.0547 236.875 20.6758 235.234 21.7773C231.156 24.8008 228.836 26.5938 228.273 27.1562C228.227 27.2031 228.074 27.3906 227.816 27.7188C227.441 28.2109 227.102 28.457 226.797 28.457C226.727 28.457 226.539 28.4219 226.234 28.3516C226.141 28.1641 226.094 27.9414 226.094 27.6836C226.094 27.4258 226.105 27.2852 226.129 27.2617L236.219 19.2812C233.922 17.4297 231.531 14.8281 229.047 11.4766C228.977 11.4531 228.906 11.3477 228.836 11.1602C228.789 10.9492 228.789 10.8203 228.836 10.7734Z" fill="black"/>
</svg>
