<svg width="1358" height="1251" viewBox="0 0 1358 1251" fill="none" xmlns="http://www.w3.org/2000/svg">
<g id="undraw_static_assets_rpm6 (1) 1">
<path id="Vector" opacity="0.1" d="M534.76 556.3C770.956 556.3 962.43 537.908 962.43 515.22C962.43 492.532 770.956 474.14 534.76 474.14C298.564 474.14 107.09 492.532 107.09 515.22C107.09 537.908 298.564 556.3 534.76 556.3Z" fill="#E5E9FF"/>
<path id="Vector_2" opacity="0.1" d="M437.3 324.03L432.79 326.75V313.36L435.92 311.86C436.127 315.941 436.588 320.006 437.3 324.03Z" fill="black"/>
<path id="Vector_3" d="M387.41 263H650.58V526.15H387.41V263Z" fill="#F7DF1E"/>
<path id="Vector_4" d="M456.62 482.91L476.76 470.72C480.65 477.61 484.18 483.44 492.66 483.44C500.79 483.44 505.91 480.26 505.91 467.9V383.81H530.64V468.24C530.64 493.85 515.64 505.51 493.72 505.51C473.94 505.51 462.46 495.26 456.63 482.9L456.62 482.91ZM544.07 480.25L564.2 468.59C569.5 477.25 576.39 483.59 588.58 483.59C598.83 483.59 605.36 478.47 605.36 471.4C605.36 462.92 598.65 459.92 587.36 454.97L581.18 452.32C563.34 444.73 551.5 435.19 551.5 415.05C551.5 396.5 565.63 382.37 587.71 382.37C603.43 382.37 614.71 387.85 622.86 402.15L603.61 414.52C599.37 406.92 594.78 403.92 587.71 403.92C580.47 403.92 575.87 408.51 575.87 414.52C575.87 421.94 580.46 424.94 591.06 429.52L597.24 432.17C618.24 441.17 630.1 450.36 630.1 471.03C630.1 493.29 612.61 505.48 589.1 505.48C566.1 505.48 551.3 494.48 544.1 480.22" fill="black"/>
<path id="Vector_5" d="M854.42 469.22L847.63 469.67L844.05 469.91V461.26L848.75 460.41L851.66 459.88C851.66 459.88 860.66 433.25 869.3 438.09C877.94 442.93 854.42 469.22 854.42 469.22Z" fill="#714B4F"/>
<path id="Vector_6" opacity="0.1" d="M847.63 469.67L844.05 469.91V461.26L848.75 460.41C847.11 462.58 847.17 466.42 847.63 469.67Z" fill="black"/>
<path id="Vector_7" d="M779.72 475.97C780.388 475.97 780.93 475.195 780.93 474.24C780.93 473.285 780.388 472.51 779.72 472.51C779.052 472.51 778.51 473.285 778.51 474.24C778.51 475.195 779.052 475.97 779.72 475.97Z" fill="#BA7855"/>
<path id="Vector_8" d="M783.17 488.07C783.838 488.07 784.38 487.295 784.38 486.34C784.38 485.385 783.838 484.61 783.17 484.61C782.502 484.61 781.96 485.385 781.96 486.34C781.96 487.295 782.502 488.07 783.17 488.07Z" fill="#BA7855"/>
<path id="Vector_9" d="M962.92 328.42L947.68 499.12L879.18 518.12L810.87 499.12L795.65 328.42H962.92Z" fill="#E44D26"/>
<path id="Vector_10" d="M879.28 503.6L934.63 488.26L947.63 342.38H879.28V503.6Z" fill="#F16529"/>
<path id="Vector_11" d="M849.66 384.26H879.28V363.32H826.78L827.28 368.94L832.43 426.64H879.29V405.7H851.58L849.66 384.26ZM854.42 437.11H833.42L836.35 469.99L879.19 481.93H879.29V460.08H879.2L855.88 453.78L854.42 437.11Z" fill="#EBEBEB"/>
<path id="Vector_12" d="M811.22 282.02H821.86V292.53H831.59V282.02H842.23V313.86H831.59V303.2H821.86V313.86H811.22V282.02ZM856.22 292.58H846.85V282.02H876.23V292.58H866.86V313.86H856.23V292.58H856.22ZM880.9 282.02H892L898.83 293.21L905.65 282.02H916.75V313.86H906.15V298.08L898.83 309.4H898.65L891.32 298.08V313.86H880.9V282.02ZM922.04 282.02H932.68V303.33H947.68V313.85H922.07V282.02H922.04Z" fill="black"/>
<path id="Vector_13" d="M879.21 426.64H904.99L902.56 453.8L879.21 460.1V481.93L922.14 470.03L922.45 466.49L927.37 411.36L927.88 405.74H879.21V426.68V426.64ZM879.21 384.21V384.26H929.79L930.21 379.55L931.21 368.93L931.71 363.31H879.21V384.2V384.21Z" fill="white"/>
<path id="Vector_14" d="M197.42 526.15L114.48 503.15L96 295.85H299.09L280.59 503.12L197.42 526.15Z" fill="#264DE4"/>
<path id="Vector_15" d="M264.75 489.93L280.56 312.81H197.56V508.52L264.75 489.93Z" fill="#2965F1"/>
<path id="Vector_16" d="M138.42 389.66L140.7 415.08H197.6V389.66H138.42ZM133.84 338.2L136.15 363.62H197.59V338.2H133.79H133.84ZM197.59 455.69H197.48L169.16 448.04L167.35 427.76H141.78L145.34 467.68L197.42 482.17H197.54L197.59 455.69Z" fill="#EBEBEB"/>
<path id="Vector_17" d="M143.8 239.49H174.59V252.37H156.67V265.25H174.59V278.13H143.8V239.49ZM180.8 239.49H211.59V250.69H193.63V252.93H211.55V278.69H180.75V266.93H198.67V264.69H180.75V239.49H180.8ZM217.8 239.49H248.59V250.69H230.58V252.93H248.5V278.69H217.7V266.93H235.62V264.69H217.7V239.49H217.8Z" fill="black"/>
<path id="Vector_18" d="M256.56 389.66L261.15 338.2H197.42V363.62H233.25L230.94 389.62H197.42V415.04H228.73L225.73 448.04L197.42 455.71V482.16L249.54 467.71L249.92 463.41L255.92 396.47L256.54 389.64L256.56 389.66Z" fill="white"/>
<path id="Vector_19" d="M533.665 90.3602C533.665 93.6434 532.692 96.8528 530.868 99.5827C529.044 102.313 526.451 104.44 523.418 105.697C520.385 106.953 517.047 107.282 513.827 106.641C510.607 106.001 507.649 104.42 505.327 102.098C503.006 99.7766 501.425 96.8188 500.784 93.5987C500.144 90.3786 500.473 87.0409 501.729 84.0077C502.985 80.9744 505.113 78.3818 507.843 76.5578C510.573 74.7338 513.782 73.7602 517.065 73.7602C519.248 73.7496 521.412 74.1717 523.431 75.0022C525.449 75.8327 527.283 77.055 528.827 78.5986C530.371 80.1422 531.593 81.9764 532.423 83.9951C533.254 86.0139 533.676 88.1773 533.665 90.3602V90.3602Z" fill="#3F3D56"/>
<path id="Vector_20" d="M503.805 94.5502C502.49 92.1723 501.777 89.5081 501.73 86.7908C501.683 84.0736 502.303 81.3863 503.535 78.9643C504.768 76.5423 506.576 74.4595 508.801 72.8985C511.025 71.3374 513.599 70.3457 516.295 70.0102C514.008 69.9301 511.73 70.3237 509.602 71.1664C507.474 72.009 505.544 73.2825 503.932 74.9067C502.32 76.531 501.061 78.4711 500.235 80.605C499.408 82.739 499.032 85.0208 499.129 87.3071C499.227 89.5935 499.796 91.8349 500.801 93.8908C501.806 95.9467 503.226 97.7725 504.97 99.2537C506.714 100.735 508.746 101.839 510.938 102.498C513.129 103.156 515.433 103.355 517.705 103.08C514.85 102.975 512.071 102.134 509.636 100.64C507.201 99.1455 505.192 97.048 503.805 94.5502V94.5502Z" fill="#3F3D56"/>
<path id="Vector_21" d="M540.785 113.48H496.315V182.85H540.785V113.48Z" fill="#3F3D56"/>
<path id="Vector_22" opacity="0.1" d="M540.785 113.48H496.315V182.85H540.785V113.48Z" fill="black"/>
<path id="Vector_23" d="M426.066 365.16C426.066 365.16 421.316 378.21 410.066 379.99C398.816 381.77 392.276 384.73 392.276 384.73L418.956 401.92L433.186 400.14C433.186 400.14 434.966 381.76 440.896 377.61C446.826 373.46 426.066 365.16 426.066 365.16Z" fill="#FBBEBE"/>
<path id="Vector_24" d="M618.746 365.16C618.746 365.16 623.496 378.21 634.746 379.99C645.996 381.77 652.536 384.73 652.536 384.73L625.856 401.92L611.626 400.14C611.626 400.14 609.846 381.76 603.916 377.61C597.986 373.46 618.746 365.16 618.746 365.16Z" fill="#FBBEBE"/>
<path id="Vector_25" d="M488.905 250.14C488.905 250.14 481.795 253.7 479.425 260.82C479.425 260.82 466.425 264.97 459.265 276.23C459.265 276.23 450.365 285.72 449.185 290.46C448.005 295.2 434.405 323.66 434.405 323.66C434.405 323.66 420.765 368.13 413.655 372.87C413.655 372.87 436.185 368.13 440.335 390.66C440.335 390.66 445.665 390.66 451.595 369.91C457.525 349.16 471.755 323.66 471.755 323.66C471.755 323.66 476.495 305.88 480.645 302.91C484.795 299.94 491.315 286.31 497.245 289.91C503.175 293.51 542.305 289.31 542.305 289.31C542.305 289.31 565.405 299.95 565.985 307.06C566.565 314.17 570.725 314.77 571.315 320.7C571.905 326.63 593.845 373.46 593.845 373.46C593.845 373.46 597.995 386.46 599.185 389.46C599.185 389.46 612.185 358.04 629.425 375.83C629.425 375.83 628.825 363.97 623.495 356.83C618.165 349.69 595.035 293.99 595.035 293.99C595.035 293.99 592.665 285.69 590.295 283.32C587.925 280.95 569.535 261.97 563.015 261.97C563.015 261.97 559.465 253.08 555.315 251.89L488.905 250.14Z" fill="#3F3D56"/>
<path id="Vector_26" d="M435.545 395.99C430.915 397.849 425.882 398.477 420.936 397.813C415.991 397.149 411.301 395.215 407.325 392.2C403.462 389.233 399.23 386.779 394.735 384.9C388.445 382.36 380.925 380.48 378.635 384.73C374.485 392.44 429.025 411.41 429.025 411.41C429.025 411.41 436.145 407.26 435.545 395.99Z" fill="#3F3D56"/>
<path id="Vector_27" d="M609.266 395.99C613.896 397.849 618.929 398.477 623.875 397.813C628.82 397.149 633.51 395.215 637.486 392.2C641.349 389.233 645.581 386.779 650.076 384.9C656.366 382.36 663.886 380.48 666.176 384.73C670.326 392.44 615.786 411.41 615.786 411.41C615.786 411.41 608.666 407.26 609.266 395.99Z" fill="#3F3D56"/>
<path id="Vector_28" d="M508.285 152.63C508.065 154.69 507.385 156.92 505.625 158.01C504.185 158.91 502.365 158.84 500.705 159.18C498.963 159.617 497.347 160.457 495.988 161.633C494.63 162.809 493.567 164.288 492.885 165.95C491.554 169.305 491.292 172.99 492.135 176.5C492.528 178.219 493.036 179.91 493.655 181.56C495.395 186.48 497.496 191.36 500.746 195.45C503.519 198.702 506.637 201.642 510.045 204.22C512.155 205.94 514.336 207.69 516.936 208.5C518.698 208.966 520.512 209.207 522.335 209.22C524.585 209.32 526.986 209.39 528.936 208.27C531.936 206.54 532.825 202.72 534.455 199.65C535.835 197.05 537.896 194.84 539.186 192.19C540.102 190.102 540.773 187.914 541.186 185.67L543.955 173.37C544.955 168.9 545.875 163.86 543.365 160.03C543.183 159.719 542.93 159.455 542.625 159.26C542.143 159.07 541.616 159.018 541.105 159.11C537.917 159.317 534.738 158.591 531.955 157.02C531.519 156.795 531.129 156.489 530.805 156.12C530.406 155.48 530.166 154.753 530.105 154C529.835 152.476 529.406 150.985 528.825 149.55C528.662 149.033 528.361 148.57 527.955 148.21C527.53 147.943 527.046 147.782 526.545 147.74C522.265 147.046 517.948 146.595 513.615 146.39C512.195 146.32 510.055 145.75 509.075 147.01C508.095 148.27 508.405 151.13 508.285 152.63Z" fill="#FBBEBE"/>
<path id="Vector_29" d="M500.255 159.7C497.94 159.009 495.542 158.632 493.125 158.58C487.405 158.44 481.285 160.41 477.985 165.08C475.737 168.451 474.914 172.574 475.695 176.55C476.492 180.489 478.282 184.158 480.895 187.21C482.406 188.814 483.746 190.57 484.895 192.45C486.475 195.45 486.525 199.04 486.955 202.45C487.955 210.57 491.415 218.2 492.785 226.27C494.155 234.34 492.975 243.69 486.605 248.82C485.535 249.68 484.235 250.59 484.145 251.96C484.005 254.15 486.855 255.08 489.045 255.29C495.595 255.91 502.315 256.52 508.675 254.83C511.305 254.13 513.845 253.04 516.525 252.54C523.325 251.27 530.165 253.88 536.975 255.13C541.904 255.944 546.891 256.348 551.885 256.34C553.048 256.444 554.219 256.29 555.315 255.89C555.859 255.677 556.32 255.297 556.633 254.804C556.946 254.312 557.094 253.732 557.055 253.15C556.833 252.396 556.428 251.709 555.875 251.15C552.435 246.9 551.385 241.25 550.445 235.86L547.295 217.75C545.605 208.07 544.035 197.55 548.615 188.86C551.905 182.61 557.975 178.21 561.445 172.06C562.655 170.201 563.201 167.988 562.995 165.78C562.475 162.69 559.685 160.48 556.825 159.19C551.322 156.722 545.075 156.492 539.405 158.55C539.505 162.88 538.405 167.26 537.695 171.55L536.485 178.55C535.87 182.675 534.964 186.752 533.775 190.75C533.344 192.35 532.607 193.85 531.605 195.17C530.538 196.357 529.233 197.308 527.775 197.96C524.619 199.503 521.149 200.297 517.635 200.28C516.114 200.304 514.599 200.07 513.155 199.59C510.829 198.57 508.731 197.095 506.985 195.25C506.374 194.727 505.826 194.133 505.355 193.48C504.857 192.649 504.483 191.75 504.245 190.81C503.436 188.364 502.797 185.865 502.335 183.33C502.035 181.39 501.935 179.42 501.795 177.46C501.405 171.67 501.405 165.27 500.255 159.7Z" fill="#E5E9FF"/>
<path id="Vector_30" d="M494.246 274.45C494.246 274.45 491.875 305.88 506.695 311.21C521.515 316.54 508.475 285.12 508.475 285.12L503.725 275.64L494.246 274.45Z" fill="#DBB8BD"/>
<path id="Vector_31" d="M544.635 274.45C544.635 274.45 547.005 305.88 532.185 311.21C517.365 316.54 530.405 285.12 530.405 285.12L535.155 275.64L544.635 274.45Z" fill="#DBB8BD"/>
<path id="Vector_32" opacity="0.1" d="M481.195 169.55L476.455 177.26C476.455 177.26 480.605 203.94 481.195 208.68C481.707 212.101 482.503 215.472 483.575 218.76C483.575 218.76 484.165 232.99 484.165 238.33C484.165 243.67 487.165 252.56 487.165 252.56C487.584 257.6 488.591 262.574 490.165 267.38C492.535 273.9 494.905 281.61 494.905 281.61C494.905 281.61 497.905 273.31 509.725 285.76C511.049 284.417 511.792 282.606 511.792 280.72C511.792 278.834 511.049 277.024 509.725 275.68C509.725 275.68 506.175 259.68 506.175 251.37C506.175 243.06 499.645 203.37 499.645 203.37C499.645 203.37 495.405 158.25 481.195 169.55Z" fill="black"/>
<path id="Vector_33" d="M480.016 168.92L475.276 176.63C475.276 176.63 479.426 203.31 480.016 208.05C480.529 211.471 481.328 214.843 482.406 218.13C482.406 218.13 482.996 232.36 482.996 237.69C482.996 243.02 485.996 251.92 485.996 251.92C486.411 256.961 487.418 261.935 488.996 266.74C491.366 273.27 493.746 280.97 493.746 280.97C493.746 280.97 496.745 272.67 508.565 285.12C509.886 283.777 510.627 281.969 510.627 280.085C510.627 278.201 509.886 276.393 508.565 275.05C508.565 275.05 505.005 259.05 505.005 250.74C505.005 242.43 498.486 202.74 498.486 202.74C498.486 202.74 494.246 157.65 480.016 168.92Z" fill="#E5E9FF"/>
<path id="Vector_34" opacity="0.1" d="M558.275 164.77L561.275 168.3C561.275 168.3 564.765 188.48 557.055 213.98L554.685 237.1C554.685 237.1 550.535 256.67 549.945 261.41C549.355 266.15 549.355 266.74 548.165 268.52C547.805 268.937 547.606 269.469 547.606 270.02C547.606 270.571 547.805 271.104 548.165 271.52L544.605 284.52C544.605 284.52 539.275 278 528.605 286.3C528.605 286.3 525.605 281.56 528.005 277.41C530.405 273.26 530.375 271.48 529.785 270.29C529.195 269.1 532.155 263.18 532.155 261.99C532.155 260.8 536.335 233.55 536.335 233.55C536.335 233.55 538.115 206.87 539.895 197.98C540.985 192.51 540.965 180.32 540.775 171.74C540.585 162.8 551.405 157.96 557.775 164.24C557.925 164.4 558.105 164.55 558.275 164.77Z" fill="black"/>
<path id="Vector_35" d="M560.056 163.55L563.056 167.08C563.056 167.08 566.546 187.27 558.836 212.76L556.466 235.88C556.466 235.88 552.316 255.45 551.726 260.19C551.136 264.93 551.126 265.53 549.946 267.31C549.583 267.726 549.383 268.259 549.383 268.81C549.383 269.362 549.583 269.895 549.946 270.31L546.406 283.35C546.406 283.35 541.076 276.82 530.406 285.12C530.406 285.12 527.406 280.38 529.816 276.23C532.226 272.08 532.186 270.3 531.596 269.12C531.006 267.94 533.966 262 533.966 260.82C533.966 259.64 538.116 232.36 538.116 232.36C538.116 232.36 539.896 205.68 541.676 196.78C543.456 187.88 542.266 161.21 542.266 161.21C542.266 161.21 551.756 154.69 560.056 163.55Z" fill="#E5E9FF"/>
<path id="Vector_36" d="M520.325 155.29C533.426 155.29 544.045 144.67 544.045 131.57C544.045 118.47 533.426 107.85 520.325 107.85C507.225 107.85 496.605 118.47 496.605 131.57C496.605 144.67 507.225 155.29 520.325 155.29Z" fill="#FBBEBE"/>
<path id="Vector_37" opacity="0.1" d="M532.695 95.9602C531.555 99.143 529.47 101.902 526.719 103.867C523.969 105.833 520.683 106.912 517.303 106.96C513.922 107.008 510.608 106.022 507.803 104.135C504.997 102.248 502.835 99.5494 501.605 96.4002C510.865 92.6702 520.325 95.9902 520.325 95.9902C525.055 94.3302 529.155 94.4802 532.695 95.9602Z" fill="black"/>
<path id="Vector_38" d="M520.325 97.1802C520.325 97.1802 474.675 81.1802 485.945 158.84C485.945 158.84 496.025 165.36 503.725 161.21C503.725 161.21 498.395 107.26 519.145 109.63C539.895 112 536.335 160.03 536.335 160.03C536.335 160.03 548.195 163.58 551.755 157.03C555.315 150.48 550.565 86.5502 520.325 97.1802Z" fill="#3F3D56"/>
<path id="Vector_39" opacity="0.1" d="M519.145 106.07C504.905 104.45 502.945 129.34 503.145 145.12C503.315 129.43 505.955 108.12 519.145 109.63C533.955 111.32 536.386 136.29 536.556 150.43C536.726 137.45 535.305 107.92 519.145 106.07Z" fill="black"/>
<path id="Vector_40" opacity="0.1" d="M485.945 155.28C484.913 148.482 484.322 141.625 484.175 134.75C484.126 142.814 484.718 150.87 485.945 158.84C485.945 158.84 496.025 165.36 503.725 161.21C503.725 161.21 503.605 159.93 503.465 157.78C495.795 161.65 485.945 155.28 485.945 155.28Z" fill="black"/>
<path id="Vector_41" opacity="0.1" d="M551.755 153.55C548.435 159.63 537.925 156.96 536.505 156.55C536.435 158.75 536.335 160.07 536.335 160.07C536.335 160.07 548.195 163.62 551.755 157.07C552.485 155.73 552.865 151.94 552.755 146.87C552.655 150.12 552.305 152.55 551.755 153.55Z" fill="black"/>
</g>
</svg>
